<svg width="65" height="65" viewBox="0 0 65 65" fill="none" xmlns="http://www.w3.org/2000/svg">
<g filter="url(#filter0_d_634_1257)">
<rect x="4" width="57" height="57" rx="15" fill="white"/>
</g>
<path d="M43.5922 25.3737C43.5922 25.5688 43.5922 25.7249 43.5922 25.881C43.5922 32.1826 43.5922 38.4939 43.5825 44.7954C43.5825 45.1271 43.534 45.488 43.3981 45.7807C43 46.6781 41.932 46.9805 41.0583 46.4635C39.767 45.6929 38.4757 44.9222 37.2039 44.1224C36.7864 43.859 36.4757 43.8492 36.0583 44.1224C34.6699 44.9905 33.2524 45.8099 31.8641 46.6683C31.1359 47.1171 30.4563 47.1171 29.7282 46.6586C28.301 45.7611 26.8447 44.9222 25.4078 44.0443C25.0971 43.8492 24.8544 43.859 24.5437 44.0541C23.2136 44.8735 21.8738 45.6831 20.534 46.4732C19.5146 47.078 18.3301 46.5903 18.0485 45.488C18.0097 45.3124 18 45.1271 18 44.9418C18.0097 35.4992 18.0097 26.0468 18.0097 16.6042C18.0097 13.9997 20.0097 12 22.6019 12C30.2136 12 37.8155 12 45.4272 12C48 12 49.9903 13.99 50.0097 16.575C50.0194 18.5454 50.0194 20.5159 50.0097 22.4961C50 24.1837 48.8252 25.364 47.1456 25.3737C45.9806 25.3737 44.8155 25.3737 43.5922 25.3737ZM20.3398 43.859C20.4757 43.7809 20.5728 43.7322 20.6602 43.6834C21.5825 43.1274 22.5049 42.5714 23.4272 42.0056C24.466 41.3618 25.5049 41.3618 26.5437 41.9958C27.8738 42.8055 29.2233 43.6151 30.5437 44.4345C30.7476 44.5613 30.8932 44.5516 31.0971 44.4345C32.4078 43.6346 33.7379 42.8542 35.0485 42.0446C36.1456 41.3715 37.2039 41.3813 38.2913 42.0641C39.1748 42.6201 40.068 43.1469 40.9612 43.6834C41.0485 43.7322 41.1456 43.7809 41.2816 43.8395C41.2816 43.6444 41.2816 43.498 41.2816 43.3615C41.2816 34.9724 41.2718 26.5931 41.2913 18.204C41.2913 16.9164 41.0874 15.5995 41.7573 14.3509C41.6117 14.3509 41.534 14.3509 41.4466 14.3509C35.1748 14.3509 28.9029 14.3509 22.6214 14.3509C22.4757 14.3509 22.3301 14.3509 22.1845 14.3802C21.0388 14.5753 20.3398 15.4629 20.3398 16.692C20.3398 25.6079 20.3398 34.5334 20.3398 43.4493C20.3398 43.5663 20.3398 43.6834 20.3398 43.859ZM43.6019 23.0326C44.8447 23.0326 46.0485 23.0424 47.2621 23.0229C47.5728 23.0229 47.6893 22.7985 47.6893 22.4961C47.6893 20.4866 47.699 18.4869 47.6796 16.4774C47.6699 15.3654 46.8155 14.4679 45.7184 14.3411C44.6505 14.2241 43.6214 15.024 43.6117 16.0775C43.5825 18.3796 43.6019 20.6817 43.6019 23.0326Z" fill="#003760"/>
<path d="M29.9611 20.828C31.466 20.828 32.9611 20.828 34.466 20.828C35.2524 20.828 35.7572 21.2865 35.7669 21.9888C35.7669 22.6814 35.2524 23.1692 34.4757 23.1692C31.4466 23.1692 28.4174 23.1692 25.3883 23.1692C24.7184 23.1692 24.233 22.7497 24.1456 22.1254C24.0776 21.5889 24.4174 21.0524 24.9514 20.8866C25.1068 20.8378 25.2815 20.828 25.4563 20.828C26.9611 20.828 28.466 20.828 29.9611 20.828Z" fill="#003760"/>
<path d="M29.9418 29.4122C28.4175 29.4122 26.8933 29.4219 25.369 29.4122C24.534 29.4024 23.9903 28.7099 24.2039 27.949C24.3301 27.5003 24.6214 27.2174 25.0777 27.1198C25.2428 27.0808 25.4175 27.0808 25.5826 27.0808C28.5146 27.0808 31.4467 27.0808 34.369 27.0808C34.5826 27.0808 34.8059 27.0906 35.0098 27.1588C35.5243 27.3247 35.835 27.8612 35.7573 28.427C35.6894 28.944 35.2622 29.3634 34.7282 29.4024C34.3107 29.4317 33.8835 29.4122 33.4564 29.4122C32.2816 29.4122 31.1068 29.4122 29.9418 29.4122Z" fill="#003760"/>
<path d="M29.9611 33.4702C31.466 33.4702 32.9611 33.4702 34.466 33.4702C35.2427 33.4702 35.7572 33.9384 35.7669 34.631C35.7669 35.3236 35.2524 35.8016 34.4757 35.8016C31.4563 35.8016 28.4465 35.8016 25.4271 35.8016C24.6699 35.8016 24.1262 35.2943 24.1359 34.6115C24.1456 33.9384 24.6699 33.4604 25.4174 33.4604C26.9417 33.4702 28.4563 33.4702 29.9611 33.4702Z" fill="#003760"/>
<defs>
<filter id="filter0_d_634_1257" x="0" y="0" width="65" height="65" filterUnits="userSpaceOnUse" color-interpolation-filters="sRGB">
<feFlood flood-opacity="0" result="BackgroundImageFix"/>
<feColorMatrix in="SourceAlpha" type="matrix" values="0 0 0 0 0 0 0 0 0 0 0 0 0 0 0 0 0 0 127 0" result="hardAlpha"/>
<feOffset dy="4"/>
<feGaussianBlur stdDeviation="2"/>
<feComposite in2="hardAlpha" operator="out"/>
<feColorMatrix type="matrix" values="0 0 0 0 0 0 0 0 0 0 0 0 0 0 0 0 0 0 0.25 0"/>
<feBlend mode="normal" in2="BackgroundImageFix" result="effect1_dropShadow_634_1257"/>
<feBlend mode="normal" in="SourceGraphic" in2="effect1_dropShadow_634_1257" result="shape"/>
</filter>
</defs>
</svg>
