<svg width="46" height="44" viewBox="0 0 46 44" fill="none" xmlns="http://www.w3.org/2000/svg">
<g filter="url(#filter0_d_218_291)">
<path d="M41.5001 8.2252C41.2072 9.13018 40.9132 10.0348 40.6215 10.9401C39.2377 15.2393 37.8546 19.5389 36.4712 23.8381C36.2805 24.43 35.8618 24.7336 35.2357 24.7336C29.3251 24.7336 23.4146 24.7336 17.504 24.7336C17.422 24.7336 17.3397 24.7336 17.247 24.7336C16.8901 25.7214 16.5351 26.7035 16.1682 27.719C16.2773 27.719 16.357 27.719 16.4363 27.719C22.6771 27.719 28.9178 27.7198 35.1582 27.7168C35.511 27.7168 35.8286 27.7783 36.0654 28.0606C36.3289 28.3748 36.3911 28.7296 36.2275 29.105C36.0643 29.4804 35.7619 29.6855 35.352 29.7018C34.9809 29.7167 34.6091 29.7049 34.2202 29.7049C35.8385 31.6463 34.9813 33.9642 33.7412 34.9113C32.3204 35.9968 30.3352 35.9102 29.0227 34.664C27.7605 33.465 27.4589 31.3241 28.8195 29.7212C26.2242 29.7212 23.6426 29.7212 21.0576 29.7212C22.682 31.6729 21.7851 34.0178 20.5199 34.9448C19.0632 36.0124 17.0613 35.8862 15.7922 34.612C14.5308 33.3453 14.3394 31.2554 15.6485 29.7224C15.5909 29.7159 15.5463 29.7064 15.5013 29.706C15.2664 29.7045 15.0315 29.706 14.7966 29.7053C14.0397 29.7022 13.5748 29.051 13.8288 28.3372C14.2288 27.2137 14.6372 26.0937 15.0414 24.9718C15.0666 24.9023 15.0883 24.832 15.1203 24.7351C14.9049 24.7351 14.7165 24.7382 14.5281 24.7344C13.9706 24.7237 13.4925 24.3453 13.3876 23.799C13.1386 22.5038 12.9037 21.206 12.6638 19.909C12.3256 18.0785 11.9877 16.2477 11.6503 14.4168C11.3265 12.6604 11.0043 10.904 10.6806 9.14766C10.4277 7.77614 10.1757 6.40462 9.91486 5.03462C9.90227 4.96813 9.81952 4.88986 9.75089 4.86289C8.35752 4.31162 6.96072 3.76643 5.56431 3.22011C5.35801 3.13956 5.14981 3.06396 4.94503 2.97923C4.30593 2.71557 4.00697 2.04121 4.25217 1.42155C4.49393 0.810636 5.16964 0.505938 5.80721 0.752128C7.66618 1.47056 9.52018 2.20153 11.375 2.93022C11.8447 3.11487 12.0751 3.48225 12.1632 3.96437C12.8118 7.50867 13.4639 11.0526 14.1159 14.5965C14.5842 17.1412 15.0544 19.6852 15.5242 22.2295C15.5306 22.2656 15.5478 22.2998 15.5611 22.3386C21.8504 22.3386 28.1346 22.3386 34.4387 22.3386C35.8484 17.955 37.259 13.5684 38.6748 9.16627C38.6253 9.15639 38.5906 9.14462 38.5559 9.1431C37.2815 9.08915 36.0067 9.03748 34.7319 8.98239C33.1021 8.91249 31.4727 8.83878 29.8433 8.76887C28.5369 8.71265 27.2309 8.65984 25.9244 8.60361C24.5803 8.54586 23.2361 8.48545 21.8919 8.4277C20.8772 8.38401 19.8629 8.34298 18.8482 8.30005C18.2457 8.27459 17.6428 8.25712 17.0411 8.22027C16.4222 8.18265 15.9261 7.62303 15.9425 7.00413C15.9596 6.36928 16.482 5.82599 17.1124 5.84081C18.134 5.86475 19.1544 5.91984 20.1752 5.96315C21.2215 6.0076 22.2675 6.05433 23.3139 6.09992C24.6706 6.15881 26.0278 6.21769 27.3845 6.27582C28.3863 6.31875 29.3884 6.36017 30.3901 6.40348C32.0386 6.4749 33.6871 6.54823 35.3359 6.61851C36.6611 6.67512 37.9865 6.72831 39.312 6.78378C39.6796 6.79936 40.0495 6.7986 40.4144 6.83963C40.9613 6.90155 41.3128 7.21309 41.4646 7.74384C41.4711 7.76626 41.4879 7.78601 41.4997 7.80691C41.5001 7.94672 41.5001 8.08577 41.5001 8.2252ZM18.3536 30.5023C17.4777 30.4974 16.749 31.2143 16.7444 32.0862C16.7398 32.9528 17.4708 33.685 18.3414 33.685C19.2078 33.685 19.9319 32.9699 19.9388 32.1079C19.9456 31.2326 19.2299 30.5077 18.3536 30.5023ZM31.5299 30.5027C30.6529 30.4982 29.9253 31.2151 29.9223 32.087C29.9192 32.9563 30.6472 33.6846 31.5189 33.685C32.3841 33.6853 33.1086 32.9699 33.117 32.1075C33.1254 31.2356 32.4047 30.5073 31.5299 30.5027Z" fill="#003760"/>
</g>
<defs>
<filter id="filter0_d_218_291" x="0.166809" y="0.666656" width="45.3333" height="42.9998" filterUnits="userSpaceOnUse" color-interpolation-filters="sRGB">
<feFlood flood-opacity="0" result="BackgroundImageFix"/>
<feColorMatrix in="SourceAlpha" type="matrix" values="0 0 0 0 0 0 0 0 0 0 0 0 0 0 0 0 0 0 127 0" result="hardAlpha"/>
<feOffset dy="4"/>
<feGaussianBlur stdDeviation="2"/>
<feComposite in2="hardAlpha" operator="out"/>
<feColorMatrix type="matrix" values="0 0 0 0 0 0 0 0 0 0 0 0 0 0 0 0 0 0 0.25 0"/>
<feBlend mode="normal" in2="BackgroundImageFix" result="effect1_dropShadow_218_291"/>
<feBlend mode="normal" in="SourceGraphic" in2="effect1_dropShadow_218_291" result="shape"/>
</filter>
</defs>
</svg>
