<svg width="335" height="617" viewBox="0 0 335 617" fill="none" xmlns="http://www.w3.org/2000/svg">
<g filter="url(#filter0_i_938_857)">
<rect y="595" width="331" height="22" rx="11" fill="#F4F4F4"/>
</g>
<rect y="595" width="64" height="22" rx="11" fill="url(#paint0_linear_938_857)"/>
<g filter="url(#filter1_d_938_857)">
<path d="M297 98.8182C291.632 -16.9196 111.745 -31.4028 58.0665 57.538C28.6072 101.498 52.0596 160.388 97.4947 182.591C99.5396 183.739 99.9869 184.888 99.4757 187.057C99.0923 203.391 66.5017 226.487 80.5604 226.998C110.787 227.189 139.99 216.087 165.935 201.285C224.853 198.669 294.124 165.364 297 98.8182Z" fill="#003760"/>
</g>
<path d="M115.049 59.336C115.483 59.336 115.847 59.492 116.141 59.804C116.453 60.116 116.609 60.4973 116.609 60.948C116.609 61.3987 116.453 61.78 116.141 62.092C115.847 62.404 115.483 62.56 115.049 62.56C114.599 62.56 114.217 62.404 113.905 62.092C113.593 61.78 113.437 61.3987 113.437 60.948C113.437 60.4973 113.593 60.116 113.905 59.804C114.217 59.492 114.599 59.336 115.049 59.336ZM113.957 64.614H115.933L116.219 77.614H113.671L113.957 64.614ZM123.262 57.802V63.86H129.866V65.81H123.262V72.05H130.646V74H120.896V55.852H130.646V57.802H123.262ZM139.27 74.234C138.178 74.234 137.198 74.052 136.332 73.688C135.465 73.3067 134.78 72.7867 134.278 72.128C133.775 71.452 133.498 70.6807 133.446 69.814H135.89C135.959 70.5247 136.288 71.1053 136.878 71.556C137.484 72.0067 138.273 72.232 139.244 72.232C140.145 72.232 140.856 72.0327 141.376 71.634C141.896 71.2353 142.156 70.7327 142.156 70.126C142.156 69.502 141.878 69.0427 141.324 68.748C140.769 68.436 139.911 68.1327 138.75 67.838C137.692 67.5607 136.826 67.2833 136.15 67.006C135.491 66.7113 134.919 66.2867 134.434 65.732C133.966 65.16 133.732 64.4147 133.732 63.496C133.732 62.768 133.948 62.1007 134.382 61.494C134.815 60.8873 135.43 60.4107 136.228 60.064C137.025 59.7 137.935 59.518 138.958 59.518C140.535 59.518 141.809 59.9167 142.78 60.714C143.75 61.5113 144.27 62.6033 144.34 63.99H141.974C141.922 63.2447 141.618 62.6467 141.064 62.196C140.526 61.7453 139.798 61.52 138.88 61.52C138.03 61.52 137.354 61.702 136.852 62.066C136.349 62.43 136.098 62.9067 136.098 63.496C136.098 63.964 136.245 64.354 136.54 64.666C136.852 64.9607 137.233 65.2033 137.684 65.394C138.152 65.5673 138.793 65.7667 139.608 65.992C140.63 66.2693 141.462 66.5467 142.104 66.824C142.745 67.084 143.291 67.4827 143.742 68.02C144.21 68.5573 144.452 69.2593 144.47 70.126C144.47 70.906 144.253 71.608 143.82 72.232C143.386 72.856 142.771 73.35 141.974 73.714C141.194 74.0607 140.292 74.234 139.27 74.234ZM150.696 61.702V70.1C150.696 70.7933 150.843 71.2873 151.138 71.582C151.432 71.8593 151.944 71.998 152.672 71.998H154.414V74H152.282C150.964 74 149.976 73.6967 149.318 73.09C148.659 72.4833 148.33 71.4867 148.33 70.1V61.702H146.484V59.752H148.33V56.164H150.696V59.752H154.414V61.702H150.696ZM156.396 66.824C156.396 65.368 156.691 64.094 157.28 63.002C157.87 61.8927 158.676 61.0347 159.698 60.428C160.738 59.8213 161.891 59.518 163.156 59.518C164.404 59.518 165.488 59.7867 166.406 60.324C167.325 60.8613 168.01 61.5373 168.46 62.352V59.752H170.852V74H168.46V71.348C167.992 72.18 167.29 72.8733 166.354 73.428C165.436 73.9653 164.361 74.234 163.13 74.234C161.865 74.234 160.721 73.922 159.698 73.298C158.676 72.674 157.87 71.7987 157.28 70.672C156.691 69.5453 156.396 68.2627 156.396 66.824ZM168.46 66.85C168.46 65.7753 168.244 64.8393 167.81 64.042C167.377 63.2447 166.788 62.638 166.042 62.222C165.314 61.7887 164.508 61.572 163.624 61.572C162.74 61.572 161.934 61.78 161.206 62.196C160.478 62.612 159.898 63.2187 159.464 64.016C159.031 64.8133 158.814 65.7493 158.814 66.824C158.814 67.916 159.031 68.8693 159.464 69.684C159.898 70.4813 160.478 71.0967 161.206 71.53C161.934 71.946 162.74 72.154 163.624 72.154C164.508 72.154 165.314 71.946 166.042 71.53C166.788 71.0967 167.377 70.4813 167.81 69.684C168.244 68.8693 168.46 67.9247 168.46 66.85ZM191.985 59.492C193.094 59.492 194.082 59.726 194.949 60.194C195.815 60.6447 196.5 61.3293 197.003 62.248C197.505 63.1667 197.757 64.2847 197.757 65.602V74H195.417V65.94C195.417 64.5187 195.061 63.4353 194.351 62.69C193.657 61.9273 192.713 61.546 191.517 61.546C190.286 61.546 189.307 61.9447 188.579 62.742C187.851 63.522 187.487 64.6573 187.487 66.148V74H185.147V65.94C185.147 64.5187 184.791 63.4353 184.081 62.69C183.387 61.9273 182.443 61.546 181.247 61.546C180.016 61.546 179.037 61.9447 178.309 62.742C177.581 63.522 177.217 64.6573 177.217 66.148V74H174.851V59.752H177.217V61.806C177.685 61.0607 178.309 60.4887 179.089 60.09C179.886 59.6913 180.761 59.492 181.715 59.492C182.911 59.492 183.968 59.7607 184.887 60.298C185.805 60.8353 186.49 61.624 186.941 62.664C187.339 61.6587 187.998 60.8787 188.917 60.324C189.835 59.7693 190.858 59.492 191.985 59.492ZM207.852 74.234C206.517 74.234 205.304 73.9307 204.212 73.324C203.137 72.7173 202.288 71.8593 201.664 70.75C201.057 69.6233 200.754 68.3233 200.754 66.85C200.754 65.394 201.066 64.1113 201.69 63.002C202.331 61.8753 203.198 61.0173 204.29 60.428C205.382 59.8213 206.604 59.518 207.956 59.518C209.308 59.518 210.53 59.8213 211.622 60.428C212.714 61.0173 213.572 61.8667 214.196 62.976C214.837 64.0853 215.158 65.3767 215.158 66.85C215.158 68.3233 214.828 69.6233 214.17 70.75C213.528 71.8593 212.653 72.7173 211.544 73.324C210.434 73.9307 209.204 74.234 207.852 74.234ZM207.852 72.154C208.701 72.154 209.498 71.9547 210.244 71.556C210.989 71.1573 211.587 70.5593 212.038 69.762C212.506 68.9647 212.74 67.994 212.74 66.85C212.74 65.706 212.514 64.7353 212.064 63.938C211.613 63.1407 211.024 62.5513 210.296 62.17C209.568 61.7713 208.779 61.572 207.93 61.572C207.063 61.572 206.266 61.7713 205.538 62.17C204.827 62.5513 204.255 63.1407 203.822 63.938C203.388 64.7353 203.172 65.706 203.172 66.85C203.172 68.0113 203.38 68.9907 203.796 69.788C204.229 70.5853 204.801 71.1833 205.512 71.582C206.222 71.9633 207.002 72.154 207.852 72.154ZM223.313 74.234C222.221 74.234 221.241 74.052 220.375 73.688C219.508 73.3067 218.823 72.7867 218.321 72.128C217.818 71.452 217.541 70.6807 217.489 69.814H219.933C220.002 70.5247 220.331 71.1053 220.921 71.556C221.527 72.0067 222.316 72.232 223.287 72.232C224.188 72.232 224.899 72.0327 225.419 71.634C225.939 71.2353 226.199 70.7327 226.199 70.126C226.199 69.502 225.921 69.0427 225.367 68.748C224.812 68.436 223.954 68.1327 222.793 67.838C221.735 67.5607 220.869 67.2833 220.193 67.006C219.534 66.7113 218.962 66.2867 218.477 65.732C218.009 65.16 217.775 64.4147 217.775 63.496C217.775 62.768 217.991 62.1007 218.425 61.494C218.858 60.8873 219.473 60.4107 220.271 60.064C221.068 59.7 221.978 59.518 223.001 59.518C224.578 59.518 225.852 59.9167 226.823 60.714C227.793 61.5113 228.313 62.6033 228.383 63.99H226.017C225.965 63.2447 225.661 62.6467 225.107 62.196C224.569 61.7453 223.841 61.52 222.923 61.52C222.073 61.52 221.397 61.702 220.895 62.066C220.392 62.43 220.141 62.9067 220.141 63.496C220.141 63.964 220.288 64.354 220.583 64.666C220.895 64.9607 221.276 65.2033 221.727 65.394C222.195 65.5673 222.836 65.7667 223.651 65.992C224.673 66.2693 225.505 66.5467 226.147 66.824C226.788 67.084 227.334 67.4827 227.785 68.02C228.253 68.5573 228.495 69.2593 228.513 70.126C228.513 70.906 228.296 71.608 227.863 72.232C227.429 72.856 226.814 73.35 226.017 73.714C225.237 74.0607 224.335 74.234 223.313 74.234ZM76.5682 101.378C77.0362 100.563 77.7295 99.8873 78.6482 99.35C79.5842 98.7953 80.6675 98.518 81.8982 98.518C83.1635 98.518 84.3075 98.8213 85.3302 99.428C86.3702 100.035 87.1849 100.893 87.7742 102.002C88.3635 103.094 88.6582 104.368 88.6582 105.824C88.6582 107.263 88.3635 108.545 87.7742 109.672C87.1849 110.799 86.3702 111.674 85.3302 112.298C84.3075 112.922 83.1635 113.234 81.8982 113.234C80.6849 113.234 79.6102 112.965 78.6742 112.428C77.7555 111.873 77.0535 111.189 76.5682 110.374V119.76H74.2022V98.752H76.5682V101.378ZM86.2402 105.824C86.2402 104.749 86.0235 103.813 85.5902 103.016C85.1569 102.219 84.5675 101.612 83.8222 101.196C83.0942 100.78 82.2882 100.572 81.4042 100.572C80.5375 100.572 79.7315 100.789 78.9862 101.222C78.2582 101.638 77.6689 102.253 77.2182 103.068C76.7849 103.865 76.5682 104.793 76.5682 105.85C76.5682 106.925 76.7849 107.869 77.2182 108.684C77.6689 109.481 78.2582 110.097 78.9862 110.53C79.7315 110.946 80.5375 111.154 81.4042 111.154C82.2882 111.154 83.0942 110.946 83.8222 110.53C84.5675 110.097 85.1569 109.481 85.5902 108.684C86.0235 107.869 86.2402 106.916 86.2402 105.824ZM94.1385 101.066C94.5545 100.251 95.1438 99.6187 95.9065 99.168C96.6865 98.7173 97.6312 98.492 98.7405 98.492V100.936H98.1165C95.4645 100.936 94.1385 102.375 94.1385 105.252V113H91.7725V98.752H94.1385V101.066ZM114.472 105.33C114.472 105.781 114.446 106.257 114.394 106.76H103.006C103.092 108.164 103.569 109.265 104.436 110.062C105.32 110.842 106.386 111.232 107.634 111.232C108.656 111.232 109.506 110.998 110.182 110.53C110.875 110.045 111.36 109.403 111.638 108.606H114.186C113.804 109.975 113.042 111.093 111.898 111.96C110.754 112.809 109.332 113.234 107.634 113.234C106.282 113.234 105.068 112.931 103.994 112.324C102.936 111.717 102.104 110.859 101.498 109.75C100.891 108.623 100.588 107.323 100.588 105.85C100.588 104.377 100.882 103.085 101.472 101.976C102.061 100.867 102.884 100.017 103.942 99.428C105.016 98.8213 106.247 98.518 107.634 98.518C108.986 98.518 110.182 98.8127 111.222 99.402C112.262 99.9913 113.059 100.806 113.614 101.846C114.186 102.869 114.472 104.03 114.472 105.33ZM112.028 104.836C112.028 103.935 111.828 103.163 111.43 102.522C111.031 101.863 110.485 101.369 109.792 101.04C109.116 100.693 108.362 100.52 107.53 100.52C106.334 100.52 105.311 100.901 104.462 101.664C103.63 102.427 103.153 103.484 103.032 104.836H112.028ZM119.961 101.378C120.429 100.563 121.122 99.8873 122.041 99.35C122.977 98.7953 124.06 98.518 125.291 98.518C126.556 98.518 127.7 98.8213 128.723 99.428C129.763 100.035 130.577 100.893 131.167 102.002C131.756 103.094 132.051 104.368 132.051 105.824C132.051 107.263 131.756 108.545 131.167 109.672C130.577 110.799 129.763 111.674 128.723 112.298C127.7 112.922 126.556 113.234 125.291 113.234C124.077 113.234 123.003 112.965 122.067 112.428C121.148 111.873 120.446 111.189 119.961 110.374V119.76H117.595V98.752H119.961V101.378ZM129.633 105.824C129.633 104.749 129.416 103.813 128.983 103.016C128.549 102.219 127.96 101.612 127.215 101.196C126.487 100.78 125.681 100.572 124.797 100.572C123.93 100.572 123.124 100.789 122.379 101.222C121.651 101.638 121.061 102.253 120.611 103.068C120.177 103.865 119.961 104.793 119.961 105.85C119.961 106.925 120.177 107.869 120.611 108.684C121.061 109.481 121.651 110.097 122.379 110.53C123.124 110.946 123.93 111.154 124.797 111.154C125.681 111.154 126.487 110.946 127.215 110.53C127.96 110.097 128.549 109.481 128.983 108.684C129.416 107.869 129.633 106.916 129.633 105.824ZM134.281 105.824C134.281 104.368 134.576 103.094 135.165 102.002C135.754 100.893 136.56 100.035 137.583 99.428C138.623 98.8213 139.776 98.518 141.041 98.518C142.289 98.518 143.372 98.7867 144.291 99.324C145.21 99.8613 145.894 100.537 146.345 101.352V98.752H148.737V113H146.345V110.348C145.877 111.18 145.175 111.873 144.239 112.428C143.32 112.965 142.246 113.234 141.015 113.234C139.75 113.234 138.606 112.922 137.583 112.298C136.56 111.674 135.754 110.799 135.165 109.672C134.576 108.545 134.281 107.263 134.281 105.824ZM146.345 105.85C146.345 104.775 146.128 103.839 145.695 103.042C145.262 102.245 144.672 101.638 143.927 101.222C143.199 100.789 142.393 100.572 141.509 100.572C140.625 100.572 139.819 100.78 139.091 101.196C138.363 101.612 137.782 102.219 137.349 103.016C136.916 103.813 136.699 104.749 136.699 105.824C136.699 106.916 136.916 107.869 137.349 108.684C137.782 109.481 138.363 110.097 139.091 110.53C139.819 110.946 140.625 111.154 141.509 111.154C142.393 111.154 143.199 110.946 143.927 110.53C144.672 110.097 145.262 109.481 145.695 108.684C146.128 107.869 146.345 106.925 146.345 105.85ZM155.101 101.066C155.517 100.251 156.107 99.6187 156.869 99.168C157.649 98.7173 158.594 98.492 159.703 98.492V100.936H159.079C156.427 100.936 155.101 102.375 155.101 105.252V113H152.735V98.752H155.101V101.066ZM161.551 105.824C161.551 104.368 161.845 103.094 162.435 102.002C163.024 100.893 163.83 100.035 164.853 99.428C165.893 98.8213 167.045 98.518 168.311 98.518C169.559 98.518 170.642 98.7867 171.561 99.324C172.479 99.8613 173.164 100.537 173.615 101.352V98.752H176.007V113H173.615V110.348C173.147 111.18 172.445 111.873 171.509 112.428C170.59 112.965 169.515 113.234 168.285 113.234C167.019 113.234 165.875 112.922 164.853 112.298C163.83 111.674 163.024 110.799 162.435 109.672C161.845 108.545 161.551 107.263 161.551 105.824ZM173.615 105.85C173.615 104.775 173.398 103.839 172.965 103.042C172.531 102.245 171.942 101.638 171.197 101.222C170.469 100.789 169.663 100.572 168.779 100.572C167.895 100.572 167.089 100.78 166.361 101.196C165.633 101.612 165.052 102.219 164.619 103.016C164.185 103.813 163.969 104.749 163.969 105.824C163.969 106.916 164.185 107.869 164.619 108.684C165.052 109.481 165.633 110.097 166.361 110.53C167.089 110.946 167.895 111.154 168.779 111.154C169.663 111.154 170.469 110.946 171.197 110.53C171.942 110.097 172.531 109.481 172.965 108.684C173.398 107.869 173.615 106.925 173.615 105.85ZM186.947 98.492C188.68 98.492 190.084 99.0207 191.159 100.078C192.234 101.118 192.771 102.626 192.771 104.602V113H190.431V104.94C190.431 103.519 190.076 102.435 189.365 101.69C188.654 100.927 187.684 100.546 186.453 100.546C185.205 100.546 184.208 100.936 183.463 101.716C182.735 102.496 182.371 103.631 182.371 105.122V113H180.005V98.752H182.371V100.78C182.839 100.052 183.472 99.4887 184.269 99.09C185.084 98.6913 185.976 98.492 186.947 98.492ZM195.752 105.824C195.752 104.368 196.046 103.094 196.636 102.002C197.225 100.893 198.031 100.035 199.054 99.428C200.094 98.8213 201.255 98.518 202.538 98.518C203.647 98.518 204.678 98.778 205.632 99.298C206.585 99.8007 207.313 100.468 207.816 101.3V93.76H210.208V113H207.816V110.322C207.348 111.171 206.654 111.873 205.736 112.428C204.817 112.965 203.742 113.234 202.512 113.234C201.246 113.234 200.094 112.922 199.054 112.298C198.031 111.674 197.225 110.799 196.636 109.672C196.046 108.545 195.752 107.263 195.752 105.824ZM207.816 105.85C207.816 104.775 207.599 103.839 207.166 103.042C206.732 102.245 206.143 101.638 205.398 101.222C204.67 100.789 203.864 100.572 202.98 100.572C202.096 100.572 201.29 100.78 200.562 101.196C199.834 101.612 199.253 102.219 198.82 103.016C198.386 103.813 198.17 104.749 198.17 105.824C198.17 106.916 198.386 107.869 198.82 108.684C199.253 109.481 199.834 110.097 200.562 110.53C201.29 110.946 202.096 111.154 202.98 111.154C203.864 111.154 204.67 110.946 205.398 110.53C206.143 110.097 206.732 109.481 207.166 108.684C207.599 107.869 207.816 106.925 207.816 105.85ZM220.42 113.234C219.085 113.234 217.872 112.931 216.78 112.324C215.705 111.717 214.856 110.859 214.232 109.75C213.625 108.623 213.322 107.323 213.322 105.85C213.322 104.394 213.634 103.111 214.258 102.002C214.899 100.875 215.766 100.017 216.858 99.428C217.95 98.8213 219.172 98.518 220.524 98.518C221.876 98.518 223.098 98.8213 224.19 99.428C225.282 100.017 226.14 100.867 226.764 101.976C227.405 103.085 227.726 104.377 227.726 105.85C227.726 107.323 227.397 108.623 226.738 109.75C226.097 110.859 225.221 111.717 224.112 112.324C223.003 112.931 221.772 113.234 220.42 113.234ZM220.42 111.154C221.269 111.154 222.067 110.955 222.812 110.556C223.557 110.157 224.155 109.559 224.606 108.762C225.074 107.965 225.308 106.994 225.308 105.85C225.308 104.706 225.083 103.735 224.632 102.938C224.181 102.141 223.592 101.551 222.864 101.17C222.136 100.771 221.347 100.572 220.498 100.572C219.631 100.572 218.834 100.771 218.106 101.17C217.395 101.551 216.823 102.141 216.39 102.938C215.957 103.735 215.74 104.706 215.74 105.85C215.74 107.011 215.948 107.991 216.364 108.788C216.797 109.585 217.369 110.183 218.08 110.582C218.791 110.963 219.571 111.154 220.42 111.154ZM240.655 100.702V109.1C240.655 109.793 240.802 110.287 241.097 110.582C241.391 110.859 241.903 110.998 242.631 110.998H244.373V113H242.241C240.923 113 239.935 112.697 239.277 112.09C238.618 111.483 238.289 110.487 238.289 109.1V100.702H236.443V98.752H238.289V95.164H240.655V98.752H244.373V100.702H240.655ZM259.875 98.752V113H257.509V110.894C257.059 111.622 256.426 112.194 255.611 112.61C254.814 113.009 253.93 113.208 252.959 113.208C251.85 113.208 250.853 112.983 249.969 112.532C249.085 112.064 248.383 111.371 247.863 110.452C247.361 109.533 247.109 108.415 247.109 107.098V98.752H249.449V106.786C249.449 108.19 249.805 109.273 250.515 110.036C251.226 110.781 252.197 111.154 253.427 111.154C254.693 111.154 255.689 110.764 256.417 109.984C257.145 109.204 257.509 108.069 257.509 106.578V98.752H259.875ZM125.064 140.378C125.532 139.563 126.226 138.887 127.144 138.35C128.08 137.795 129.164 137.518 130.394 137.518C131.66 137.518 132.804 137.821 133.826 138.428C134.866 139.035 135.681 139.893 136.27 141.002C136.86 142.094 137.154 143.368 137.154 144.824C137.154 146.263 136.86 147.545 136.27 148.672C135.681 149.799 134.866 150.674 133.826 151.298C132.804 151.922 131.66 152.234 130.394 152.234C129.181 152.234 128.106 151.965 127.17 151.428C126.252 150.873 125.55 150.189 125.064 149.374V158.76H122.698V137.752H125.064V140.378ZM134.736 144.824C134.736 143.749 134.52 142.813 134.086 142.016C133.653 141.219 133.064 140.612 132.318 140.196C131.59 139.78 130.784 139.572 129.9 139.572C129.034 139.572 128.228 139.789 127.482 140.222C126.754 140.638 126.165 141.253 125.714 142.068C125.281 142.865 125.064 143.793 125.064 144.85C125.064 145.925 125.281 146.869 125.714 147.684C126.165 148.481 126.754 149.097 127.482 149.53C128.228 149.946 129.034 150.154 129.9 150.154C130.784 150.154 131.59 149.946 132.318 149.53C133.064 149.097 133.653 148.481 134.086 147.684C134.52 146.869 134.736 145.916 134.736 144.824ZM153.269 144.33C153.269 144.781 153.243 145.257 153.191 145.76H141.803C141.889 147.164 142.366 148.265 143.233 149.062C144.117 149.842 145.183 150.232 146.431 150.232C147.453 150.232 148.303 149.998 148.979 149.53C149.672 149.045 150.157 148.403 150.435 147.606H152.983C152.601 148.975 151.839 150.093 150.695 150.96C149.551 151.809 148.129 152.234 146.431 152.234C145.079 152.234 143.865 151.931 142.791 151.324C141.733 150.717 140.901 149.859 140.295 148.75C139.688 147.623 139.385 146.323 139.385 144.85C139.385 143.377 139.679 142.085 140.269 140.976C140.858 139.867 141.681 139.017 142.739 138.428C143.813 137.821 145.044 137.518 146.431 137.518C147.783 137.518 148.979 137.813 150.019 138.402C151.059 138.991 151.856 139.806 152.411 140.846C152.983 141.869 153.269 143.03 153.269 144.33ZM150.825 143.836C150.825 142.935 150.625 142.163 150.227 141.522C149.828 140.863 149.282 140.369 148.589 140.04C147.913 139.693 147.159 139.52 146.327 139.52C145.131 139.52 144.108 139.901 143.259 140.664C142.427 141.427 141.95 142.484 141.829 143.836H150.825ZM155.508 144.824C155.508 143.368 155.802 142.094 156.392 141.002C156.981 139.893 157.787 139.035 158.81 138.428C159.85 137.821 161.011 137.518 162.294 137.518C163.403 137.518 164.434 137.778 165.388 138.298C166.341 138.801 167.069 139.468 167.572 140.3V132.76H169.964V152H167.572V149.322C167.104 150.171 166.41 150.873 165.492 151.428C164.573 151.965 163.498 152.234 162.268 152.234C161.002 152.234 159.85 151.922 158.81 151.298C157.787 150.674 156.981 149.799 156.392 148.672C155.802 147.545 155.508 146.263 155.508 144.824ZM167.572 144.85C167.572 143.775 167.355 142.839 166.922 142.042C166.488 141.245 165.899 140.638 165.154 140.222C164.426 139.789 163.62 139.572 162.736 139.572C161.852 139.572 161.046 139.78 160.318 140.196C159.59 140.612 159.009 141.219 158.576 142.016C158.142 142.813 157.926 143.749 157.926 144.824C157.926 145.916 158.142 146.869 158.576 147.684C159.009 148.481 159.59 149.097 160.318 149.53C161.046 149.946 161.852 150.154 162.736 150.154C163.62 150.154 164.426 149.946 165.154 149.53C165.899 149.097 166.488 148.481 166.922 147.684C167.355 146.869 167.572 145.925 167.572 144.85ZM175.184 135.438C174.733 135.438 174.352 135.282 174.04 134.97C173.728 134.658 173.572 134.277 173.572 133.826C173.572 133.375 173.728 132.994 174.04 132.682C174.352 132.37 174.733 132.214 175.184 132.214C175.617 132.214 175.981 132.37 176.276 132.682C176.588 132.994 176.744 133.375 176.744 133.826C176.744 134.277 176.588 134.658 176.276 134.97C175.981 135.282 175.617 135.438 175.184 135.438ZM176.328 137.752V152H173.962V137.752H176.328ZM179.476 144.824C179.476 143.368 179.771 142.094 180.36 141.002C180.95 139.893 181.756 139.035 182.778 138.428C183.818 137.821 184.98 137.518 186.262 137.518C187.372 137.518 188.403 137.778 189.356 138.298C190.31 138.801 191.038 139.468 191.54 140.3V132.76H193.932V152H191.54V149.322C191.072 150.171 190.379 150.873 189.46 151.428C188.542 151.965 187.467 152.234 186.236 152.234C184.971 152.234 183.818 151.922 182.778 151.298C181.756 150.674 180.95 149.799 180.36 148.672C179.771 147.545 179.476 146.263 179.476 144.824ZM191.54 144.85C191.54 143.775 191.324 142.839 190.89 142.042C190.457 141.245 189.868 140.638 189.122 140.222C188.394 139.789 187.588 139.572 186.704 139.572C185.82 139.572 185.014 139.78 184.286 140.196C183.558 140.612 182.978 141.219 182.544 142.016C182.111 142.813 181.894 143.749 181.894 144.824C181.894 145.916 182.111 146.869 182.544 147.684C182.978 148.481 183.558 149.097 184.286 149.53C185.014 149.946 185.82 150.154 186.704 150.154C187.588 150.154 188.394 149.946 189.122 149.53C189.868 149.097 190.457 148.481 190.89 147.684C191.324 146.869 191.54 145.925 191.54 144.85ZM204.145 152.234C202.81 152.234 201.597 151.931 200.505 151.324C199.43 150.717 198.581 149.859 197.957 148.75C197.35 147.623 197.047 146.323 197.047 144.85C197.047 143.394 197.359 142.111 197.983 141.002C198.624 139.875 199.491 139.017 200.583 138.428C201.675 137.821 202.897 137.518 204.249 137.518C205.601 137.518 206.823 137.821 207.915 138.428C209.007 139.017 209.865 139.867 210.489 140.976C211.13 142.085 211.451 143.377 211.451 144.85C211.451 146.323 211.121 147.623 210.463 148.75C209.821 149.859 208.946 150.717 207.837 151.324C206.727 151.931 205.497 152.234 204.145 152.234ZM204.145 150.154C204.994 150.154 205.791 149.955 206.537 149.556C207.282 149.157 207.88 148.559 208.331 147.762C208.799 146.965 209.033 145.994 209.033 144.85C209.033 143.706 208.807 142.735 208.357 141.938C207.906 141.141 207.317 140.551 206.589 140.17C205.861 139.771 205.072 139.572 204.223 139.572C203.356 139.572 202.559 139.771 201.831 140.17C201.12 140.551 200.548 141.141 200.115 141.938C199.681 142.735 199.465 143.706 199.465 144.85C199.465 146.011 199.673 146.991 200.089 147.788C200.522 148.585 201.094 149.183 201.805 149.582C202.515 149.963 203.295 150.154 204.145 150.154ZM217.63 133.878L217.344 146.878H215.368L215.082 133.878H217.63ZM216.46 152.156C216.009 152.156 215.628 152 215.316 151.688C215.004 151.376 214.848 150.995 214.848 150.544C214.848 150.093 215.004 149.712 215.316 149.4C215.628 149.088 216.009 148.932 216.46 148.932C216.893 148.932 217.257 149.088 217.552 149.4C217.864 149.712 218.02 150.093 218.02 150.544C218.02 150.995 217.864 151.376 217.552 151.688C217.257 152 216.893 152.156 216.46 152.156Z" fill="white"/>
<path d="M107.169 347.237L89.0766 338.442C67.012 327.715 52.7493 304.9 52.7493 280.313V246.997H86.2693V280.313C86.2693 292.115 93.1157 303.06 103.7 308.21L121.792 317.005L107.169 347.237Z" fill="#EBEBEB"/>
<path d="M88.1883 254.003H50.8303C49.8079 254.003 48.9783 253.172 48.9783 252.147V241.856C48.9783 240.832 49.8079 240 50.8303 240H88.1883C89.2106 240 90.0403 240.832 90.0403 241.856V252.147C90.0403 253.172 89.2106 254.003 88.1883 254.003Z" fill="#EBEBEB"/>
<path d="M88.8754 500.462H295.082V374.779H88.8754L88.8754 500.462Z" fill="#F5F5F5"/>
<path d="M272.942 490.948H111.024C110.605 490.948 110.27 490.612 110.27 490.192V416.413C110.27 415.993 110.605 415.657 111.024 415.657H272.942C273.361 415.657 273.696 415.993 273.696 416.413V490.192C273.696 490.612 273.361 490.948 272.942 490.948ZM111.778 489.436H272.196V417.16H111.778V489.436Z" fill="white"/>
<path d="M86.8572 500.465H292.737V483.891H86.8572V500.465Z" fill="#E6E6E6"/>
<path d="M334.317 374.773H295.082V500.457H334.317V374.773Z" fill="#EBEBEB"/>
<path d="M334.317 483.883H292.736V500.457H334.317V483.883Z" fill="#E0E0E0"/>
<path d="M211.601 263.764C148.323 263.764 97.0292 313.468 97.0292 374.773H326.172C326.172 313.468 274.878 263.764 211.601 263.764Z" fill="#F5F5F5"/>
<path d="M300.596 326.757H280.065V334.082H300.596V326.757Z" fill="#EBEBEB"/>
<path d="M290.331 334.082H269.8V341.407H290.331V334.082Z" fill="#EBEBEB"/>
<path d="M161.036 306.597H140.505V313.922H161.036V306.597Z" fill="#EBEBEB"/>
<path d="M252.847 285.596H232.316V292.921H252.847V285.596Z" fill="#EBEBEB"/>
<path d="M150.77 313.922H130.239V321.247H150.77V313.922Z" fill="#EBEBEB"/>
<path d="M123.284 374.773V366.373C123.284 327.95 154.105 296.693 191.983 296.693C229.861 296.693 260.682 327.95 260.682 366.373V374.773H123.284Z" fill="white"/>
<path d="M191.983 313.493C159.812 313.493 133.734 340.928 133.734 374.773H250.224C250.232 340.928 224.154 313.493 191.983 313.493Z" fill="#E0E0E0"/>
<path d="M236.506 266.393C282.236 287.369 300.479 324.934 300.479 374.773H326.172C326.172 321.759 287.808 277.415 236.506 266.393Z" fill="#E6E6E6"/>
<path d="M201.938 305.337H182.028C180.251 305.337 178.751 303.69 178.533 301.489L177.352 289.318C177.1 286.714 178.734 284.429 180.846 284.429H203.12C205.232 284.429 206.866 286.722 206.614 289.318L205.433 301.489C205.215 303.682 203.715 305.337 201.938 305.337Z" fill="white"/>
<path d="M163.248 374.773C155.882 366.566 163.399 344.095 170.463 335.729C167.153 355.553 177.829 361.711 184.6 354.428C191.371 347.145 189.26 332.587 184.6 324.934C202.793 325.867 209.547 339.391 210.771 348.085C212.422 359.846 230.472 352.008 224.305 339.122C233.933 349.203 240.093 361.139 235.282 374.773C203.707 374.773 163.248 374.773 163.248 374.773Z" fill="white"/>
<path d="M282.546 392.842H262.015V400.167H282.546V392.842Z" fill="#EBEBEB"/>
<path d="M240.738 459.128H220.207V466.453H240.738V459.128Z" fill="#EBEBEB"/>
<path d="M272.28 400.167H251.749V407.492H272.28V400.167Z" fill="#EBEBEB"/>
<path d="M127.344 449.637H147.875V442.312H127.344V449.637Z" fill="#EBEBEB"/>
<path d="M147.869 449.637H168.4V442.312H147.869V449.637Z" fill="#EBEBEB"/>
<path d="M137.606 456.966H158.137V449.641H137.606V456.966Z" fill="#EBEBEB"/>
<path d="M5.46937 353.52H3.77661V500.457H5.46937V353.52Z" fill="#F5F5F5"/>
<path d="M19.8578 353.52H18.165V500.457H19.8578V353.52Z" fill="#F5F5F5"/>
<path d="M55.699 359.989H2V365.247H55.699V359.989Z" fill="#F0F0F0"/>
<path d="M76.0624 359.989H55.7074V365.247H76.0624V359.989Z" fill="#E6E6E6"/>
<path d="M55.699 412.549H2V417.807H55.699V412.549Z" fill="#F0F0F0"/>
<path d="M76.0624 412.549H55.7074V417.807H76.0624V412.549Z" fill="#E6E6E6"/>
<path d="M55.699 465.1H2V470.359H55.699V465.1Z" fill="#F0F0F0"/>
<path d="M76.0624 465.1H55.7074V470.359H76.0624V465.1Z" fill="#E6E6E6"/>
<path d="M64.5483 408.206H10.4051C9.21512 408.206 8.24304 409.18 8.24304 410.373C8.24304 411.566 9.21512 412.54 10.4051 412.54H64.5483C65.7382 412.54 66.7103 411.566 66.7103 410.373C66.7187 409.18 65.7382 408.206 64.5483 408.206Z" fill="#EBEBEB"/>
<path d="M59.9812 353.52H58.2885V500.457H59.9812V353.52Z" fill="#F5F5F5"/>
<path d="M74.3696 353.52H72.6769V500.457H74.3696V353.52Z" fill="#F5F5F5"/>
<path d="M171.837 538.4C261.573 538.4 334.317 534.143 334.317 528.891C334.317 523.64 261.573 519.382 171.837 519.382C82.1024 519.382 9.35767 523.64 9.35767 528.891C9.35767 534.143 82.1024 538.4 171.837 538.4Z" fill="#F5F5F5"/>
<path d="M308.716 395.967H34.9668V402.317H308.716V395.967Z" fill="#263238"/>
<path d="M57.1738 526.17H53.2604L61.6404 400.822H67.2298L57.1738 526.17Z" fill="#263238"/>
<path d="M286.501 526.17H290.414L282.034 400.822H276.445L286.501 526.17Z" fill="#263238"/>
<path d="M196.273 389.876C197.84 390.095 199.667 390.036 201.184 390.002C201.863 389.986 202.416 390.532 202.416 391.212C202.416 391.892 201.863 392.438 201.184 392.422C199.667 392.388 197.84 392.329 196.273 392.548C194.245 392.825 192.402 392.338 192.402 391.212C192.402 390.086 194.254 389.591 196.273 389.876Z" fill="#D77207"/>
<path d="M242.782 386.441H201.863C199.248 386.441 197.111 388.583 197.111 391.204C197.111 393.824 199.248 395.967 201.863 395.967H242.782C245.397 395.967 247.534 393.824 247.534 391.204C247.534 388.583 245.397 386.441 242.782 386.441Z" fill="#F77F00"/>
<path opacity="0.2" d="M242.791 386.441C240.176 386.441 238.039 388.583 238.039 391.204C238.039 393.824 240.176 395.967 242.791 395.967C245.405 395.967 247.542 393.824 247.542 391.204C247.542 388.583 245.397 386.441 242.791 386.441Z" fill="black"/>
<path d="M248.933 389.876C247.366 390.095 245.539 390.036 244.023 390.002C243.344 389.986 242.791 390.532 242.791 391.212C242.791 391.892 243.344 392.438 244.023 392.422C245.539 392.388 247.366 392.329 248.933 392.548C250.961 392.825 252.805 392.338 252.805 391.212C252.805 390.086 250.961 389.591 248.933 389.876Z" fill="#D77207"/>
<path d="M83.311 392.758C83.311 392.758 86.7552 390.918 81.702 386.676C76.6489 382.434 79.1964 371.799 79.1964 371.799C79.1964 371.799 80.9646 372.211 80.9646 370.464C80.9646 368.716 78.9869 367.977 78.9869 367.977C78.9869 367.977 82.2048 368.481 82.2048 362.819C82.2048 357.914 80.4785 356.99 77.6042 356.83C77.931 356.477 78.1405 356.007 78.1405 355.494C78.1405 354.411 77.2606 353.529 76.1796 353.529C75.0986 353.529 74.2187 354.411 74.2187 355.494C74.2187 356.015 74.4282 356.486 74.755 356.83C71.8807 356.99 70.1544 357.922 70.1544 362.819C70.1544 368.489 73.3723 367.977 73.3723 367.977C73.3723 367.977 71.3946 368.716 71.3946 370.464C71.3946 372.211 73.1628 371.799 73.1628 371.799C73.1628 371.799 75.7103 382.442 70.6572 386.676C65.604 390.918 69.0482 392.758 69.0482 392.758C69.0482 392.758 66.5175 393.808 67.3974 396.025H84.9535C85.8417 393.808 83.311 392.758 83.311 392.758Z" fill="#263238"/>
<path d="M68.3862 392.64C68.3862 392.64 71.9561 390.733 66.7186 386.34C61.4811 381.947 64.1208 370.926 64.1208 370.926C64.1208 370.926 65.956 371.354 65.956 369.539C65.956 367.725 63.9113 366.961 63.9113 366.961C63.9113 366.961 67.2465 367.481 67.2465 361.618C67.2465 356.536 65.4616 355.578 62.4867 355.41C62.8303 355.049 63.0398 354.562 63.0398 354.024C63.0398 352.899 62.1347 351.991 61.0118 351.991C59.8889 351.991 58.9839 352.899 58.9839 354.024C58.9839 354.562 59.1934 355.049 59.5369 355.41C56.562 355.578 54.7687 356.536 54.7687 361.618C54.7687 367.49 58.104 366.961 58.104 366.961C58.104 366.961 56.0592 367.725 56.0592 369.539C56.0592 371.354 57.8945 370.926 57.8945 370.926C57.8945 370.926 60.5342 381.955 55.2967 386.34C50.0592 390.733 53.629 392.64 53.629 392.64C53.629 392.64 51.0145 393.724 51.9111 396.025H70.1041C71.0092 393.732 68.3862 392.64 68.3862 392.64Z" fill="#D77207"/>
<path d="M177.804 293.728L162.552 300.129C162.552 300.129 157.642 310.31 170.312 309.579C182.983 308.865 177.804 293.728 177.804 293.728Z" fill="#263238"/>
<path d="M201.821 271.828C203.899 269.837 205.206 267.2 205.282 264.268C205.441 257.884 199.734 252.567 192.536 252.39C191.279 252.357 190.064 252.491 188.907 252.76C189.125 250.282 188.505 247.879 186.972 246.04C183.645 242.05 177.284 242.251 172.776 246.493C169.424 249.643 168.041 254.146 168.913 257.884C163.424 262.765 159.142 270.972 159.142 270.972L179.161 296.592C179.161 296.592 184.759 294.458 190.977 287.545C191.421 287.789 191.874 288.024 192.36 288.217C197.975 290.502 203.991 288.318 205.81 283.337C207.285 279.296 205.533 274.651 201.821 271.828Z" fill="url(#paint1_linear_938_857)"/>
<path d="M103.515 504.287L116.973 508.571L110.965 524.204L99.7107 520.642L103.515 504.287Z" fill="#FFC3BD"/>
<path opacity="0.2" d="M103.515 504.296L116.982 508.58L113.613 517.333L101.387 513.452L103.515 504.296Z" fill="black"/>
<path d="M134.68 458.204C142.046 437.573 154.801 413.33 147.594 392.178L108.342 388.507C108.342 388.507 105.66 430.533 105.359 450.375C105.049 471.006 100.775 509.453 100.775 509.453L116.219 514.25C116.228 514.25 135.284 481.472 134.68 458.204Z" fill="#383B56"/>
<path opacity="0.4" d="M134.68 458.204C142.046 437.573 154.801 413.33 147.594 392.178L108.342 388.507C108.342 388.507 105.66 430.533 105.359 450.375C105.049 471.006 100.775 509.453 100.775 509.453L116.219 514.25C116.228 514.25 135.284 481.472 134.68 458.204Z" fill="white"/>
<path d="M117.3 515.182L99.6101 509.739L101.06 501.532L121.055 508.714L117.3 515.182Z" fill="#263238"/>
<path opacity="0.2" d="M137.128 451.677C141.15 441.21 145.86 430.046 148.214 418.958C144.829 415.379 135.142 429.282 137.128 451.677Z" fill="black"/>
<path d="M112.993 522.146C113.119 521.777 112.809 521.373 112.432 521.399C108.459 521.651 102.485 518.685 100.255 517.484C99.7108 517.19 99.1074 517.156 98.5543 517.316C95.1604 518.282 88.5821 517.492 88.5821 517.492C88.5821 517.492 86.705 519.433 86.4536 521.289L111.493 528.975C111.493 528.975 111.987 525.204 112.993 522.146Z" fill="#263238"/>
<path d="M165.779 507.723L179.924 507.857L181.608 524.565L169.793 524.473L165.779 507.723Z" fill="#FFC3BD"/>
<path d="M182.388 522.003C182.363 521.617 181.919 521.314 181.575 521.449C177.98 522.86 171.301 521.776 168.779 521.289C168.159 521.172 167.589 521.314 167.136 521.625C164.346 523.549 159.024 524.725 159.024 524.725C159.024 524.725 158.019 527.136 158.496 528.984L183.603 528.975C183.595 528.975 182.622 525.229 182.388 522.003Z" fill="#263238"/>
<path opacity="0.2" d="M165.779 507.731L179.932 507.866L180.871 517.224L168.024 517.106L165.779 507.731Z" fill="black"/>
<path d="M182.128 454.39C183.821 433.129 186.318 405.358 179.388 394.891L133.18 390.742C133.18 390.742 146.262 433.776 150.326 453.894C154.549 474.811 166.223 513.46 166.223 513.46L181.508 513.502C181.508 513.511 187.257 479.288 182.128 454.39Z" fill="#44486A"/>
<path opacity="0.4" d="M182.128 454.39C183.821 433.129 186.318 405.358 179.388 394.891L133.18 390.742C133.18 390.742 146.262 433.776 150.326 453.894C154.549 474.811 166.223 513.46 166.223 513.46L181.508 513.502C181.508 513.511 187.257 479.288 182.128 454.39Z" fill="white"/>
<path d="M183.209 514.082H164.823L162.72 506.413L182.983 506.74L183.209 514.082Z" fill="#263238"/>
<path d="M144.753 326.312C142.776 326.648 140.991 326.917 139.105 327.152C137.245 327.404 135.384 327.589 133.524 327.782C129.795 328.127 126.041 328.412 122.245 328.513C120.342 328.572 118.432 328.605 116.504 328.605C114.569 328.58 112.624 328.521 110.647 328.412C108.661 328.286 106.649 328.152 104.563 327.858C102.476 327.572 100.331 327.203 97.9593 326.539L97.1884 326.329C96.0571 326.018 95.0431 325.422 94.247 324.674C91.8671 322.448 90.0486 320.239 88.2469 318.029C86.4536 315.829 84.853 313.561 83.2776 311.301L80.9982 307.857C80.2608 306.698 79.5485 305.522 78.8446 304.354C77.4451 301.985 76.1127 299.633 74.8892 297.096C73.6657 294.559 74.7216 291.502 77.2524 290.275C79.0792 289.393 81.1658 289.696 82.6575 290.88L82.7496 290.956C84.7944 292.602 86.8056 294.375 88.7832 296.097L94.6576 301.288L97.5403 303.85L100.406 306.328C102.283 307.932 104.211 309.495 105.887 310.688L102.174 308.823C103.323 308.999 104.772 309.117 106.281 309.15C107.797 309.184 109.398 309.209 111.032 309.167C112.666 309.125 114.342 309.041 116.018 308.932C117.703 308.84 119.404 308.714 121.113 308.571C124.532 308.26 127.993 307.941 131.454 307.546L141.762 306.37L141.946 306.353C147.468 305.723 152.446 309.696 153.075 315.232C153.678 320.566 149.974 325.413 144.753 326.312Z" fill="#FFC3BD"/>
<path d="M83.8725 293.526L79.7495 297.827C74.1014 300.515 71.9142 292.627 71.9142 292.627L69.3332 289.267C68.4616 288.125 68.6544 286.403 69.7941 285.202L72.66 282.177C73.9673 280.8 76.0204 280.59 77.2271 281.715L79.9255 284.244C80.7132 284.983 81.2998 285.899 81.6434 286.915L83.8725 293.526Z" fill="#FFC3BD"/>
<path d="M146.463 305.471C136.951 304.455 109.121 307.546 109.121 307.546C104.093 313.183 102.526 323.565 106.373 329.025C106.373 329.025 128.655 332.839 137.437 330.109C148.063 326.816 165.712 307.538 146.463 305.471Z" fill="#003760"/>
<path d="M111.703 307.336C111.87 306.857 111.552 306.336 111.032 306.227C107.764 305.564 106.13 305.79 105.007 307.025C103.783 308.378 98.7052 322.868 102.451 328.756C102.493 328.824 102.543 328.882 102.602 328.941C103.75 330.05 106.608 330.319 108.007 330.991C108.594 331.268 109.256 330.857 109.247 330.227C109.172 326.27 109.189 314.518 111.703 307.336Z" fill="url(#paint2_linear_938_857)"/>
<path d="M146.463 305.471C158.086 306.924 173.203 310.595 184.583 314.989C191.681 317.727 195.804 323.515 191.422 338.375C182.539 368.515 186.771 385.912 181.793 396.79C181.793 396.79 115.918 405.123 106.096 390.397C105.476 352.428 125.546 321.709 134.496 310.394C137.362 306.782 141.896 304.9 146.463 305.471Z" fill="#003760"/>
<path opacity="0.2" d="M158.714 357.04C177 352.563 185.933 338.282 185.933 338.282L156.075 341.374L158.714 357.04Z" fill="black"/>
<path d="M179.773 313.25C175.122 314.93 159.452 361.148 166.801 381.216C174.159 401.284 183.393 391.834 183.393 391.834C183.393 391.834 182.983 397.915 181.533 399.503C177.62 399.226 168.603 442.722 168.896 476.323C153.267 481.64 140.546 476.886 140.546 476.886L140.077 479.969C140.077 479.969 130.49 484.354 111.074 477.029C110.982 475.911 111.074 473.761 111.074 473.761C111.074 473.761 110.655 476.046 94.3643 468.393C94.5486 459.901 96.5095 404.736 104.789 392.791C103.205 387.281 100.968 373.748 105.443 361.526C109.909 349.295 128.898 309.68 150.418 306.034C151.91 305.782 152.764 306.42 152.764 306.42C152.764 306.42 132.309 311.687 124.624 334.645C137.991 342.062 162.996 341.508 162.996 341.508C162.996 341.508 169.147 321.465 177.787 312.595C179.002 312.242 179.773 313.25 179.773 313.25Z" fill="#263238"/>
<path d="M154.139 399.125C134.144 399.125 115.39 396.042 105.979 393.741C105.753 393.682 105.619 393.455 105.669 393.237C105.728 393.01 105.954 392.875 106.172 392.926C119.722 396.244 152.748 401.183 180.779 396.118C180.997 396.076 181.223 396.227 181.265 396.454C181.307 396.681 181.156 396.899 180.93 396.941C172.24 398.512 163.072 399.125 154.139 399.125Z" fill="white"/>
<path d="M104.412 434.028C104.286 434.028 104.169 434.02 104.043 433.994C103.071 433.801 102.292 432.869 101.747 431.214C99.1744 423.469 101.781 401.62 108.87 393.766C108.987 393.64 109.163 393.598 109.323 393.648C109.482 393.707 109.591 393.858 109.599 394.026C109.658 395.404 111.015 427.845 107.345 432.171C106.297 433.406 105.309 434.028 104.412 434.028ZM108.811 395.152C102.526 403.325 100.172 423.805 102.543 430.945C102.853 431.869 103.39 433.003 104.211 433.163C104.864 433.289 105.744 432.759 106.708 431.625C109.398 428.467 109.272 406.996 108.811 395.152Z" fill="white"/>
<path d="M108.359 428.82C107.655 428.82 107.102 428.492 106.7 428.106C102.359 423.948 103.909 399.57 108.887 393.791C108.979 393.682 109.13 393.631 109.272 393.665C109.415 393.699 109.524 393.816 109.557 393.959C109.834 395.127 116.194 422.612 111.124 427.409C110.027 428.45 109.105 428.82 108.359 428.82ZM108.987 394.959C104.697 401.435 103.331 423.796 107.236 427.543C107.554 427.854 108.535 428.786 110.588 426.837C114.879 422.78 110.018 399.637 108.987 394.959Z" fill="white"/>
<path d="M150.259 308.739C152.094 307.706 153.385 308.949 154.667 306.992C155.396 305.53 155.605 303.858 155.203 301.842L174.98 297.189C172.918 303.464 171.31 308.411 173.438 311.704C172.977 316.669 163.365 321.507 151.742 317.778C143.454 315.131 147.619 310.226 150.259 308.739Z" fill="#FFC3BD"/>
<path opacity="0.2" d="M155.312 302.456L169.86 302.733C164.957 307.227 157.952 308.512 154.977 306.303C155.387 305.16 155.522 303.9 155.312 302.456Z" fill="black"/>
<path d="M158.647 270.216C152.982 271.635 149.262 277.776 152.262 283.387C155.262 288.998 160.902 287.369 165.418 283.874L167.178 275.054C167.17 275.054 164.312 268.788 158.647 270.216Z" fill="#263238"/>
<path d="M152.79 281.127C150.385 282.849 149.756 286.445 152.211 288.536C154.667 290.628 157.03 288.805 158.513 286.319L157.709 281.833C157.717 281.825 155.203 279.397 152.79 281.127Z" fill="#263238"/>
<path d="M179.497 287.629C176.547 296.449 174.351 302.372 168.15 304.766C155.823 309.52 150.938 302.96 151.206 293.417C151.44 284.824 156.225 271.845 165.938 270.711C175.499 269.594 182.455 278.817 179.497 287.629Z" fill="#FFC3BD"/>
<path d="M178.818 292.594C173.999 290.62 173.857 283.614 175.189 280.884C169.809 280.254 165.343 277.801 165.133 275.356C159.829 277.457 153.963 277.457 152.63 271.224C151.306 264.991 153.678 259.497 159.452 260.345C165.226 261.194 169.265 267.376 169.265 267.376C169.265 267.376 174.561 261.849 180.192 266.956C184.759 271.106 183.636 276.549 183.636 276.549C183.636 276.549 188.949 277.499 189.435 283.899C189.921 290.3 184.759 291.569 184.759 291.569C184.759 291.569 188.002 299.961 180.192 303.64C171.527 307.731 173.723 297.407 173.723 297.407L178.818 292.594Z" fill="#263238"/>
<path d="M174.117 286.596C171.712 288.318 171.083 291.913 173.539 294.005C175.994 296.097 178.357 294.274 179.84 291.787L179.036 287.302C179.036 287.293 176.522 284.874 174.117 286.596Z" fill="#263238"/>
<path d="M185.941 296.718C183.083 296.718 181.977 294.517 181.902 292.602C181.851 291.275 182.304 289.83 183.251 289.788C185.346 289.679 187.173 291.082 188.086 292.518C188.79 293.627 188.949 294.727 188.522 295.534C188.245 296.055 187.608 296.676 186.1 296.718C186.05 296.718 185.991 296.718 185.941 296.718ZM183.301 290.62C183.108 290.628 182.698 291.376 182.74 292.56C182.807 294.173 183.678 295.87 185.949 295.87C185.991 295.87 186.041 295.87 186.083 295.87C186.695 295.853 187.483 295.71 187.793 295.13C188.069 294.61 187.919 293.795 187.391 292.955C186.603 291.737 185.036 290.544 183.301 290.62Z" fill="#263238"/>
<path d="M157.801 278.49C157.147 278.49 156.536 278.406 155.949 278.246C154.072 277.717 152.622 276.365 151.642 274.214C149.949 270.501 149.79 266.839 151.223 264.411C152.237 262.689 153.996 261.681 156.293 261.513C156.519 261.496 156.728 261.673 156.745 261.899C156.762 262.135 156.586 262.336 156.36 262.353C154.348 262.504 152.823 263.361 151.952 264.839C150.661 267.032 150.829 270.4 152.413 273.861C153.284 275.768 154.55 276.969 156.184 277.431C158.522 278.087 161.614 277.221 164.89 274.995C165.083 274.869 165.343 274.911 165.469 275.104C165.603 275.298 165.544 275.558 165.36 275.684C162.661 277.532 160.047 278.49 157.801 278.49Z" fill="#263238"/>
<path opacity="0.2" d="M167.899 286.369C167.899 286.369 169.734 285.764 171.083 286.63C169.332 286.831 167.899 286.369 167.899 286.369Z" fill="black"/>
<path opacity="0.2" d="M167.89 287.134C167.89 287.134 169.642 286.94 170.631 288.091C169.038 287.898 167.89 287.134 167.89 287.134Z" fill="black"/>
<path d="M180.544 297.928C178.885 299.793 176.513 300.708 174.46 300.776C171.368 300.885 171.519 298.415 172.969 295.87C174.268 293.577 176.446 290.267 179.27 291.367C182.044 292.468 182.447 295.803 180.544 297.928Z" fill="#FFC3BD"/>
<path d="M163.86 285.689C163.667 286.42 163.122 286.907 162.645 286.772C162.167 286.638 161.941 285.941 162.133 285.21C162.326 284.479 162.871 283.992 163.348 284.126C163.826 284.261 164.052 284.958 163.86 285.689Z" fill="#263238"/>
<path d="M155.89 283.488C155.697 284.219 155.153 284.706 154.675 284.571C154.197 284.437 153.971 283.74 154.164 283.009C154.357 282.278 154.901 281.791 155.379 281.925C155.865 282.051 156.091 282.757 155.89 283.488Z" fill="#263238"/>
<path d="M159.678 284.294L158.262 290.662C158.262 290.662 156.209 291.619 154.055 289.721C155.764 286.352 159.678 284.294 159.678 284.294Z" fill="#ED847E"/>
<path d="M167.396 284.126C167.472 284.135 167.547 284.135 167.622 284.101C167.849 284.017 167.966 283.757 167.882 283.53C167.011 281.22 165.016 280.741 164.932 280.724C164.689 280.674 164.455 280.817 164.404 281.06C164.354 281.295 164.505 281.539 164.74 281.589C164.807 281.606 166.357 281.993 167.053 283.832C167.103 283.992 167.237 284.101 167.396 284.126Z" fill="#263238"/>
<path d="M153.385 280.153C153.51 280.212 153.67 280.212 153.804 280.136C155.471 279.128 156.921 279.809 156.98 279.842C157.198 279.951 157.466 279.859 157.566 279.632C157.675 279.414 157.583 279.145 157.365 279.036C157.281 279.002 155.438 278.112 153.343 279.363C153.133 279.489 153.066 279.767 153.192 279.977C153.242 280.052 153.309 280.111 153.385 280.153Z" fill="#263238"/>
<path d="M176.597 340.315C176.036 340.517 175.675 340.643 175.223 340.786L173.957 341.189C173.119 341.449 172.281 341.684 171.443 341.92C169.776 342.399 168.083 342.793 166.399 343.18C164.706 343.575 162.996 343.885 161.279 344.188C159.561 344.49 157.826 344.751 156.066 344.944C154.306 345.145 152.538 345.313 150.736 345.423C148.935 345.507 147.116 345.565 145.264 345.532C141.56 345.49 137.731 345.12 133.733 344.188L132.971 344.011C132.56 343.919 132.15 343.768 131.789 343.591C129.753 342.583 128.035 341.315 126.652 339.962C125.261 338.61 124.122 337.199 123.225 335.788C121.381 332.973 120.267 330.168 119.37 327.446C118.951 326.077 118.608 324.716 118.306 323.372C118.013 322.02 117.811 320.676 117.619 319.34C117.443 318.004 117.334 316.669 117.258 315.333C117.233 314.661 117.216 313.997 117.2 313.325C117.2 312.637 117.208 312.015 117.233 311.217C117.317 308.436 119.638 306.244 122.412 306.328C124.247 306.387 125.814 307.412 126.652 308.907L127.08 309.68C127.298 310.075 127.541 310.654 127.784 311.15L128.513 312.687C128.99 313.712 129.502 314.72 130.004 315.711C131.018 317.685 132.074 319.575 133.189 321.272C133.75 322.112 134.303 322.918 134.873 323.632C135.451 324.346 136.038 324.968 136.583 325.489C137.697 326.547 138.694 326.959 139.038 326.909L137.102 326.312C139.44 326.547 142.072 326.497 144.795 326.304C146.161 326.203 147.552 326.035 148.952 325.842C150.359 325.665 151.784 325.438 153.209 325.186C156.066 324.657 158.957 324.069 161.84 323.364C163.29 323.028 164.723 322.641 166.156 322.28L170.27 321.171L170.631 321.079C175.994 319.634 181.508 322.809 182.958 328.185C184.332 333.301 181.491 338.568 176.597 340.315Z" fill="#FFC3BD"/>
<path d="M188.346 340.24C176.849 353.73 145.851 348.421 145.851 348.421C140.312 345.011 140.018 331.923 142.189 325.195C142.189 325.195 167.656 315.199 178.441 314.569C188.43 313.981 194.933 332.511 188.346 340.24Z" fill="#003760"/>
<path d="M126.921 312.166L121.289 314.09C115.038 313.871 116.705 305.866 116.705 305.866L115.96 301.691C115.708 300.28 116.664 298.835 118.231 298.289L122.161 296.92C123.954 296.29 125.873 297.054 126.426 298.608L127.666 302.094C128.027 303.111 128.136 304.194 127.968 305.261L126.921 312.166Z" fill="#FFC3BD"/>
<path d="M157.441 292.207C156.209 291.947 156.234 293.955 157.172 294.433C157.893 294.795 163.147 296.088 166.223 298.953C164.74 296.475 160.508 292.854 157.441 292.207Z" fill="#263238"/>
<path d="M155.723 292.3C155.622 292.627 155.555 292.988 155.521 293.308C155.488 293.635 155.119 293.854 154.725 293.786C152.731 293.417 149.781 293.618 147.988 294.517C150.033 292.862 152.614 291.846 154.91 291.628C155.412 291.586 155.84 291.896 155.723 292.3Z" fill="#263238"/>
<path d="M154.96 296.995C154.03 297.172 152.555 297.289 151.332 296.659C149.262 298.583 152.731 301.473 151.365 304.228C155.589 304.799 157.784 304.598 159.703 303.321C161.957 301.826 161.455 299.196 161.455 299.196C161.455 299.196 158.463 298.911 156.603 297.457C156.133 297.088 155.555 296.886 154.96 296.995Z" fill="#263238"/>
<path d="M154.776 295.366C154.415 295.265 154.047 295.122 153.661 294.929C153.561 294.879 153.519 294.753 153.569 294.652C153.619 294.551 153.745 294.509 153.845 294.559C156.636 295.937 158.907 294.618 158.932 294.601C159.033 294.543 159.158 294.576 159.217 294.677C159.276 294.778 159.242 294.904 159.142 294.963C159.049 295.013 157.231 296.071 154.776 295.366Z" fill="#263238"/>
<path d="M45.0027 246.289C44.7591 227.527 61.2334 263.822 82.5004 275.375C99.775 284.766 120.372 271.388 137.038 270.168C157.966 268.631 127.948 286.818 96.8437 282.267C67.6962 277.993 45.2027 261.511 45.0027 246.289Z" fill="#F77F00"/>
<path d="M145.13 324.624C145.172 324.103 144.72 323.666 144.2 323.7C140.873 323.91 139.356 324.573 138.586 326.102C137.756 327.774 136.985 342.449 142.13 347.296C142.189 347.355 142.256 347.397 142.323 347.439C143.714 348.237 146.144 348.799 147.678 349.093C148.315 349.219 148.851 348.623 148.675 348.001C147.586 344.087 144.56 332.419 145.13 324.624Z" fill="url(#paint3_linear_938_857)"/>
<path d="M134.744 388.205C142.533 388.205 148.847 381.891 148.847 374.103C148.847 366.314 142.533 360 134.744 360C126.956 360 120.642 366.314 120.642 374.103C120.642 381.891 126.956 388.205 134.744 388.205Z" fill="#F07F12"/>
<path d="M133.257 382.853C133.145 383.142 133.345 383.253 133.501 383.941C133.967 385.873 133.079 387.961 132.724 388.339C132.724 388.339 132.701 388.361 132.701 388.383C132.746 388.627 135.544 388.472 136.654 388.405C136.765 388.405 136.832 388.383 136.965 388.383C137.032 388.383 137.054 388.383 137.076 388.383C137.165 388.294 136.788 387.761 136.699 387.628C136.232 386.939 136.232 386.14 136.21 384.941C136.21 384.941 136.188 383.852 136.432 382.786C136.455 382.675 136.477 382.586 136.477 382.586C136.543 382.342 136.566 382.32 136.543 382.298C136.499 382.009 133.656 381.831 133.257 382.853Z" fill="#15385C"/>
<path d="M138.009 389.271C137.987 389.271 137.965 389.271 137.942 389.271C137.52 389.227 137.21 388.849 137.254 388.427C137.454 386.273 138.098 384.985 139.231 384.452C139.963 384.097 140.63 384.208 141.296 384.319C141.873 384.408 142.451 384.519 143.25 384.363C144.072 384.186 144.627 383.83 145.271 383.408C148.092 381.543 149.202 378.345 149.335 377.989C150.179 375.48 150.024 372.792 148.869 369.994C147.736 367.24 145.937 365.797 144.05 364.286C143.428 363.798 142.673 363.287 141.784 363.309C141.585 363.309 141.14 363.331 140.785 363.62C140.652 363.731 140.23 364.109 140.297 364.508C140.319 364.73 140.474 364.975 140.674 365.13C140.785 365.219 140.985 365.33 141.207 365.308C141.518 365.264 141.807 364.975 141.918 364.597C142.029 364.175 142.451 363.931 142.85 364.02C143.272 364.131 143.517 364.553 143.428 364.953C143.184 365.952 142.362 366.707 141.407 366.818C140.807 366.885 140.208 366.729 139.719 366.33C139.186 365.93 138.831 365.308 138.764 364.664C138.653 363.842 139.053 362.998 139.83 362.376C140.607 361.755 141.474 361.71 141.762 361.71C143.161 361.666 144.25 362.376 145.049 363.02C147.026 364.597 149.069 366.241 150.335 369.35C151.623 372.504 151.8 375.546 150.845 378.433C150.623 379.1 149.358 382.542 146.137 384.652C145.471 385.096 144.716 385.585 143.583 385.807C142.517 386.029 141.696 385.896 141.052 385.785C140.496 385.696 140.208 385.651 139.919 385.785C139.364 386.051 138.964 387.028 138.831 388.516C138.764 388.96 138.409 389.271 138.009 389.271Z" fill="#15385C"/>
<path d="M134.878 388.938C127.038 388.938 120.642 382.564 120.642 374.702C120.642 366.863 127.016 360.466 134.878 360.466C142.717 360.466 149.113 366.84 149.113 374.702C149.113 382.564 142.739 388.938 134.878 388.938ZM134.878 360.644C127.127 360.644 120.82 366.951 120.82 374.702C120.82 382.453 127.127 388.761 134.878 388.761C142.628 388.761 148.936 382.453 148.936 374.702C148.936 366.951 142.651 360.644 134.878 360.644Z" fill="white"/>
<path d="M134.7 384.274C141.164 384.274 146.404 380.645 146.404 376.168C146.404 371.691 141.164 368.062 134.7 368.062C128.236 368.062 122.996 371.691 122.996 376.168C122.996 380.645 128.236 384.274 134.7 384.274Z" fill="#15385C"/>
<path d="M121.153 379.055C123.447 379.055 125.306 377.454 125.306 375.48C125.306 373.505 123.447 371.904 121.153 371.904C118.859 371.904 117 373.505 117 375.48C117 377.454 118.859 379.055 121.153 379.055Z" fill="#15385C"/>
<path d="M148.292 379.033C150.585 379.033 152.444 377.432 152.444 375.457C152.444 373.483 150.585 371.882 148.292 371.882C145.998 371.882 144.139 373.483 144.139 375.457C144.139 377.432 145.998 379.033 148.292 379.033Z" fill="#15385C"/>
<path d="M134.367 368.684C134.278 368.506 134.056 367.995 134.189 367.329C134.211 367.173 134.389 366.441 135.078 365.996C135.166 365.952 136.121 365.352 136.854 365.841C137.165 366.063 137.498 366.507 137.409 366.974C137.343 367.351 137.032 367.573 136.899 367.684C136.854 367.729 136.699 367.84 136.654 367.795C136.588 367.729 136.899 367.396 136.81 367.062C136.743 366.84 136.477 366.663 136.255 366.663C135.833 366.663 135.588 367.218 135.522 367.507C135.344 368.173 135.766 368.773 135.833 368.884" fill="#15385C"/>
<path d="M123.241 375.302C123.241 375.146 122.907 374.991 122.641 374.947C122.241 374.902 121.73 375.102 121.486 375.524C121.22 375.968 121.197 376.657 121.642 377.034C122.152 377.478 122.93 377.145 122.974 377.101C122.974 377.101 123.018 377.034 123.063 377.034C123.063 377.034 123.063 377.034 123.085 377.034C123.129 377.012 123.041 376.768 123.018 376.657C122.952 376.368 122.885 375.746 123.174 375.435C123.218 375.369 123.241 375.346 123.241 375.302Z" fill="white"/>
<path d="M146.359 375.391C146.359 375.235 146.692 375.08 146.959 375.035C147.359 374.991 147.87 375.191 148.114 375.613C148.38 376.057 148.403 376.746 147.958 377.123C147.448 377.567 146.67 377.234 146.626 377.19C146.626 377.19 146.581 377.123 146.537 377.123C146.537 377.123 146.537 377.123 146.515 377.123C146.47 377.101 146.559 376.857 146.581 376.746C146.648 376.457 146.715 375.835 146.426 375.524C146.404 375.48 146.359 375.457 146.359 375.391Z" fill="white"/>
<path d="M142.984 375.857C143.006 373.57 140.985 371.726 138.475 371.704C136.943 371.704 135.588 372.37 134.767 373.436C133.945 372.415 132.635 371.726 131.124 371.726C128.615 371.704 126.594 373.547 126.572 375.835C126.572 377.878 128.193 379.588 130.347 379.921C130.347 381.676 132.346 383.075 134.811 383.097C137.276 383.119 139.297 381.698 139.297 379.944C139.297 379.921 139.297 379.899 139.297 379.877C141.385 379.544 142.984 377.878 142.984 375.857Z" fill="white"/>
<path d="M132.124 378.678C132.504 378.678 132.812 377.962 132.812 377.079C132.812 376.196 132.504 375.48 132.124 375.48C131.744 375.48 131.435 376.196 131.435 377.079C131.435 377.962 131.744 378.678 132.124 378.678Z" fill="#15385C"/>
<path d="M137.565 378.678C137.945 378.678 138.253 377.962 138.253 377.079C138.253 376.196 137.945 375.48 137.565 375.48C137.185 375.48 136.876 376.196 136.876 377.079C136.876 377.962 137.185 378.678 137.565 378.678Z" fill="#15385C"/>
<path opacity="0.82" d="M130.325 380.921C130.963 380.921 131.48 380.493 131.48 379.966C131.48 379.438 130.963 379.011 130.325 379.011C129.687 379.011 129.17 379.438 129.17 379.966C129.17 380.493 129.687 380.921 130.325 380.921Z" fill="#F07F12"/>
<path opacity="0.82" d="M139.297 380.854C139.935 380.854 140.452 380.427 140.452 379.899C140.452 379.372 139.935 378.944 139.297 378.944C138.659 378.944 138.142 379.372 138.142 379.899C138.142 380.427 138.659 380.854 139.297 380.854Z" fill="#F07F12"/>
<path d="M135.411 378.922C135.388 378.922 135.366 378.922 135.344 378.9C135.3 378.855 135.3 378.789 135.322 378.744C135.411 378.633 135.411 378.5 135.322 378.411C135.233 378.3 135.078 378.3 135.011 378.345C134.922 378.389 134.9 378.544 134.878 378.633C134.855 378.722 134.833 378.855 134.722 378.855C134.611 378.855 134.589 378.744 134.567 378.655C134.545 378.567 134.5 378.433 134.434 378.389C134.367 378.367 134.3 378.367 134.234 378.389C134.167 378.433 134.123 378.589 134.189 378.722C134.211 378.789 134.189 378.833 134.123 378.878C134.056 378.9 134.012 378.878 133.967 378.811C133.856 378.567 133.923 378.322 134.1 378.189C134.234 378.1 134.389 378.1 134.522 378.167C134.611 378.211 134.656 378.278 134.7 378.367C134.722 378.278 134.789 378.189 134.878 378.122C135.033 378.011 135.3 378.034 135.477 378.211C135.633 378.389 135.633 378.655 135.477 378.833C135.477 378.922 135.455 378.922 135.411 378.922Z" fill="#15385C"/>
<defs>
<filter id="filter0_i_938_857" x="0" y="595" width="331" height="26" filterUnits="userSpaceOnUse" color-interpolation-filters="sRGB">
<feFlood flood-opacity="0" result="BackgroundImageFix"/>
<feBlend mode="normal" in="SourceGraphic" in2="BackgroundImageFix" result="shape"/>
<feColorMatrix in="SourceAlpha" type="matrix" values="0 0 0 0 0 0 0 0 0 0 0 0 0 0 0 0 0 0 127 0" result="hardAlpha"/>
<feOffset dy="4"/>
<feGaussianBlur stdDeviation="2"/>
<feComposite in2="hardAlpha" operator="arithmetic" k2="-1" k3="1"/>
<feColorMatrix type="matrix" values="0 0 0 0 0 0 0 0 0 0 0 0 0 0 0 0 0 0 0.25 0"/>
<feBlend mode="normal" in2="shape" result="effect1_innerShadow_938_857"/>
</filter>
<filter id="filter1_d_938_857" x="41" y="0" width="260" height="235" filterUnits="userSpaceOnUse" color-interpolation-filters="sRGB">
<feFlood flood-opacity="0" result="BackgroundImageFix"/>
<feColorMatrix in="SourceAlpha" type="matrix" values="0 0 0 0 0 0 0 0 0 0 0 0 0 0 0 0 0 0 127 0" result="hardAlpha"/>
<feOffset dy="4"/>
<feGaussianBlur stdDeviation="2"/>
<feComposite in2="hardAlpha" operator="out"/>
<feColorMatrix type="matrix" values="0 0 0 0 0 0 0 0 0 0 0 0 0 0 0 0 0 0 0.25 0"/>
<feBlend mode="normal" in2="BackgroundImageFix" result="effect1_dropShadow_938_857"/>
<feBlend mode="normal" in="SourceGraphic" in2="effect1_dropShadow_938_857" result="shape"/>
</filter>
<linearGradient id="paint0_linear_938_857" x1="32" y1="595" x2="32" y2="617" gradientUnits="userSpaceOnUse">
<stop stop-color="#F07F12"/>
<stop offset="1" stop-color="#FCA465"/>
</linearGradient>
<linearGradient id="paint1_linear_938_857" x1="182.737" y1="243.175" x2="182.737" y2="296.592" gradientUnits="userSpaceOnUse">
<stop stop-color="#003760"/>
<stop offset="1" stop-color="#121637"/>
</linearGradient>
<linearGradient id="paint2_linear_938_857" x1="106.422" y1="305.862" x2="106.422" y2="331.079" gradientUnits="userSpaceOnUse">
<stop stop-color="#003760"/>
<stop offset="1" stop-color="#121637"/>
</linearGradient>
<linearGradient id="paint3_linear_938_857" x1="143.347" y1="323.698" x2="143.347" y2="349.11" gradientUnits="userSpaceOnUse">
<stop stop-color="#003760"/>
<stop offset="1" stop-color="#121637"/>
</linearGradient>
</defs>
</svg>
