<svg width="360" height="617" viewBox="0 0 360 617" fill="none" xmlns="http://www.w3.org/2000/svg">
<g filter="url(#filter0_i_938_858)">
<rect x="15" y="595" width="331" height="22" rx="11" fill="#F4F4F4"/>
</g>
<rect x="15" y="595" width="250" height="22" rx="11" fill="#F48B2C"/>
<path d="M180.48 545.018C270.215 545.018 342.96 540.761 342.96 535.509C342.96 530.257 270.215 526 180.48 526C90.7447 526 18 530.257 18 535.509C18 540.761 90.7447 545.018 180.48 545.018Z" fill="#F5F5F5"/>
<path d="M326.794 517.896C345.133 501.27 348.886 475.557 335.175 460.464C321.465 445.372 295.484 446.615 277.145 463.241C258.805 479.867 255.053 505.58 268.763 520.672C282.473 535.765 308.455 534.522 326.794 517.896Z" fill="#24211C"/>
<path d="M318.066 508.287C329.96 497.503 332.396 480.829 323.506 471.042C314.616 461.256 297.767 462.064 285.873 472.848C273.978 483.631 271.543 500.306 280.433 510.092C289.322 519.878 306.171 519.07 318.066 508.287Z" fill="#C2BEC1"/>
<path d="M314.959 490.564C313.566 497.725 306.632 503.524 299.464 503.524C292.296 503.524 287.619 497.725 289.012 490.564C290.405 483.403 297.338 477.603 304.507 477.603C311.661 477.603 316.352 483.403 314.959 490.564Z" fill="#FFF6F8"/>
<path d="M309.887 449.911C287.414 449.911 265.645 468.114 261.277 490.564C259.869 497.784 260.441 504.564 262.611 510.437L343.31 479.654C341.874 462.505 328.592 449.911 309.887 449.911Z" fill="#E0E0E0"/>
<path d="M141.855 517.89C160.195 501.265 163.947 475.552 150.237 460.459C136.527 445.366 110.545 446.609 92.2061 463.235C73.8669 479.861 70.1144 505.574 83.8246 520.667C97.5349 535.759 123.516 534.516 141.855 517.89Z" fill="#24211C"/>
<path d="M143.431 490.564C140.601 505.121 126.484 516.924 111.913 516.924C97.3418 516.924 87.8279 505.121 90.6571 490.564C93.4864 476.007 107.603 464.204 122.175 464.204C136.746 464.204 146.26 476.007 143.431 490.564Z" fill="#C2BEC1"/>
<path d="M130.017 490.564C128.625 497.725 121.691 503.524 114.522 503.524C107.354 503.524 102.678 497.725 104.07 490.564C105.463 483.403 112.397 477.603 119.565 477.603C126.734 477.603 131.41 483.403 130.017 490.564Z" fill="#FFF6F8"/>
<path d="M139.605 452.283C120.342 443.936 94.6591 454.084 82.228 474.953C78.2407 481.66 76.1004 488.66 75.6899 495.353L156.741 494.503C162.151 476.783 155.627 459.225 139.605 452.283Z" fill="#E0E0E0"/>
<path d="M292.442 343.533L285.597 320.028L278.883 322.826L281.683 345.686" fill="#0F0F0F"/>
<path d="M294.304 342.64L305.064 386.866C308.787 399.519 310.693 410.678 321.937 416.931C336.479 425.03 330.41 442.339 330.41 442.339L281.58 463.94L263.314 488.938H173.878L161.212 452.664H82.9755H68.8733V427.065C68.8733 372.778 112.924 365.046 167.267 365.046H185.737H207.741V456.75C223.881 463.911 257.934 469.71 257.934 469.71L285.157 417.356C288.352 411.191 289.349 404.132 287.986 397.337L279.601 345.056C279.264 342.976 280.73 341.029 282.826 340.765L290.214 339.813C292.09 339.579 293.864 340.794 294.304 342.64Z" fill="#E6E6E6"/>
<path d="M170.052 433.963H208.166" stroke="#4D483D" stroke-miterlimit="10"/>
<path d="M218.237 477.823L189.637 457.321C188.024 456.164 187.599 453.982 188.713 452.459C189.813 450.921 192.012 450.628 193.624 451.785L222.224 472.288C223.837 473.444 224.262 475.626 223.163 477.15C222.048 478.673 219.85 478.98 218.237 477.823Z" fill="#24211C"/>
<path d="M181.53 469.11H69.2691C66.5131 469.11 64.2849 466.884 64.2849 464.131C64.2849 435.588 87.4466 412.465 116.003 412.465H134.796C163.367 412.465 186.514 435.603 186.514 464.131C186.514 466.884 184.286 469.11 181.53 469.11Z" fill="white"/>
<path d="M207.785 368.956H124.857V384.538H207.785V368.956Z" fill="#C2BEC1"/>
<path d="M236.693 362.834H124.857V378.416H236.693V362.834Z" fill="white"/>
<path d="M236.693 362.834H124.857V369.175H236.693V362.834Z" fill="#263238"/>
<path d="M148.899 450.453H89.074V452.971H148.899V450.453Z" fill="#4D483D"/>
<path d="M148.899 443.467H89.074V445.986H148.899V443.467Z" fill="#4D483D"/>
<path d="M148.899 436.482H89.074V439.001H148.899V436.482Z" fill="#4D483D"/>
<path d="M310.121 393.749H304.023V408.364H310.121V393.749Z" fill="#0F0F0F"/>
<path d="M316.073 393.749H309.975V408.364H316.073V393.749Z" fill="#F77F00"/>
<path d="M273.341 323.104C273.341 323.104 269.794 310.29 286.11 307.185L289.1 322.401L273.341 323.104Z" fill="#C2BEC1"/>
<path d="M290.727 323.192C290.727 328.434 286.476 332.681 281.228 332.681C275.98 332.681 271.729 328.434 271.729 323.192C271.729 317.949 275.98 313.702 281.228 313.702C286.461 313.702 290.727 317.949 290.727 323.192Z" fill="#C2BEC1"/>
<path d="M290.317 302.821C289.877 302.865 288.25 303.055 287.81 303.099C286.08 303.29 285.142 307.419 285.684 312.325C286.241 317.231 288.074 321.053 289.804 320.863C290.243 320.819 291.871 320.629 292.31 320.585C294.04 320.394 294.978 316.265 294.436 311.359C293.879 306.453 292.032 302.631 290.317 302.821Z" fill="#263238"/>
<path d="M294.436 311.359C294.993 316.265 294.333 320.365 292.985 320.512C291.621 320.658 290.082 316.807 289.525 311.901C288.968 306.995 289.628 302.894 290.991 302.748C292.325 302.587 293.879 306.453 294.436 311.359Z" fill="#B7C0CC" fill-opacity="0.9"/>
<path d="M189.607 308.093C189.607 308.093 240.109 334.658 263.798 353.257C285.127 369.996 249.359 371.68 188.992 362.131C176.986 360.228 175.3 333.516 181.252 322.928L189.607 308.093Z" fill="#24211C"/>
<path d="M201.174 445.327L205.601 438.034L213.737 443.716L210.643 447.948L206.172 453.279L201.174 445.327Z" fill="#FCA465"/>
<path d="M201.863 444.36C201.863 444.36 195.163 448.666 193.492 453.059C193.492 453.059 203.988 461.07 211.464 468.099C218.941 475.129 226.666 473.635 222.444 467.631C218.222 461.626 210.644 447.948 210.644 447.948C210.644 447.948 206.07 453.089 201.863 444.36Z" fill="#F77F00"/>
<path d="M210.731 453.967L210.585 453.806C212.52 452.049 214.235 453.045 214.25 453.045L214.132 453.235C214.059 453.191 212.534 452.327 210.731 453.967Z" fill="#263238"/>
<path d="M212.71 456.589L212.564 456.413C214.499 454.656 216.214 455.651 216.229 455.651L216.111 455.842C216.053 455.827 214.528 454.948 212.71 456.589Z" fill="#263238"/>
<path d="M208.987 451.448L208.84 451.287C210.79 449.53 212.49 450.526 212.505 450.526L212.388 450.716C212.329 450.687 210.805 449.808 208.987 451.448Z" fill="#263238"/>
<path d="M221.858 466.781C219.806 467.338 217.944 469.212 216.625 469.944C214.235 471.292 199.898 454.875 199.898 454.875C199.502 451.99 198.403 449.486 197.48 447.802C195.838 449.325 194.21 451.185 193.492 453.059C193.492 453.059 203.988 461.07 211.464 468.099C218.941 475.129 226.666 473.635 222.444 467.631C222.254 467.367 222.063 467.074 221.858 466.781Z" fill="#FFF6F8"/>
<path d="M239.478 365.822C239.478 365.822 233.541 376.922 220.744 397.103C204.237 423.155 198.271 434.915 198.271 434.915L211.728 446.294C211.728 446.294 239.288 417.576 250.649 398.508C250.649 398.508 266.173 376.205 269.383 365.002C272.271 354.897 262.787 362.292 255.046 356.815L239.478 365.822Z" fill="#24211C"/>
<path d="M176.062 340.047L107.427 340.033L107.486 317.026L176.121 317.041L176.062 340.047Z" fill="#F77F00"/>
<path d="M178.877 330.558L104.657 330.529L104.701 317.143L178.906 317.173L178.877 330.558Z" fill="#F77F00"/>
<path d="M140.704 316.953V339.901" stroke="#4D483D" stroke-width="0.5" stroke-miterlimit="10"/>
<path d="M140.513 316.953C140.513 316.953 144.618 303.553 149.089 303.553C153.56 303.553 153.37 313.79 140.513 318.447C140.513 318.447 150.76 321.991 158.222 317.334" fill="#F77F00"/>
<path d="M140.513 316.953C140.513 316.953 144.618 303.553 149.089 303.553C153.56 303.553 153.37 313.79 140.513 318.447C140.513 318.447 150.76 321.991 158.222 317.334" stroke="#4D483D" stroke-width="0.5" stroke-miterlimit="10"/>
<path d="M140.704 316.953C140.704 316.953 136.599 303.553 132.128 303.553C127.657 303.553 127.848 313.79 140.704 318.447C140.704 318.447 130.457 321.991 122.996 317.334" fill="#F77F00"/>
<path d="M140.704 316.953C140.704 316.953 136.599 303.553 132.128 303.553C127.657 303.553 127.848 313.79 140.704 318.447C140.704 318.447 130.457 321.991 122.996 317.334" stroke="#4D483D" stroke-width="0.5" stroke-miterlimit="10"/>
<path d="M107.471 330.543H175.974" stroke="#4D483D" stroke-width="0.5" stroke-miterlimit="10"/>
<path d="M171.635 362.893L103 362.878L103.059 339.886L171.694 339.901L171.635 362.893Z" fill="#F77F00"/>
<path d="M174.391 353.403L100.186 353.374L100.215 339.872L174.435 339.916L174.391 353.403Z" fill="#F77F00"/>
<path d="M136.277 339.901V362.761" stroke="#4D483D" stroke-width="0.5" stroke-miterlimit="10"/>
<path d="M103.044 353.403H171.547" stroke="#4D483D" stroke-width="0.5" stroke-miterlimit="10"/>
<path d="M100.273 339.886H174.479L100.259 345.583L100.273 339.886Z" fill="#E77803"/>
<path d="M284.204 330.646C287.758 330.646 290.639 327.767 290.639 324.217C290.639 320.666 287.758 317.788 284.204 317.788C280.65 317.788 277.769 320.666 277.769 324.217C277.769 327.767 280.65 330.646 284.204 330.646Z" fill="#263238"/>
<path d="M284.057 322.401L278.663 297.578L279.718 296.231L285.113 321.054L284.057 322.401Z" fill="#263238"/>
<path d="M276.742 308.093C279.187 308.093 281.169 303.018 281.169 296.758C281.169 290.498 279.187 285.423 276.742 285.423C274.297 285.423 272.315 290.498 272.315 296.758C272.315 303.018 274.297 308.093 276.742 308.093Z" fill="#4D483D"/>
<path d="M273.635 296.758C273.635 291.516 275.071 287.122 277.021 285.833C276.64 285.585 276.244 285.438 275.834 285.438C273.297 285.438 271.245 290.505 271.245 296.773C271.245 303.026 273.297 308.108 275.834 308.108C276.244 308.108 276.64 307.961 277.021 307.712C275.071 306.38 273.635 301.986 273.635 296.758Z" fill="white"/>
<path d="M276.742 308.093C279.187 308.093 281.169 303.018 281.169 296.758C281.169 290.498 279.187 285.423 276.742 285.423C274.297 285.423 272.315 290.498 272.315 296.758C272.315 303.018 274.297 308.093 276.742 308.093Z" fill="#263238"/>
<path d="M247.263 274.44C247.263 274.44 247.248 262.636 247.996 260.747C249.813 256.134 251.895 251.477 255.076 248.944L257.524 231.385C257.524 231.385 247.219 240.084 237.881 250.76C234.919 254.143 232.032 254.362 230.258 254.318C226.432 254.231 222.195 275.245 241.501 275.304C241.589 275.304 241.663 275.304 241.751 275.304C245.621 275.26 242.337 277.047 247.263 274.44Z" fill="#FCA465"/>
<path d="M247.629 262.329L247.688 262.051C247.732 261.597 247.82 261.157 247.981 260.747C248.67 258.99 249.403 257.247 250.209 255.592L246.749 247.26C246.764 247.26 242.63 256.837 247.629 262.329Z" fill="#B57536"/>
<path d="M247.145 280.722C247.145 280.722 248.42 266.034 247.292 264.277C239.038 259.517 236.942 251.609 236.942 251.609C231.811 250.028 220.89 258.331 219.615 259.429C205.337 271.701 192.07 306.497 184.667 312.677C184.139 313.116 204.868 332.154 220.832 331.759C225.332 331.641 227.384 329.049 227.384 329.049C231.357 317.949 233.659 314.024 237.822 307.302C246.163 293.844 247.145 280.722 247.145 280.722Z" fill="#003760"/>
<path d="M267.756 238.605C267.756 238.605 267.712 261.816 257.436 260.249C244.741 258.316 241.531 239.82 241.663 229.745C241.721 224.942 246.28 223.638 250.957 222.511C258.228 220.739 267.976 225.41 267.756 238.605Z" fill="#FCA465"/>
<path d="M265.059 226.538C262.464 221.793 255.472 218.498 248.054 219.084C240.636 219.669 235.872 224.927 235.256 231.824C234.26 243.027 242.997 245.195 242.997 245.195C242.997 245.195 251.015 246.074 255.545 232.366C266.158 235.398 267.639 231.283 265.059 226.538Z" fill="#24211C"/>
<path d="M267.346 239.513C267.346 239.513 268.181 244.77 268.944 246.674C269.706 248.578 268.958 249.998 265.528 249.837" fill="#FCA465"/>
<path d="M262.303 251.155C259.899 251.155 258.066 248.607 258.052 248.578L258.242 248.446C258.271 248.475 260.573 251.682 263.314 250.76L263.388 250.979C263.006 251.097 262.64 251.155 262.303 251.155Z" fill="#29201D"/>
<path d="M241.105 246.586C242.513 248.739 245.005 249.618 246.647 248.549C248.303 247.465 248.494 244.843 247.086 242.691C245.679 240.538 243.187 239.659 241.545 240.728C239.889 241.812 239.698 244.433 241.105 246.586Z" fill="#FCA465"/>
<path d="M220.084 264.731C217.695 266.151 216.58 268.553 218.002 271.526C221.902 279.653 228.792 314.083 233.996 318.125C239.903 322.723 260.514 321.918 270.453 321.903L272.74 316.162C272.74 316.162 247.907 309.074 241.882 309.645C241.897 309.66 234.406 256.251 220.084 264.731Z" fill="#FCA465"/>
<path d="M232.647 266.591C235.99 276.197 241.751 295.88 241.751 295.88C241.751 295.88 228.85 301.166 222.136 298.794L216.551 271.145C214.587 266.239 220.583 261.538 220.583 261.538C225.86 257.76 230.522 260.469 232.647 266.591Z" fill="url(#paint0_linear_938_858)"/>
<path d="M279.791 315.547C279.791 315.547 292.237 317.758 292.34 318.828C292.442 319.897 292.692 330.192 292.692 330.192C292.692 330.192 289.657 330.66 287.18 321.669C287.18 321.669 275.379 325.125 267.463 321.888L270.952 315.899L279.791 315.547Z" fill="#FCA465"/>
<path d="M268.548 228.427C267.243 225.82 261.555 218 250.649 218C240.402 218 235.491 222.891 234.612 231.532C233.175 245.576 242.879 248.036 242.879 248.036C242.879 248.036 246.764 246.864 252.217 229.584C264.004 233.069 271.509 234.343 268.548 228.427Z" fill="#003760"/>
<path d="M252.613 226.889C252.613 226.889 273.297 232.059 274.001 234.153C275.247 237.902 265 232.674 252.232 229.569L252.613 226.889Z" fill="#263238"/>
<path d="M245.005 234.973C246.266 236.994 245.65 239.659 243.627 240.933C241.604 242.193 238.936 241.578 237.661 239.557C236.4 237.536 237.016 234.87 239.039 233.596C241.076 232.337 243.744 232.952 245.005 234.973Z" fill="#263238"/>
<path d="M273.898 478.468L331.114 442.34L332.052 436.013L287.795 434.9L281.829 441.227L265.513 478.834L273.898 478.468Z" fill="white"/>
<path d="M83.8552 450.35H62.4233V468.963H83.8552V450.35Z" fill="#263238"/>
<path d="M300.74 349.771C299.933 349.859 297.002 350.196 296.195 350.284C293.073 350.635 291.358 358.119 292.355 366.993C293.351 375.868 296.694 382.78 299.801 382.443C300.608 382.355 303.54 382.019 304.346 381.931C307.468 381.579 309.183 374.096 308.187 365.221C307.19 356.347 303.862 349.42 300.74 349.771Z" fill="#263238"/>
<path d="M308.187 365.221C309.183 374.096 307.996 381.521 305.548 381.799C303.1 382.077 300.3 375.106 299.303 366.217C298.306 357.343 299.494 349.918 301.942 349.64C304.39 349.361 307.19 356.347 308.187 365.221Z" fill="#B7C0CC" fill-opacity="0.9"/>
<path d="M215.437 272.741L222.151 298.808C222.151 298.808 232.398 300.112 240.036 296.568L232.765 265.097" stroke="#29201D" stroke-width="0.25" stroke-miterlimit="10"/>
<path d="M306.486 361.165C307.043 366.173 306.384 370.362 304.991 370.523C303.598 370.684 302.03 366.744 301.458 361.736C300.901 356.728 301.561 352.539 302.953 352.378C304.346 352.202 305.914 356.142 306.486 361.165Z" fill="white"/>
<path d="M293.864 310.495C294.157 313.145 293.806 315.357 293.073 315.445C292.34 315.532 291.504 313.438 291.211 310.802C290.918 308.152 291.27 305.94 292.003 305.852C292.736 305.75 293.571 307.844 293.864 310.495Z" fill="white"/>
<path d="M304.463 373.539C304.668 375.429 304.419 376.996 303.906 377.054C303.378 377.113 302.792 375.634 302.572 373.744C302.367 371.855 302.616 370.288 303.129 370.23C303.657 370.171 304.258 371.665 304.463 373.539Z" fill="white"/>
<path d="M266.959 241.78C266.78 242.46 266.273 242.912 265.828 242.787C265.384 242.663 265.173 242.015 265.352 241.335C265.532 240.656 266.039 240.203 266.483 240.328C266.928 240.453 267.138 241.101 266.959 241.78Z" fill="#263238"/>
<path d="M259.514 241.78C259.335 242.46 258.828 242.912 258.384 242.787C257.939 242.663 257.729 242.015 257.908 241.335C258.087 240.656 258.594 240.203 259.039 240.328C259.491 240.445 259.702 241.101 259.514 241.78Z" fill="#263238"/>
<path d="M262.497 243.096L263.434 248.469C263.434 248.469 264.794 249.277 266.219 247.675C265.088 244.832 262.497 243.096 262.497 243.096Z" fill="#ED847E"/>
<path d="M256.221 237.942C256.338 237.997 256.486 237.997 256.611 237.927C258.163 236.99 259.512 237.622 259.567 237.653C259.769 237.755 260.019 237.669 260.113 237.458C260.214 237.255 260.128 237.005 259.925 236.904C259.847 236.873 258.132 236.045 256.182 237.208C255.987 237.326 255.925 237.583 256.042 237.778C256.089 237.849 256.151 237.903 256.221 237.942Z" fill="#263238"/>
<path d="M264.596 237.942C264.713 237.997 264.861 237.997 264.986 237.927C266.538 236.99 267.887 237.622 267.942 237.653C268.144 237.755 268.394 237.669 268.488 237.458C268.589 237.255 268.503 237.005 268.3 236.904C268.222 236.873 266.507 236.045 264.557 237.208C264.362 237.326 264.3 237.583 264.417 237.778C264.464 237.849 264.526 237.903 264.596 237.942Z" fill="#263238"/>
<path d="M182.744 421.205C190.533 421.205 196.847 414.891 196.847 407.103C196.847 399.314 190.533 393 182.744 393C174.956 393 168.642 399.314 168.642 407.103C168.642 414.891 174.956 421.205 182.744 421.205Z" fill="#F07F12"/>
<path d="M181.256 415.853C181.145 416.142 181.345 416.253 181.501 416.941C181.967 418.873 181.079 420.961 180.723 421.339C180.723 421.339 180.701 421.361 180.701 421.383C180.746 421.627 183.544 421.472 184.654 421.405C184.765 421.405 184.832 421.383 184.965 421.383C185.032 421.383 185.054 421.383 185.076 421.383C185.165 421.294 184.788 420.761 184.699 420.628C184.232 419.939 184.232 419.14 184.21 417.941C184.21 417.941 184.188 416.852 184.432 415.786C184.454 415.675 184.477 415.586 184.477 415.586C184.543 415.342 184.565 415.32 184.543 415.298C184.499 415.009 181.656 414.831 181.256 415.853Z" fill="#15385C"/>
<path d="M186.009 422.271C185.987 422.271 185.965 422.271 185.942 422.271C185.52 422.227 185.21 421.849 185.254 421.427C185.454 419.273 186.098 417.985 187.231 417.452C187.963 417.097 188.63 417.208 189.296 417.319C189.873 417.408 190.451 417.519 191.25 417.363C192.072 417.186 192.627 416.83 193.271 416.408C196.092 414.543 197.202 411.345 197.335 410.989C198.179 408.48 198.024 405.792 196.869 402.994C195.736 400.24 193.937 398.797 192.05 397.286C191.428 396.798 190.673 396.287 189.784 396.309C189.585 396.309 189.14 396.331 188.785 396.62C188.652 396.731 188.23 397.109 188.297 397.508C188.319 397.73 188.474 397.975 188.674 398.13C188.785 398.219 188.985 398.33 189.207 398.308C189.518 398.264 189.807 397.975 189.918 397.597C190.029 397.175 190.451 396.931 190.85 397.02C191.272 397.131 191.517 397.553 191.428 397.953C191.184 398.952 190.362 399.707 189.407 399.818C188.807 399.885 188.208 399.729 187.719 399.33C187.186 398.93 186.831 398.308 186.764 397.664C186.653 396.842 187.053 395.998 187.83 395.376C188.607 394.755 189.474 394.71 189.762 394.71C191.161 394.666 192.25 395.376 193.049 396.02C195.026 397.597 197.069 399.241 198.335 402.35C199.623 405.504 199.8 408.546 198.845 411.433C198.623 412.1 197.358 415.542 194.137 417.652C193.471 418.096 192.716 418.585 191.583 418.807C190.517 419.029 189.696 418.896 189.052 418.785C188.496 418.696 188.208 418.651 187.919 418.785C187.364 419.051 186.964 420.028 186.831 421.516C186.764 421.96 186.409 422.271 186.009 422.271Z" fill="#15385C"/>
<path d="M182.878 421.938C175.038 421.938 168.642 415.564 168.642 407.702C168.642 399.863 175.016 393.466 182.878 393.466C190.717 393.466 197.113 399.84 197.113 407.702C197.113 415.564 190.739 421.938 182.878 421.938ZM182.878 393.644C175.127 393.644 168.82 399.951 168.82 407.702C168.82 415.453 175.127 421.761 182.878 421.761C190.628 421.761 196.936 415.453 196.936 407.702C196.936 399.951 190.651 393.644 182.878 393.644Z" fill="white"/>
<path d="M182.7 417.274C189.164 417.274 194.404 413.645 194.404 409.168C194.404 404.691 189.164 401.062 182.7 401.062C176.236 401.062 170.996 404.691 170.996 409.168C170.996 413.645 176.236 417.274 182.7 417.274Z" fill="#15385C"/>
<path d="M169.153 412.055C171.447 412.055 173.306 410.454 173.306 408.48C173.306 406.505 171.447 404.904 169.153 404.904C166.859 404.904 165 406.505 165 408.48C165 410.454 166.859 412.055 169.153 412.055Z" fill="#15385C"/>
<path d="M196.292 412.033C198.585 412.033 200.445 410.432 200.445 408.457C200.445 406.483 198.585 404.882 196.292 404.882C193.998 404.882 192.139 406.483 192.139 408.457C192.139 410.432 193.998 412.033 196.292 412.033Z" fill="#15385C"/>
<path d="M182.367 401.684C182.278 401.506 182.056 400.995 182.189 400.329C182.211 400.173 182.389 399.441 183.078 398.996C183.166 398.952 184.121 398.352 184.854 398.841C185.165 399.063 185.498 399.507 185.409 399.974C185.343 400.351 185.032 400.573 184.899 400.684C184.854 400.729 184.699 400.84 184.654 400.795C184.588 400.729 184.899 400.396 184.81 400.062C184.743 399.84 184.477 399.663 184.255 399.663C183.833 399.663 183.588 400.218 183.522 400.507C183.344 401.173 183.766 401.773 183.833 401.884" fill="#15385C"/>
<path d="M171.241 408.302C171.241 408.146 170.907 407.991 170.641 407.947C170.241 407.902 169.73 408.102 169.486 408.524C169.22 408.968 169.197 409.657 169.642 410.034C170.152 410.478 170.93 410.145 170.974 410.101C170.974 410.101 171.018 410.034 171.063 410.034C171.063 410.034 171.063 410.034 171.085 410.034C171.129 410.012 171.041 409.768 171.018 409.657C170.952 409.368 170.885 408.746 171.174 408.435C171.218 408.369 171.241 408.346 171.241 408.302Z" fill="white"/>
<path d="M194.359 408.391C194.359 408.235 194.692 408.08 194.959 408.035C195.359 407.991 195.87 408.191 196.114 408.613C196.38 409.057 196.403 409.746 195.958 410.123C195.448 410.567 194.67 410.234 194.626 410.19C194.626 410.19 194.581 410.123 194.537 410.123C194.537 410.123 194.537 410.123 194.515 410.123C194.47 410.101 194.559 409.857 194.581 409.746C194.648 409.457 194.715 408.835 194.426 408.524C194.404 408.48 194.359 408.457 194.359 408.391Z" fill="white"/>
<path d="M190.984 408.857C191.006 406.57 188.985 404.726 186.475 404.704C184.943 404.704 183.588 405.37 182.767 406.436C181.945 405.415 180.635 404.726 179.124 404.726C176.615 404.704 174.594 406.547 174.572 408.835C174.572 410.878 176.193 412.588 178.347 412.921C178.347 414.676 180.346 416.075 182.811 416.097C185.276 416.119 187.297 414.698 187.297 412.944C187.297 412.921 187.297 412.899 187.297 412.877C189.385 412.544 190.984 410.878 190.984 408.857Z" fill="white"/>
<path d="M180.124 411.678C180.504 411.678 180.812 410.962 180.812 410.079C180.812 409.196 180.504 408.48 180.124 408.48C179.744 408.48 179.436 409.196 179.436 410.079C179.436 410.962 179.744 411.678 180.124 411.678Z" fill="#15385C"/>
<path d="M185.565 411.678C185.945 411.678 186.253 410.962 186.253 410.079C186.253 409.196 185.945 408.48 185.565 408.48C185.185 408.48 184.876 409.196 184.876 410.079C184.876 410.962 185.185 411.678 185.565 411.678Z" fill="#15385C"/>
<path opacity="0.82" d="M178.325 413.921C178.963 413.921 179.48 413.493 179.48 412.966C179.48 412.438 178.963 412.011 178.325 412.011C177.687 412.011 177.17 412.438 177.17 412.966C177.17 413.493 177.687 413.921 178.325 413.921Z" fill="#F07F12"/>
<path opacity="0.82" d="M187.297 413.854C187.935 413.854 188.452 413.427 188.452 412.899C188.452 412.372 187.935 411.944 187.297 411.944C186.659 411.944 186.142 412.372 186.142 412.899C186.142 413.427 186.659 413.854 187.297 413.854Z" fill="#F07F12"/>
<path d="M183.411 411.922C183.388 411.922 183.366 411.922 183.344 411.9C183.3 411.855 183.3 411.789 183.322 411.744C183.411 411.633 183.411 411.5 183.322 411.411C183.233 411.3 183.078 411.3 183.011 411.345C182.922 411.389 182.9 411.544 182.878 411.633C182.855 411.722 182.833 411.855 182.722 411.855C182.611 411.855 182.589 411.744 182.567 411.655C182.545 411.567 182.5 411.433 182.434 411.389C182.367 411.367 182.3 411.367 182.234 411.389C182.167 411.433 182.123 411.589 182.189 411.722C182.211 411.789 182.189 411.833 182.123 411.878C182.056 411.9 182.012 411.878 181.967 411.811C181.856 411.567 181.923 411.322 182.1 411.189C182.234 411.1 182.389 411.1 182.522 411.167C182.611 411.211 182.656 411.278 182.7 411.367C182.722 411.278 182.789 411.189 182.878 411.122C183.033 411.011 183.3 411.034 183.477 411.211C183.633 411.389 183.633 411.655 183.477 411.833C183.477 411.922 183.455 411.922 183.411 411.922Z" fill="#15385C"/>
<g filter="url(#filter1_d_938_858)">
<path d="M4 98.8182C9.36786 -16.9196 189.255 -31.4028 242.933 57.538C272.393 101.498 248.94 160.388 203.505 182.591C201.46 183.739 201.013 184.888 201.524 187.057C201.908 203.391 234.498 226.487 220.44 226.998C190.213 227.189 161.01 216.087 135.065 201.285C76.1465 198.669 6.87564 165.364 4 98.8182Z" fill="#003760"/>
</g>
<path d="M62.7818 59.336C63.2152 59.336 63.5792 59.492 63.8738 59.804C64.1858 60.116 64.3418 60.4973 64.3418 60.948C64.3418 61.3987 64.1858 61.78 63.8738 62.092C63.5792 62.404 63.2152 62.56 62.7818 62.56C62.3312 62.56 61.9498 62.404 61.6378 62.092C61.3258 61.78 61.1698 61.3987 61.1698 60.948C61.1698 60.4973 61.3258 60.116 61.6378 59.804C61.9498 59.492 62.3312 59.336 62.7818 59.336ZM61.6898 64.614H63.6658L63.9518 77.614H61.4038L61.6898 64.614ZM79.782 55.878V57.802H74.842V74H72.476V57.802H67.51V55.878H79.782ZM95.3304 59.752V74H92.9644V71.894C92.5137 72.622 91.881 73.194 91.0664 73.61C90.269 74.0087 89.385 74.208 88.4144 74.208C87.305 74.208 86.3084 73.9827 85.4244 73.532C84.5404 73.064 83.8384 72.3707 83.3184 71.452C82.8157 70.5333 82.5644 69.4153 82.5644 68.098V59.752H84.9044V67.786C84.9044 69.19 85.2597 70.2733 85.9704 71.036C86.681 71.7813 87.6517 72.154 88.8824 72.154C90.1477 72.154 91.1444 71.764 91.8724 70.984C92.6004 70.204 92.9644 69.0687 92.9644 67.578V59.752H95.3304ZM108.623 62.378C109.091 61.5633 109.784 60.8873 110.703 60.35C111.639 59.7953 112.722 59.518 113.953 59.518C115.218 59.518 116.362 59.8213 117.385 60.428C118.425 61.0347 119.24 61.8927 119.829 63.002C120.418 64.094 120.713 65.368 120.713 66.824C120.713 68.2627 120.418 69.5453 119.829 70.672C119.24 71.7987 118.425 72.674 117.385 73.298C116.362 73.922 115.218 74.234 113.953 74.234C112.74 74.234 111.665 73.9653 110.729 73.428C109.81 72.8733 109.108 72.1887 108.623 71.374V80.76H106.257V59.752H108.623V62.378ZM118.295 66.824C118.295 65.7493 118.078 64.8133 117.645 64.016C117.212 63.2187 116.622 62.612 115.877 62.196C115.149 61.78 114.343 61.572 113.459 61.572C112.592 61.572 111.786 61.7887 111.041 62.222C110.313 62.638 109.724 63.2533 109.273 64.068C108.84 64.8653 108.623 65.7927 108.623 66.85C108.623 67.9247 108.84 68.8693 109.273 69.684C109.724 70.4813 110.313 71.0967 111.041 71.53C111.786 71.946 112.592 72.154 113.459 72.154C114.343 72.154 115.149 71.946 115.877 71.53C116.622 71.0967 117.212 70.4813 117.645 69.684C118.078 68.8693 118.295 67.916 118.295 66.824ZM136.827 66.33C136.827 66.7807 136.801 67.2573 136.749 67.76H125.361C125.448 69.164 125.925 70.2647 126.791 71.062C127.675 71.842 128.741 72.232 129.989 72.232C131.012 72.232 131.861 71.998 132.537 71.53C133.231 71.0447 133.716 70.4033 133.993 69.606H136.541C136.16 70.9753 135.397 72.0933 134.253 72.96C133.109 73.8093 131.688 74.234 129.989 74.234C128.637 74.234 127.424 73.9307 126.349 73.324C125.292 72.7173 124.46 71.8593 123.853 70.75C123.247 69.6233 122.943 68.3233 122.943 66.85C122.943 65.3767 123.238 64.0853 123.827 62.976C124.417 61.8667 125.24 61.0173 126.297 60.428C127.372 59.8213 128.603 59.518 129.989 59.518C131.341 59.518 132.537 59.8127 133.577 60.402C134.617 60.9913 135.415 61.806 135.969 62.846C136.541 63.8687 136.827 65.03 136.827 66.33ZM134.383 65.836C134.383 64.9347 134.184 64.1633 133.785 63.522C133.387 62.8633 132.841 62.3693 132.147 62.04C131.471 61.6933 130.717 61.52 129.885 61.52C128.689 61.52 127.667 61.9013 126.817 62.664C125.985 63.4267 125.509 64.484 125.387 65.836H134.383ZM139.066 66.824C139.066 65.368 139.361 64.094 139.95 63.002C140.54 61.8927 141.346 61.0347 142.368 60.428C143.408 59.8213 144.57 59.518 145.852 59.518C146.962 59.518 147.993 59.778 148.946 60.298C149.9 60.8007 150.628 61.468 151.13 62.3V54.76H153.522V74H151.13V71.322C150.662 72.1713 149.969 72.8733 149.05 73.428C148.132 73.9653 147.057 74.234 145.826 74.234C144.561 74.234 143.408 73.922 142.368 73.298C141.346 72.674 140.54 71.7987 139.95 70.672C139.361 69.5453 139.066 68.2627 139.066 66.824ZM151.13 66.85C151.13 65.7753 150.914 64.8393 150.48 64.042C150.047 63.2447 149.458 62.638 148.712 62.222C147.984 61.7887 147.178 61.572 146.294 61.572C145.41 61.572 144.604 61.78 143.876 62.196C143.148 62.612 142.568 63.2187 142.134 64.016C141.701 64.8133 141.484 65.7493 141.484 66.824C141.484 67.916 141.701 68.8693 142.134 69.684C142.568 70.4813 143.148 71.0967 143.876 71.53C144.604 71.946 145.41 72.154 146.294 72.154C147.178 72.154 147.984 71.946 148.712 71.53C149.458 71.0967 150.047 70.4813 150.48 69.684C150.914 68.8693 151.13 67.9247 151.13 66.85ZM158.743 57.438C158.292 57.438 157.911 57.282 157.599 56.97C157.287 56.658 157.131 56.2767 157.131 55.826C157.131 55.3753 157.287 54.994 157.599 54.682C157.911 54.37 158.292 54.214 158.743 54.214C159.176 54.214 159.54 54.37 159.835 54.682C160.147 54.994 160.303 55.3753 160.303 55.826C160.303 56.2767 160.147 56.658 159.835 56.97C159.54 57.282 159.176 57.438 158.743 57.438ZM159.887 59.752V74H157.521V59.752H159.887ZM163.035 66.824C163.035 65.368 163.33 64.094 163.919 63.002C164.508 61.8927 165.314 61.0347 166.337 60.428C167.377 59.8213 168.538 59.518 169.821 59.518C170.93 59.518 171.962 59.778 172.915 60.298C173.868 60.8007 174.596 61.468 175.099 62.3V54.76H177.491V74H175.099V71.322C174.631 72.1713 173.938 72.8733 173.019 73.428C172.1 73.9653 171.026 74.234 169.795 74.234C168.53 74.234 167.377 73.922 166.337 73.298C165.314 72.674 164.508 71.7987 163.919 70.672C163.33 69.5453 163.035 68.2627 163.035 66.824ZM175.099 66.85C175.099 65.7753 174.882 64.8393 174.449 64.042C174.016 63.2447 173.426 62.638 172.681 62.222C171.953 61.7887 171.147 61.572 170.263 61.572C169.379 61.572 168.573 61.78 167.845 62.196C167.117 62.612 166.536 63.2187 166.103 64.016C165.67 64.8133 165.453 65.7493 165.453 66.824C165.453 67.916 165.67 68.8693 166.103 69.684C166.536 70.4813 167.117 71.0967 167.845 71.53C168.573 71.946 169.379 72.154 170.263 72.154C171.147 72.154 171.953 71.946 172.681 71.53C173.426 71.0967 174.016 70.4813 174.449 69.684C174.882 68.8693 175.099 67.9247 175.099 66.85ZM187.703 74.234C186.369 74.234 185.155 73.9307 184.063 73.324C182.989 72.7173 182.139 71.8593 181.515 70.75C180.909 69.6233 180.605 68.3233 180.605 66.85C180.605 65.394 180.917 64.1113 181.541 63.002C182.183 61.8753 183.049 61.0173 184.141 60.428C185.233 59.8213 186.455 59.518 187.807 59.518C189.159 59.518 190.381 59.8213 191.473 60.428C192.565 61.0173 193.423 61.8667 194.047 62.976C194.689 64.0853 195.009 65.3767 195.009 66.85C195.009 68.3233 194.68 69.6233 194.021 70.75C193.38 71.8593 192.505 72.7173 191.395 73.324C190.286 73.9307 189.055 74.234 187.703 74.234ZM187.703 72.154C188.553 72.154 189.35 71.9547 190.095 71.556C190.841 71.1573 191.439 70.5593 191.889 69.762C192.357 68.9647 192.591 67.994 192.591 66.85C192.591 65.706 192.366 64.7353 191.915 63.938C191.465 63.1407 190.875 62.5513 190.147 62.17C189.419 61.7713 188.631 61.572 187.781 61.572C186.915 61.572 186.117 61.7713 185.389 62.17C184.679 62.5513 184.107 63.1407 183.673 63.938C183.24 64.7353 183.023 65.706 183.023 66.85C183.023 68.0113 183.231 68.9907 183.647 69.788C184.081 70.5853 184.653 71.1833 185.363 71.582C186.074 71.9633 186.854 72.154 187.703 72.154ZM98.891 110.816L103.311 98.752H105.833L100.243 113H97.487L91.897 98.752H94.445L98.891 110.816ZM107.277 105.824C107.277 104.368 107.572 103.094 108.161 102.002C108.751 100.893 109.557 100.035 110.579 99.428C111.619 98.8213 112.772 98.518 114.037 98.518C115.285 98.518 116.369 98.7867 117.287 99.324C118.206 99.8613 118.891 100.537 119.341 101.352V98.752H121.733V113H119.341V110.348C118.873 111.18 118.171 111.873 117.235 112.428C116.317 112.965 115.242 113.234 114.011 113.234C112.746 113.234 111.602 112.922 110.579 112.298C109.557 111.674 108.751 110.799 108.161 109.672C107.572 108.545 107.277 107.263 107.277 105.824ZM119.341 105.85C119.341 104.775 119.125 103.839 118.691 103.042C118.258 102.245 117.669 101.638 116.923 101.222C116.195 100.789 115.389 100.572 114.505 100.572C113.621 100.572 112.815 100.78 112.087 101.196C111.359 101.612 110.779 102.219 110.345 103.016C109.912 103.813 109.695 104.749 109.695 105.824C109.695 106.916 109.912 107.869 110.345 108.684C110.779 109.481 111.359 110.097 112.087 110.53C112.815 110.946 113.621 111.154 114.505 111.154C115.389 111.154 116.195 110.946 116.923 110.53C117.669 110.097 118.258 109.481 118.691 108.684C119.125 107.869 119.341 106.925 119.341 105.85ZM145.663 105.33C145.663 105.781 145.637 106.257 145.585 106.76H134.197C134.284 108.164 134.76 109.265 135.627 110.062C136.511 110.842 137.577 111.232 138.825 111.232C139.848 111.232 140.697 110.998 141.373 110.53C142.066 110.045 142.552 109.403 142.829 108.606H145.377C144.996 109.975 144.233 111.093 143.089 111.96C141.945 112.809 140.524 113.234 138.825 113.234C137.473 113.234 136.26 112.931 135.185 112.324C134.128 111.717 133.296 110.859 132.689 109.75C132.082 108.623 131.779 107.323 131.779 105.85C131.779 104.377 132.074 103.085 132.663 101.976C133.252 100.867 134.076 100.017 135.133 99.428C136.208 98.8213 137.438 98.518 138.825 98.518C140.177 98.518 141.373 98.8127 142.413 99.402C143.453 99.9913 144.25 100.806 144.805 101.846C145.377 102.869 145.663 104.03 145.663 105.33ZM143.219 104.836C143.219 103.935 143.02 103.163 142.621 102.522C142.222 101.863 141.676 101.369 140.983 101.04C140.307 100.693 139.553 100.52 138.721 100.52C137.525 100.52 136.502 100.901 135.653 101.664C134.821 102.427 134.344 103.484 134.223 104.836H143.219ZM155.728 98.492C157.462 98.492 158.866 99.0207 159.94 100.078C161.015 101.118 161.552 102.626 161.552 104.602V113H159.212V104.94C159.212 103.519 158.857 102.435 158.146 101.69C157.436 100.927 156.465 100.546 155.234 100.546C153.986 100.546 152.99 100.936 152.244 101.716C151.516 102.496 151.152 103.631 151.152 105.122V113H148.786V98.752H151.152V100.78C151.62 100.052 152.253 99.4887 153.05 99.09C153.865 98.6913 154.758 98.492 155.728 98.492ZM78.3065 144.85C78.3065 143.377 78.6011 142.094 79.1905 141.002C79.7798 139.893 80.5945 139.035 81.6345 138.428C82.6918 137.821 83.8965 137.518 85.2485 137.518C86.9991 137.518 88.4378 137.943 89.5645 138.792C90.7085 139.641 91.4625 140.82 91.8265 142.328H89.2785C89.0358 141.461 88.5591 140.777 87.8485 140.274C87.1551 139.771 86.2885 139.52 85.2485 139.52C83.8965 139.52 82.8045 139.988 81.9725 140.924C81.1405 141.843 80.7245 143.151 80.7245 144.85C80.7245 146.566 81.1405 147.892 81.9725 148.828C82.8045 149.764 83.8965 150.232 85.2485 150.232C86.2885 150.232 87.1551 149.989 87.8485 149.504C88.5418 149.019 89.0185 148.325 89.2785 147.424H91.8265C91.4451 148.88 90.6825 150.05 89.5385 150.934C88.3945 151.801 86.9645 152.234 85.2485 152.234C83.8965 152.234 82.6918 151.931 81.6345 151.324C80.5945 150.717 79.7798 149.859 79.1905 148.75C78.6011 147.641 78.3065 146.341 78.3065 144.85ZM94.0994 144.824C94.0994 143.368 94.3941 142.094 94.9834 141.002C95.5728 139.893 96.3788 139.035 97.4014 138.428C98.4414 137.821 99.5941 137.518 100.859 137.518C102.107 137.518 103.191 137.787 104.109 138.324C105.028 138.861 105.713 139.537 106.163 140.352V137.752H108.555V152H106.163V149.348C105.695 150.18 104.993 150.873 104.057 151.428C103.139 151.965 102.064 152.234 100.833 152.234C99.5681 152.234 98.4241 151.922 97.4014 151.298C96.3788 150.674 95.5728 149.799 94.9834 148.672C94.3941 147.545 94.0994 146.263 94.0994 144.824ZM106.163 144.85C106.163 143.775 105.947 142.839 105.513 142.042C105.08 141.245 104.491 140.638 103.745 140.222C103.017 139.789 102.211 139.572 101.327 139.572C100.443 139.572 99.6374 139.78 98.9094 140.196C98.1814 140.612 97.6008 141.219 97.1674 142.016C96.7341 142.813 96.5174 143.749 96.5174 144.824C96.5174 145.916 96.7341 146.869 97.1674 147.684C97.6008 148.481 98.1814 149.097 98.9094 149.53C99.6374 149.946 100.443 150.154 101.327 150.154C102.211 150.154 103.017 149.946 103.745 149.53C104.491 149.097 105.08 148.481 105.513 147.684C105.947 146.869 106.163 145.925 106.163 144.85ZM129.688 137.492C130.797 137.492 131.785 137.726 132.652 138.194C133.518 138.645 134.203 139.329 134.706 140.248C135.208 141.167 135.46 142.285 135.46 143.602V152H133.12V143.94C133.12 142.519 132.764 141.435 132.054 140.69C131.36 139.927 130.416 139.546 129.22 139.546C127.989 139.546 127.01 139.945 126.282 140.742C125.554 141.522 125.19 142.657 125.19 144.148V152H122.85V143.94C122.85 142.519 122.494 141.435 121.784 140.69C121.09 139.927 120.146 139.546 118.95 139.546C117.719 139.546 116.74 139.945 116.012 140.742C115.284 141.522 114.92 142.657 114.92 144.148V152H112.554V137.752H114.92V139.806C115.388 139.061 116.012 138.489 116.792 138.09C117.589 137.691 118.464 137.492 119.418 137.492C120.614 137.492 121.671 137.761 122.59 138.298C123.508 138.835 124.193 139.624 124.644 140.664C125.042 139.659 125.701 138.879 126.62 138.324C127.538 137.769 128.561 137.492 129.688 137.492ZM140.563 135.438C140.112 135.438 139.731 135.282 139.419 134.97C139.107 134.658 138.951 134.277 138.951 133.826C138.951 133.375 139.107 132.994 139.419 132.682C139.731 132.37 140.112 132.214 140.563 132.214C140.996 132.214 141.36 132.37 141.655 132.682C141.967 132.994 142.123 133.375 142.123 133.826C142.123 134.277 141.967 134.658 141.655 134.97C141.36 135.282 140.996 135.438 140.563 135.438ZM141.707 137.752V152H139.341V137.752H141.707ZM152.681 137.492C154.415 137.492 155.819 138.021 156.893 139.078C157.968 140.118 158.505 141.626 158.505 143.602V152H156.165V143.94C156.165 142.519 155.81 141.435 155.099 140.69C154.389 139.927 153.418 139.546 152.187 139.546C150.939 139.546 149.943 139.936 149.197 140.716C148.469 141.496 148.105 142.631 148.105 144.122V152H145.739V137.752H148.105V139.78C148.573 139.052 149.206 138.489 150.003 138.09C150.818 137.691 151.711 137.492 152.681 137.492ZM168.584 152.234C167.249 152.234 166.036 151.931 164.944 151.324C163.869 150.717 163.02 149.859 162.396 148.75C161.789 147.623 161.486 146.323 161.486 144.85C161.486 143.394 161.798 142.111 162.422 141.002C163.063 139.875 163.93 139.017 165.022 138.428C166.114 137.821 167.336 137.518 168.688 137.518C170.04 137.518 171.262 137.821 172.354 138.428C173.446 139.017 174.304 139.867 174.928 140.976C175.569 142.085 175.89 143.377 175.89 144.85C175.89 146.323 175.561 147.623 174.902 148.75C174.261 149.859 173.385 150.717 172.276 151.324C171.167 151.931 169.936 152.234 168.584 152.234ZM168.584 150.154C169.433 150.154 170.231 149.955 170.976 149.556C171.721 149.157 172.319 148.559 172.77 147.762C173.238 146.965 173.472 145.994 173.472 144.85C173.472 143.706 173.247 142.735 172.796 141.938C172.345 141.141 171.756 140.551 171.028 140.17C170.3 139.771 169.511 139.572 168.662 139.572C167.795 139.572 166.998 139.771 166.27 140.17C165.559 140.551 164.987 141.141 164.554 141.938C164.121 142.735 163.904 143.706 163.904 144.85C163.904 146.011 164.112 146.991 164.528 147.788C164.961 148.585 165.533 149.183 166.244 149.582C166.955 149.963 167.735 150.154 168.584 150.154ZM182.069 133.878L181.783 146.878H179.807L179.521 133.878H182.069ZM180.899 152.156C180.448 152.156 180.067 152 179.755 151.688C179.443 151.376 179.287 150.995 179.287 150.544C179.287 150.093 179.443 149.712 179.755 149.4C180.067 149.088 180.448 148.932 180.899 148.932C181.332 148.932 181.696 149.088 181.991 149.4C182.303 149.712 182.459 150.093 182.459 150.544C182.459 150.995 182.303 151.376 181.991 151.688C181.696 152 181.332 152.156 180.899 152.156Z" fill="white"/>
<defs>
<filter id="filter0_i_938_858" x="15" y="595" width="331" height="26" filterUnits="userSpaceOnUse" color-interpolation-filters="sRGB">
<feFlood flood-opacity="0" result="BackgroundImageFix"/>
<feBlend mode="normal" in="SourceGraphic" in2="BackgroundImageFix" result="shape"/>
<feColorMatrix in="SourceAlpha" type="matrix" values="0 0 0 0 0 0 0 0 0 0 0 0 0 0 0 0 0 0 127 0" result="hardAlpha"/>
<feOffset dy="4"/>
<feGaussianBlur stdDeviation="2"/>
<feComposite in2="hardAlpha" operator="arithmetic" k2="-1" k3="1"/>
<feColorMatrix type="matrix" values="0 0 0 0 0 0 0 0 0 0 0 0 0 0 0 0 0 0 0.25 0"/>
<feBlend mode="normal" in2="shape" result="effect1_innerShadow_938_858"/>
</filter>
<filter id="filter1_d_938_858" x="0" y="0" width="260" height="235" filterUnits="userSpaceOnUse" color-interpolation-filters="sRGB">
<feFlood flood-opacity="0" result="BackgroundImageFix"/>
<feColorMatrix in="SourceAlpha" type="matrix" values="0 0 0 0 0 0 0 0 0 0 0 0 0 0 0 0 0 0 127 0" result="hardAlpha"/>
<feOffset dy="4"/>
<feGaussianBlur stdDeviation="2"/>
<feComposite in2="hardAlpha" operator="out"/>
<feColorMatrix type="matrix" values="0 0 0 0 0 0 0 0 0 0 0 0 0 0 0 0 0 0 0.25 0"/>
<feBlend mode="normal" in2="BackgroundImageFix" result="effect1_dropShadow_938_858"/>
<feBlend mode="normal" in="SourceGraphic" in2="effect1_dropShadow_938_858" result="shape"/>
</filter>
<linearGradient id="paint0_linear_938_858" x1="228.953" y1="259.803" x2="228.953" y2="299.406" gradientUnits="userSpaceOnUse">
<stop stop-color="#003760"/>
<stop offset="1" stop-color="#121637"/>
</linearGradient>
</defs>
</svg>
