<svg width="428" height="450" viewBox="0 0 428 450" fill="none" xmlns="http://www.w3.org/2000/svg">
<rect width="428" height="450" fill="#003760"/>
<path d="M137.167 206.848C137.467 206.848 137.719 206.956 137.923 207.172C138.139 207.388 138.247 207.652 138.247 207.964C138.247 208.276 138.139 208.54 137.923 208.756C137.719 208.972 137.467 209.08 137.167 209.08C136.855 209.08 136.591 208.972 136.375 208.756C136.159 208.54 136.051 208.276 136.051 207.964C136.051 207.652 136.159 207.388 136.375 207.172C136.591 206.956 136.855 206.848 137.167 206.848ZM136.411 210.502H137.779L137.977 219.502H136.213L136.411 210.502ZM148.936 204.454V205.786H145.516V217H143.878V205.786H140.44V204.454H148.936ZM159.7 207.136V217H158.062V215.542C157.75 216.046 157.312 216.442 156.748 216.73C156.196 217.006 155.584 217.144 154.912 217.144C154.144 217.144 153.454 216.988 152.842 216.676C152.23 216.352 151.744 215.872 151.384 215.236C151.036 214.6 150.862 213.826 150.862 212.914V207.136H152.482V212.698C152.482 213.67 152.728 214.42 153.22 214.948C153.712 215.464 154.384 215.722 155.236 215.722C156.112 215.722 156.802 215.452 157.306 214.912C157.81 214.372 158.062 213.586 158.062 212.554V207.136H159.7ZM171.567 217.162C170.643 217.162 169.803 216.952 169.047 216.532C168.303 216.112 167.715 215.518 167.283 214.75C166.863 213.97 166.653 213.07 166.653 212.05C166.653 211.042 166.869 210.154 167.301 209.386C167.745 208.606 168.345 208.012 169.101 207.604C169.857 207.184 170.703 206.974 171.639 206.974C172.575 206.974 173.421 207.184 174.177 207.604C174.933 208.012 175.527 208.6 175.959 209.368C176.403 210.136 176.625 211.03 176.625 212.05C176.625 213.07 176.397 213.97 175.941 214.75C175.497 215.518 174.891 216.112 174.123 216.532C173.355 216.952 172.503 217.162 171.567 217.162ZM171.567 215.722C172.155 215.722 172.707 215.584 173.223 215.308C173.739 215.032 174.153 214.618 174.465 214.066C174.789 213.514 174.951 212.842 174.951 212.05C174.951 211.258 174.795 210.586 174.483 210.034C174.171 209.482 173.763 209.074 173.259 208.81C172.755 208.534 172.209 208.396 171.621 208.396C171.021 208.396 170.469 208.534 169.965 208.81C169.473 209.074 169.077 209.482 168.777 210.034C168.477 210.586 168.327 211.258 168.327 212.05C168.327 212.854 168.471 213.532 168.759 214.084C169.059 214.636 169.455 215.05 169.947 215.326C170.439 215.59 170.979 215.722 171.567 215.722ZM180.417 208.738C180.705 208.174 181.113 207.736 181.641 207.424C182.181 207.112 182.835 206.956 183.603 206.956V208.648H183.171C181.335 208.648 180.417 209.644 180.417 211.636V217H178.779V207.136H180.417V208.738ZM184.881 212.032C184.881 211.024 185.085 210.142 185.493 209.386C185.901 208.618 186.459 208.024 187.167 207.604C187.887 207.184 188.691 206.974 189.579 206.974C190.347 206.974 191.061 207.154 191.721 207.514C192.381 207.862 192.885 208.324 193.233 208.9V203.68H194.889V217H193.233V215.146C192.909 215.734 192.429 216.22 191.793 216.604C191.157 216.976 190.413 217.162 189.561 217.162C188.685 217.162 187.887 216.946 187.167 216.514C186.459 216.082 185.901 215.476 185.493 214.696C185.085 213.916 184.881 213.028 184.881 212.032ZM193.233 212.05C193.233 211.306 193.083 210.658 192.783 210.106C192.483 209.554 192.075 209.134 191.559 208.846C191.055 208.546 190.497 208.396 189.885 208.396C189.273 208.396 188.715 208.54 188.211 208.828C187.707 209.116 187.305 209.536 187.005 210.088C186.705 210.64 186.555 211.288 186.555 212.032C186.555 212.788 186.705 213.448 187.005 214.012C187.305 214.564 187.707 214.99 188.211 215.29C188.715 215.578 189.273 215.722 189.885 215.722C190.497 215.722 191.055 215.578 191.559 215.29C192.075 214.99 192.483 214.564 192.783 214.012C193.083 213.448 193.233 212.794 193.233 212.05ZM206.657 211.69C206.657 212.002 206.639 212.332 206.603 212.68H198.719C198.779 213.652 199.109 214.414 199.709 214.966C200.321 215.506 201.059 215.776 201.923 215.776C202.631 215.776 203.219 215.614 203.687 215.29C204.167 214.954 204.503 214.51 204.695 213.958H206.459C206.195 214.906 205.667 215.68 204.875 216.28C204.083 216.868 203.099 217.162 201.923 217.162C200.987 217.162 200.147 216.952 199.403 216.532C198.671 216.112 198.095 215.518 197.675 214.75C197.255 213.97 197.045 213.07 197.045 212.05C197.045 211.03 197.249 210.136 197.657 209.368C198.065 208.6 198.635 208.012 199.367 207.604C200.111 207.184 200.963 206.974 201.923 206.974C202.859 206.974 203.687 207.178 204.407 207.586C205.127 207.994 205.679 208.558 206.063 209.278C206.459 209.986 206.657 210.79 206.657 211.69ZM204.965 211.348C204.965 210.724 204.827 210.19 204.551 209.746C204.275 209.29 203.897 208.948 203.417 208.72C202.949 208.48 202.427 208.36 201.851 208.36C201.023 208.36 200.315 208.624 199.727 209.152C199.151 209.68 198.821 210.412 198.737 211.348H204.965ZM213.626 206.956C214.826 206.956 215.798 207.322 216.542 208.054C217.286 208.774 217.658 209.818 217.658 211.186V217H216.038V211.42C216.038 210.436 215.792 209.686 215.3 209.17C214.808 208.642 214.136 208.378 213.284 208.378C212.42 208.378 211.73 208.648 211.214 209.188C210.71 209.728 210.458 210.514 210.458 211.546V217H208.82V207.136H210.458V208.54C210.782 208.036 211.22 207.646 211.772 207.37C212.336 207.094 212.954 206.956 213.626 206.956ZM230.028 206.956C230.772 206.956 231.444 207.118 232.044 207.442C232.644 207.754 233.112 208.228 233.448 208.864C233.796 209.5 233.97 210.274 233.97 211.186V217H232.35V211.42C232.35 210.436 232.104 209.686 231.612 209.17C231.12 208.642 230.448 208.378 229.596 208.378C228.732 208.378 228.042 208.648 227.526 209.188C227.022 209.728 226.77 210.514 226.77 211.546V217H225.132V203.68H226.77V208.54C227.094 208.036 227.538 207.646 228.102 207.37C228.678 207.094 229.32 206.956 230.028 206.956ZM236.034 212.032C236.034 211.024 236.238 210.142 236.646 209.386C237.054 208.618 237.612 208.024 238.32 207.604C239.04 207.184 239.838 206.974 240.714 206.974C241.578 206.974 242.328 207.16 242.964 207.532C243.6 207.904 244.074 208.372 244.386 208.936V207.136H246.042V217H244.386V215.164C244.062 215.74 243.576 216.22 242.928 216.604C242.292 216.976 241.548 217.162 240.696 217.162C239.82 217.162 239.028 216.946 238.32 216.514C237.612 216.082 237.054 215.476 236.646 214.696C236.238 213.916 236.034 213.028 236.034 212.032ZM244.386 212.05C244.386 211.306 244.236 210.658 243.936 210.106C243.636 209.554 243.228 209.134 242.712 208.846C242.208 208.546 241.65 208.396 241.038 208.396C240.426 208.396 239.868 208.54 239.364 208.828C238.86 209.116 238.458 209.536 238.158 210.088C237.858 210.64 237.708 211.288 237.708 212.032C237.708 212.788 237.858 213.448 238.158 214.012C238.458 214.564 238.86 214.99 239.364 215.29C239.868 215.578 240.426 215.722 241.038 215.722C241.65 215.722 242.208 215.578 242.712 215.29C243.228 214.99 243.636 214.564 243.936 214.012C244.236 213.448 244.386 212.794 244.386 212.05ZM257.101 217.162C256.345 217.162 255.667 217.036 255.067 216.784C254.467 216.52 253.993 216.16 253.645 215.704C253.297 215.236 253.105 214.702 253.069 214.102H254.761C254.809 214.594 255.037 214.996 255.445 215.308C255.865 215.62 256.411 215.776 257.083 215.776C257.707 215.776 258.199 215.638 258.559 215.362C258.919 215.086 259.099 214.738 259.099 214.318C259.099 213.886 258.907 213.568 258.523 213.364C258.139 213.148 257.545 212.938 256.741 212.734C256.009 212.542 255.409 212.35 254.941 212.158C254.485 211.954 254.089 211.66 253.753 211.276C253.429 210.88 253.267 210.364 253.267 209.728C253.267 209.224 253.417 208.762 253.717 208.342C254.017 207.922 254.443 207.592 254.995 207.352C255.547 207.1 256.177 206.974 256.885 206.974C257.977 206.974 258.859 207.25 259.531 207.802C260.203 208.354 260.563 209.11 260.611 210.07H258.973C258.937 209.554 258.727 209.14 258.343 208.828C257.971 208.516 257.467 208.36 256.831 208.36C256.243 208.36 255.775 208.486 255.427 208.738C255.079 208.99 254.905 209.32 254.905 209.728C254.905 210.052 255.007 210.322 255.211 210.538C255.427 210.742 255.691 210.91 256.003 211.042C256.327 211.162 256.771 211.3 257.335 211.456C258.043 211.648 258.619 211.84 259.063 212.032C259.507 212.212 259.885 212.488 260.197 212.86C260.521 213.232 260.689 213.718 260.701 214.318C260.701 214.858 260.551 215.344 260.251 215.776C259.951 216.208 259.525 216.55 258.973 216.802C258.433 217.042 257.809 217.162 257.101 217.162ZM263.859 205.534C263.547 205.534 263.283 205.426 263.067 205.21C262.851 204.994 262.743 204.73 262.743 204.418C262.743 204.106 262.851 203.842 263.067 203.626C263.283 203.41 263.547 203.302 263.859 203.302C264.159 203.302 264.411 203.41 264.615 203.626C264.831 203.842 264.939 204.106 264.939 204.418C264.939 204.73 264.831 204.994 264.615 205.21C264.411 205.426 264.159 205.534 263.859 205.534ZM264.651 207.136V217H263.013V207.136H264.651ZM266.831 212.032C266.831 211.024 267.035 210.142 267.443 209.386C267.851 208.618 268.409 208.024 269.117 207.604C269.837 207.184 270.641 206.974 271.529 206.974C272.297 206.974 273.011 207.154 273.671 207.514C274.331 207.862 274.835 208.324 275.183 208.9V203.68H276.839V217H275.183V215.146C274.859 215.734 274.379 216.22 273.743 216.604C273.107 216.976 272.363 217.162 271.511 217.162C270.635 217.162 269.837 216.946 269.117 216.514C268.409 216.082 267.851 215.476 267.443 214.696C267.035 213.916 266.831 213.028 266.831 212.032ZM275.183 212.05C275.183 211.306 275.033 210.658 274.733 210.106C274.433 209.554 274.025 209.134 273.509 208.846C273.005 208.546 272.447 208.396 271.835 208.396C271.223 208.396 270.665 208.54 270.161 208.828C269.657 209.116 269.255 209.536 268.955 210.088C268.655 210.64 268.505 211.288 268.505 212.032C268.505 212.788 268.655 213.448 268.955 214.012C269.255 214.564 269.657 214.99 270.161 215.29C270.665 215.578 271.223 215.722 271.835 215.722C272.447 215.722 273.005 215.578 273.509 215.29C274.025 214.99 274.433 214.564 274.733 214.012C275.033 213.448 275.183 212.794 275.183 212.05ZM283.909 217.162C282.985 217.162 282.145 216.952 281.389 216.532C280.645 216.112 280.057 215.518 279.625 214.75C279.205 213.97 278.995 213.07 278.995 212.05C278.995 211.042 279.211 210.154 279.643 209.386C280.087 208.606 280.687 208.012 281.443 207.604C282.199 207.184 283.045 206.974 283.981 206.974C284.917 206.974 285.763 207.184 286.519 207.604C287.275 208.012 287.869 208.6 288.301 209.368C288.745 210.136 288.967 211.03 288.967 212.05C288.967 213.07 288.739 213.97 288.283 214.75C287.839 215.518 287.233 216.112 286.465 216.532C285.697 216.952 284.845 217.162 283.909 217.162ZM283.909 215.722C284.497 215.722 285.049 215.584 285.565 215.308C286.081 215.032 286.495 214.618 286.807 214.066C287.131 213.514 287.293 212.842 287.293 212.05C287.293 211.258 287.137 210.586 286.825 210.034C286.513 209.482 286.105 209.074 285.601 208.81C285.097 208.534 284.551 208.396 283.963 208.396C283.363 208.396 282.811 208.534 282.307 208.81C281.815 209.074 281.419 209.482 281.119 210.034C280.819 210.586 280.669 211.258 280.669 212.05C280.669 212.854 280.813 213.532 281.101 214.084C281.401 214.636 281.797 215.05 282.289 215.326C282.781 215.59 283.321 215.722 283.909 215.722ZM174.323 238.69C174.323 239.002 174.305 239.332 174.269 239.68H166.385C166.445 240.652 166.775 241.414 167.375 241.966C167.987 242.506 168.725 242.776 169.589 242.776C170.297 242.776 170.885 242.614 171.353 242.29C171.833 241.954 172.169 241.51 172.361 240.958H174.125C173.861 241.906 173.333 242.68 172.541 243.28C171.749 243.868 170.765 244.162 169.589 244.162C168.653 244.162 167.813 243.952 167.069 243.532C166.337 243.112 165.761 242.518 165.341 241.75C164.921 240.97 164.711 240.07 164.711 239.05C164.711 238.03 164.915 237.136 165.323 236.368C165.731 235.6 166.301 235.012 167.033 234.604C167.777 234.184 168.629 233.974 169.589 233.974C170.525 233.974 171.353 234.178 172.073 234.586C172.793 234.994 173.345 235.558 173.729 236.278C174.125 236.986 174.323 237.79 174.323 238.69ZM172.631 238.348C172.631 237.724 172.493 237.19 172.217 236.746C171.941 236.29 171.563 235.948 171.083 235.72C170.615 235.48 170.093 235.36 169.517 235.36C168.689 235.36 167.981 235.624 167.393 236.152C166.817 236.68 166.487 237.412 166.403 238.348H172.631ZM181.291 233.956C182.491 233.956 183.463 234.322 184.207 235.054C184.951 235.774 185.323 236.818 185.323 238.186V244H183.703V238.42C183.703 237.436 183.457 236.686 182.965 236.17C182.473 235.642 181.801 235.378 180.949 235.378C180.085 235.378 179.395 235.648 178.879 236.188C178.375 236.728 178.123 237.514 178.123 238.546V244H176.485V234.136H178.123V235.54C178.447 235.036 178.885 234.646 179.437 234.37C180.001 234.094 180.619 233.956 181.291 233.956ZM189.996 235.486V241.3C189.996 241.78 190.098 242.122 190.302 242.326C190.506 242.518 190.86 242.614 191.364 242.614H192.57V244H191.094C190.182 244 189.498 243.79 189.042 243.37C188.586 242.95 188.358 242.26 188.358 241.3V235.486H187.08V234.136H188.358V231.652H189.996V234.136H192.57V235.486H189.996ZM196.193 235.738C196.481 235.174 196.889 234.736 197.417 234.424C197.957 234.112 198.611 233.956 199.379 233.956V235.648H198.947C197.111 235.648 196.193 236.644 196.193 238.636V244H194.555V234.136H196.193V235.738ZM210.27 238.69C210.27 239.002 210.252 239.332 210.216 239.68H202.332C202.392 240.652 202.722 241.414 203.322 241.966C203.934 242.506 204.672 242.776 205.536 242.776C206.244 242.776 206.832 242.614 207.3 242.29C207.78 241.954 208.116 241.51 208.308 240.958H210.072C209.808 241.906 209.28 242.68 208.488 243.28C207.696 243.868 206.712 244.162 205.536 244.162C204.6 244.162 203.76 243.952 203.016 243.532C202.284 243.112 201.708 242.518 201.288 241.75C200.868 240.97 200.658 240.07 200.658 239.05C200.658 238.03 200.862 237.136 201.27 236.368C201.678 235.6 202.248 235.012 202.98 234.604C203.724 234.184 204.576 233.974 205.536 233.974C206.472 233.974 207.3 234.178 208.02 234.586C208.74 234.994 209.292 235.558 209.676 236.278C210.072 236.986 210.27 237.79 210.27 238.69ZM208.578 238.348C208.578 237.724 208.44 237.19 208.164 236.746C207.888 236.29 207.51 235.948 207.03 235.72C206.562 235.48 206.04 235.36 205.464 235.36C204.636 235.36 203.928 235.624 203.34 236.152C202.764 236.68 202.434 237.412 202.35 238.348H208.578ZM216.5 233.974C217.352 233.974 218.096 234.16 218.732 234.532C219.38 234.904 219.86 235.372 220.172 235.936V234.136H221.828V244.216C221.828 245.116 221.636 245.914 221.252 246.61C220.868 247.318 220.316 247.87 219.596 248.266C218.888 248.662 218.06 248.86 217.112 248.86C215.816 248.86 214.736 248.554 213.872 247.942C213.008 247.33 212.498 246.496 212.342 245.44H213.962C214.142 246.04 214.514 246.52 215.078 246.88C215.642 247.252 216.32 247.438 217.112 247.438C218.012 247.438 218.744 247.156 219.308 246.592C219.884 246.028 220.172 245.236 220.172 244.216V242.146C219.848 242.722 219.368 243.202 218.732 243.586C218.096 243.97 217.352 244.162 216.5 244.162C215.624 244.162 214.826 243.946 214.106 243.514C213.398 243.082 212.84 242.476 212.432 241.696C212.024 240.916 211.82 240.028 211.82 239.032C211.82 238.024 212.024 237.142 212.432 236.386C212.84 235.618 213.398 235.024 214.106 234.604C214.826 234.184 215.624 233.974 216.5 233.974ZM220.172 239.05C220.172 238.306 220.022 237.658 219.722 237.106C219.422 236.554 219.014 236.134 218.498 235.846C217.994 235.546 217.436 235.396 216.824 235.396C216.212 235.396 215.654 235.54 215.15 235.828C214.646 236.116 214.244 236.536 213.944 237.088C213.644 237.64 213.494 238.288 213.494 239.032C213.494 239.788 213.644 240.448 213.944 241.012C214.244 241.564 214.646 241.99 215.15 242.29C215.654 242.578 216.212 242.722 216.824 242.722C217.436 242.722 217.994 242.578 218.498 242.29C219.014 241.99 219.422 241.564 219.722 241.012C220.022 240.448 220.172 239.794 220.172 239.05ZM223.984 239.032C223.984 238.024 224.188 237.142 224.596 236.386C225.004 235.618 225.562 235.024 226.27 234.604C226.99 234.184 227.788 233.974 228.664 233.974C229.528 233.974 230.278 234.16 230.914 234.532C231.55 234.904 232.024 235.372 232.336 235.936V234.136H233.992V244H232.336V242.164C232.012 242.74 231.526 243.22 230.878 243.604C230.242 243.976 229.498 244.162 228.646 244.162C227.77 244.162 226.978 243.946 226.27 243.514C225.562 243.082 225.004 242.476 224.596 241.696C224.188 240.916 223.984 240.028 223.984 239.032ZM232.336 239.05C232.336 238.306 232.186 237.658 231.886 237.106C231.586 236.554 231.178 236.134 230.662 235.846C230.158 235.546 229.6 235.396 228.988 235.396C228.376 235.396 227.818 235.54 227.314 235.828C226.81 236.116 226.408 236.536 226.108 237.088C225.808 237.64 225.658 238.288 225.658 239.032C225.658 239.788 225.808 240.448 226.108 241.012C226.408 241.564 226.81 241.99 227.314 242.29C227.818 242.578 228.376 242.722 228.988 242.722C229.6 242.722 230.158 242.578 230.662 242.29C231.178 241.99 231.586 241.564 231.886 241.012C232.186 240.448 232.336 239.794 232.336 239.05ZM236.148 239.032C236.148 238.024 236.352 237.142 236.76 236.386C237.168 235.618 237.726 235.024 238.434 234.604C239.154 234.184 239.958 233.974 240.846 233.974C241.614 233.974 242.328 234.154 242.988 234.514C243.648 234.862 244.152 235.324 244.5 235.9V230.68H246.156V244H244.5V242.146C244.176 242.734 243.696 243.22 243.06 243.604C242.424 243.976 241.68 244.162 240.828 244.162C239.952 244.162 239.154 243.946 238.434 243.514C237.726 243.082 237.168 242.476 236.76 241.696C236.352 240.916 236.148 240.028 236.148 239.032ZM244.5 239.05C244.5 238.306 244.35 237.658 244.05 237.106C243.75 236.554 243.342 236.134 242.826 235.846C242.322 235.546 241.764 235.396 241.152 235.396C240.54 235.396 239.982 235.54 239.478 235.828C238.974 236.116 238.572 236.536 238.272 237.088C237.972 237.64 237.822 238.288 237.822 239.032C237.822 239.788 237.972 240.448 238.272 241.012C238.572 241.564 238.974 241.99 239.478 242.29C239.982 242.578 240.54 242.722 241.152 242.722C241.764 242.722 242.322 242.578 242.826 242.29C243.342 241.99 243.75 241.564 244.05 241.012C244.35 240.448 244.5 239.794 244.5 239.05ZM248.312 239.032C248.312 238.024 248.516 237.142 248.924 236.386C249.332 235.618 249.89 235.024 250.598 234.604C251.318 234.184 252.116 233.974 252.992 233.974C253.856 233.974 254.606 234.16 255.242 234.532C255.878 234.904 256.352 235.372 256.664 235.936V234.136H258.32V244H256.664V242.164C256.34 242.74 255.854 243.22 255.206 243.604C254.57 243.976 253.826 244.162 252.974 244.162C252.098 244.162 251.306 243.946 250.598 243.514C249.89 243.082 249.332 242.476 248.924 241.696C248.516 240.916 248.312 240.028 248.312 239.032ZM256.664 239.05C256.664 238.306 256.514 237.658 256.214 237.106C255.914 236.554 255.506 236.134 254.99 235.846C254.486 235.546 253.928 235.396 253.316 235.396C252.704 235.396 252.146 235.54 251.642 235.828C251.138 236.116 250.736 236.536 250.436 237.088C250.136 237.64 249.986 238.288 249.986 239.032C249.986 239.788 250.136 240.448 250.436 241.012C250.736 241.564 251.138 241.99 251.642 242.29C252.146 242.578 252.704 242.722 253.316 242.722C253.928 242.722 254.486 242.578 254.99 242.29C255.506 241.99 255.914 241.564 256.214 241.012C256.514 240.448 256.664 239.794 256.664 239.05ZM263.212 231.454L263.014 240.454H261.646L261.448 231.454H263.212ZM262.402 244.108C262.09 244.108 261.826 244 261.61 243.784C261.394 243.568 261.286 243.304 261.286 242.992C261.286 242.68 261.394 242.416 261.61 242.2C261.826 241.984 262.09 241.876 262.402 241.876C262.702 241.876 262.954 241.984 263.158 242.2C263.374 242.416 263.482 242.68 263.482 242.992C263.482 243.304 263.374 243.568 263.158 243.784C262.954 244 262.702 244.108 262.402 244.108Z" fill="white"/>
<g clip-path="url(#clip0_983_1509)">
<path d="M206.201 159.307C241.894 159.307 270.829 130.376 270.829 94.6872C270.829 58.9989 241.894 30.0677 206.201 30.0677C170.509 30.0677 141.574 58.9989 141.574 94.6872C141.574 130.376 170.509 159.307 206.201 159.307Z" fill="white"/>
<path d="M208.64 137.022C208.166 138.715 212.705 139.934 214.873 143.998C218.057 150.027 212.366 155.513 215.076 158.9C218.598 163.506 233.57 160.052 234.654 154.904C234.925 153.414 234.179 151.923 232.621 149.282C230.25 145.15 228.828 145.014 227.812 142.779C225.508 137.496 231.063 132.145 229.302 130.451C227.744 128.961 223.815 133.499 214.602 135.261C211.35 135.802 208.979 135.802 208.64 137.022Z" fill="#15385C"/>
<path d="M221.193 135.387C246.35 126.184 261.575 104.597 255.198 87.1722C248.822 69.7473 223.26 63.0823 198.103 72.2856C172.946 81.4889 157.721 103.075 164.098 120.5C170.474 137.925 196.037 144.59 221.193 135.387Z" fill="#15385C"/>
<path d="M161.007 134.296C169.931 131.032 174.894 122.176 172.092 114.518C169.289 106.859 159.783 103.298 150.858 106.562C141.934 109.827 136.971 118.682 139.774 126.341C142.576 134 152.083 137.561 161.007 134.296Z" fill="#15385C"/>
<path d="M268.381 97.9776C277.306 94.7128 282.268 85.8576 279.466 78.1991C276.663 70.5405 267.157 66.9787 258.233 70.2436C249.308 73.5084 244.346 82.3636 247.148 90.0222C249.95 97.6807 259.457 101.242 268.381 97.9776Z" fill="#15385C"/>
<path d="M161.491 115.55C161.287 114.94 159.729 114.805 158.713 115.076C157.02 115.414 155.394 116.972 154.987 119.004C154.581 121.104 155.462 123.813 157.697 124.626C160.339 125.574 162.846 123.271 162.913 123.001C162.913 123.001 162.981 122.73 163.184 122.662H163.252C163.388 122.526 162.71 121.646 162.507 121.307C161.829 120.291 160.746 117.988 161.355 116.295C161.491 115.956 161.626 115.753 161.491 115.55Z" fill="white"/>
<path d="M252.606 83.9173C252.402 83.3077 253.486 82.2239 254.435 81.7498C255.925 80.9369 258.228 81.0724 259.786 82.3594C261.412 83.6464 262.496 86.288 261.345 88.3878C259.99 90.8263 256.535 90.6908 256.264 90.4876C256.264 90.4876 255.993 90.2844 255.857 90.3521H255.79C255.654 90.3521 255.519 89.2684 255.519 88.7942C255.383 87.5073 254.706 85.0688 253.148 84.256C252.877 84.256 252.673 84.1882 252.606 83.9173Z" fill="white"/>
<path d="M241.631 87.7782C238.379 78.9049 227.879 74.5698 218.124 78.1598C212.163 80.3273 207.895 84.9333 206.201 90.2167C201.527 87.4395 195.43 86.6944 189.604 88.862C179.849 92.4519 174.633 102.477 177.885 111.35C180.798 119.343 189.604 123.61 198.411 121.781C200.917 128.555 210.74 131.197 220.292 127.674C229.911 124.152 235.67 115.753 233.163 108.979C233.163 108.912 233.095 108.844 233.095 108.776C240.75 104.373 244.544 95.6355 241.631 87.7782Z" fill="white"/>
<path d="M209.453 106.405C209.25 106.473 208.979 106.405 208.843 106.202C208.098 105.322 208.03 104.17 208.64 103.425C209.047 102.883 209.792 102.612 210.469 102.748C210.808 102.815 211.011 102.951 211.214 103.086C211.282 102.748 211.35 102.409 211.621 102.138C212.163 101.461 213.382 101.19 214.33 101.732C215.211 102.274 215.55 103.425 215.143 104.441C215.008 104.78 214.669 104.915 214.33 104.78C213.992 104.644 213.856 104.306 213.992 103.967C214.195 103.493 214.06 103.019 213.653 102.815C213.247 102.544 212.772 102.748 212.569 102.951C212.366 103.222 212.434 103.764 212.501 104.17C212.569 104.577 212.637 105.186 212.095 105.389C211.553 105.593 211.214 105.118 211.011 104.78C210.808 104.441 210.537 104.035 210.198 103.967C209.995 103.899 209.724 104.035 209.588 104.17C209.385 104.441 209.385 104.915 209.792 105.389C209.995 105.66 209.995 106.067 209.724 106.27C209.656 106.338 209.521 106.338 209.453 106.405Z" fill="#15385C"/>
<path opacity="0.82" d="M198.889 124.659C201.349 123.759 202.738 121.378 201.993 119.34C201.247 117.303 198.649 116.38 196.189 117.28C193.73 118.18 192.341 120.561 193.086 122.599C193.832 124.636 196.43 125.559 198.889 124.659Z" fill="#F07F12"/>
<path opacity="0.82" d="M234.85 110.031C237.309 109.131 238.698 106.75 237.953 104.712C237.207 102.675 234.609 101.752 232.15 102.652C229.69 103.552 228.301 105.933 229.046 107.971C229.792 110.008 232.39 110.931 234.85 110.031Z" fill="#F07F12"/>
<path d="M277.196 152.262C273.538 153.075 268.458 152.804 261.954 149.553C257.144 147.182 254.706 144.202 252.741 141.831C250.912 139.596 249.693 138.106 247.118 137.699C242.783 137.022 237.567 140.002 235.128 144.405C233.705 147.047 233.57 149.688 233.637 151.449C233.705 152.669 232.825 153.685 231.605 153.752C230.386 153.82 229.37 152.94 229.302 151.72C229.031 148.334 229.776 145.082 231.266 142.305C234.586 136.277 241.631 132.483 247.728 133.432C251.86 134.041 253.961 136.615 255.993 139.054C257.89 141.357 259.786 143.66 263.783 145.624C271.506 149.417 276.384 148.401 279.093 146.843C285.055 143.457 285.529 135.396 285.597 134.516C285.664 133.161 285.664 126.32 281.329 122.797C280.584 122.188 279.161 121.036 277.535 121.239C276.587 121.375 275.3 121.917 274.825 122.865C274.622 123.339 274.622 123.881 274.69 124.694C274.758 125.913 275.164 126.997 275.774 128.081C276.384 129.097 276.113 130.451 275.096 131.061C274.08 131.671 272.725 131.4 272.116 130.384C271.1 128.758 270.49 126.861 270.354 125.033C270.287 124.017 270.219 122.594 270.896 121.104C272.116 118.462 274.961 117.243 276.993 116.972C280.448 116.566 282.955 118.598 283.971 119.478C289.797 124.152 289.932 132.28 289.865 134.719C289.797 135.87 289.187 146.166 281.193 150.704C280.177 151.382 278.822 151.924 277.196 152.262Z" fill="#15385C"/>
<path d="M204.305 116.972C205.863 117.717 207.353 118.53 208.979 119.14C211.147 119.952 213.45 119.885 215.686 119.207C217.921 118.598 219.344 117.04 219.479 114.737C219.615 113.111 219.344 111.418 219.208 109.792C219.005 107.218 220.428 105.254 222.731 104.983C224.695 104.78 226.389 105.999 227.066 108.099C228.015 111.147 226.795 113.653 224.695 115.685C221.782 118.462 218.395 120.359 214.398 120.901C210.876 121.443 207.76 120.291 205.05 118.124C204.711 117.853 204.44 117.446 204.169 117.04C204.169 117.04 204.237 116.972 204.305 116.972ZM222.595 115.279C225.034 113.924 226.254 111.079 225.644 108.641C225.237 107.15 224.289 106.338 222.866 106.473C221.512 106.609 220.631 107.557 220.631 109.183C220.699 110.876 220.902 112.569 221.037 114.263C221.037 114.534 221.173 114.805 221.241 115.076C221.308 115.076 221.444 115.076 221.512 115.143C222.053 113.992 222.595 112.84 223.137 111.756C223.205 111.756 223.205 111.756 223.273 111.824C223.137 112.908 222.866 113.992 222.595 115.279Z" fill="#15385C"/>
<path d="M219.75 99.6996H219.682C219.208 99.7673 218.734 99.4287 218.666 98.8868C218.531 97.5998 218.463 95.1613 220.089 92.9261C220.563 92.2487 221.715 90.6908 223.476 90.4199C225.847 90.0812 228.489 92.2487 229.708 95.5678C229.912 96.0419 229.641 96.5838 229.167 96.7193C228.692 96.9225 228.15 96.6515 228.015 96.1774C226.999 93.4002 225.102 92.0455 223.815 92.2487C222.799 92.3842 222.053 93.468 221.647 94.0098C220.428 95.771 220.428 97.6675 220.563 98.6836C220.495 99.1577 220.224 99.5641 219.75 99.6996Z" fill="#15385C"/>
<path d="M194.279 108.37H194.211C193.737 108.437 193.262 108.099 193.195 107.557C193.059 106.27 192.991 103.831 194.617 101.596C195.091 100.919 196.243 99.3609 198.004 99.09C200.375 98.7513 203.017 100.919 204.237 104.238C204.44 104.712 204.169 105.254 203.695 105.389C203.221 105.593 202.679 105.322 202.543 104.847C201.527 102.07 199.63 100.716 198.343 100.919C197.327 101.054 196.582 102.138 196.175 102.68C194.956 104.441 194.956 106.338 195.091 107.354C195.024 107.828 194.753 108.302 194.279 108.37Z" fill="#15385C"/>
<path d="M210.943 160.119C246.599 160.119 275.503 131.219 275.503 95.5678C275.503 59.9168 246.599 31.0161 210.943 31.0161C175.288 31.0161 146.384 59.9168 146.384 95.5678C146.384 131.219 175.288 160.119 210.943 160.119Z" stroke="#F07F12" stroke-miterlimit="10"/>
<path d="M203.085 74.7053C203.83 74.0957 205.863 72.1314 206.472 68.8801C206.608 68.135 207.285 64.4773 204.914 61.0905C204.643 60.6841 201.392 56.2136 197.056 57.0264C195.159 57.3651 192.856 58.7875 192.382 61.1582C191.975 62.9871 192.924 64.6127 193.398 65.4256C193.533 65.6965 194.008 66.5093 194.279 66.4416C194.753 66.3061 193.94 64.1386 194.956 62.8516C195.701 61.9711 197.192 61.7001 198.208 62.1065C200.105 62.9194 200.172 65.8997 200.037 67.3221C199.63 70.7089 196.582 72.6055 195.972 72.9442" fill="#15385C"/>
</g>
<g clip-path="url(#clip1_983_1509)">
<path d="M118.8 299.8C118.8 301.3 117.6 302.4 116.2 302.4C114.7 302.4 113.6 301.3 113.6 299.8C113.6 298.3 114.7 297.2 116.2 297.2C117.7 297.1 118.8 298.3 118.8 299.8ZM117.6 304.9C118 304.9 118.2 305.1 118.2 305.5V330.6C118.2 331 118 331.3 117.6 331.3H114.8C114.4 331.3 114.1 331.1 114.1 330.6V305.5C114.1 305.1 114.3 304.9 114.8 304.9H117.6Z" fill="#F07F12"/>
<path d="M124.4 319.9V289.8C124.4 288.6 125.1 287.9 126.4 287.9H132.6C137.6 287.9 140.8 291.5 140.8 296.6V313.1C140.8 318.1 137.6 321.8 132.6 321.8H126.4C125.1 321.8 124.4 321.1 124.4 319.9ZM132.4 317.7C134.9 317.7 136.4 315.9 136.4 313.1V296.5C136.4 293.8 135 291.9 132.4 291.9H128.8V317.7H132.4V317.7Z" fill="#F07F12"/>
<path d="M146.4 288H149.4C149.8 288 150 288.3 150 288.7V321C150 321.4 149.8 321.7 149.4 321.7H146.4C146 321.7 145.7 321.5 145.7 321V288.7C145.7 288.3 146 288 146.4 288Z" fill="#F07F12"/>
<path d="M154.4 312.7C154.4 312.3 154.6 312 155.1 312H158.1C158.5 312 158.7 312.2 158.8 312.6C158.9 316.2 160.3 318.1 162.9 318.1C165.4 318.1 166.8 316.7 166.8 314.1C166.8 306.7 154.8 304.4 154.8 295.2C154.8 290.5 158 287.5 162.7 287.5C167.4 287.5 170.5 291.1 170.7 296.7C170.7 297.1 170.5 297.3 170.1 297.3H167.1C166.7 297.3 166.5 297.1 166.5 296.7C166.4 293.1 165.1 291.5 162.8 291.5C160.4 291.5 159.2 292.7 159.2 295.1C159.2 302 171.3 304.2 171.3 314C171.3 318.9 168 322.1 163 322.1C158 322.1 154.6 318.5 154.4 312.7Z" fill="#F07F12"/>
<path d="M174.8 321V296.6C174.8 291.7 178.1 288 183 288H187.2C187.6 288 187.9 288.2 187.9 288.6V291.3C187.9 291.7 187.7 292 187.2 292H183.3C180.8 292 179.1 293.9 179.1 296.7V303H186.3C186.7 303 186.9 303.2 186.9 303.6V306.3C186.9 306.7 186.7 306.9 186.3 306.9H179.1V320.9C179.1 321.3 178.9 321.6 178.5 321.6H175.4C175 321.6 174.8 321.4 174.8 321Z" fill="#F07F12"/>
<path d="M191.2 321V296.4C191.2 291.2 194.5 287.5 199.4 287.5C204.3 287.5 207.7 291.1 207.7 296.4V300.2C207.7 303.9 205.9 306.6 203.4 307.9L208.5 320.9C208.6 321.3 208.3 321.6 207.9 321.6H204.6C204.2 321.6 204 321.4 203.9 321L199.4 309H195.5V321C195.5 321.4 195.3 321.7 194.9 321.7H191.8C191.4 321.6 191.2 321.4 191.2 321ZM199.2 305C201.7 305 203.3 303.2 203.3 300.3V296.2C203.3 293.4 201.7 291.6 199.4 291.6C197.1 291.6 195.5 293.4 195.5 296.2V305H199.2Z" fill="#F07F12"/>
<path d="M216 288C216.4 288 216.6 288.2 216.6 288.6V313.5C216.6 316.2 218.1 318.1 220.5 318.1C222.9 318.1 224.4 316.3 224.4 313.5V288.7C224.4 288.3 224.7 288.1 225.1 288.1H228.1C228.5 288.1 228.8 288.3 228.8 288.7V313.3C228.8 318.5 225.5 322.2 220.5 322.2C215.5 322.2 212.3 318.6 212.3 313.3V288.7C212.3 288.3 212.5 288.1 212.9 288.1H216V288Z" fill="#F07F12"/>
<path d="M248.1 288.7V291.4C248.1 291.8 247.9 292.1 247.4 292.1H242.2V321C242.2 321.4 242 321.7 241.5 321.7H238.5C238.1 321.7 237.9 321.5 237.9 321V292.1H232.7C232.3 292.1 232.1 291.9 232.1 291.4V288.7C232.1 288.3 232.3 288.1 232.7 288.1H247.4C247.8 288 248.1 288.3 248.1 288.7Z" fill="#F07F12"/>
<path d="M250.8 321V296.4C250.8 291.1 254.1 287.6 259 287.6C263.9 287.6 267.3 291.2 267.3 296.4V321C267.3 321.4 267.1 321.7 266.6 321.7H263.6C263.2 321.7 262.9 321.5 262.9 321V310.3H255.1V321C255.1 321.4 254.9 321.7 254.5 321.7H251.4C251.1 321.6 250.8 321.4 250.8 321ZM262.9 306.3V296.2C262.9 293.3 261.5 291.6 259 291.6C256.6 291.6 255.1 293.3 255.1 296.2V306.3H262.9V306.3Z" fill="#F07F12"/>
<path d="M297 288.7V291.4C297 291.8 296.8 292.1 296.3 292.1H291.1V321C291.1 321.4 290.9 321.7 290.4 321.7H287.4C287 321.7 286.8 321.5 286.8 321V292.1H281.6C281.2 292.1 281 291.9 281 291.4V288.7C281 288.3 281.2 288.1 281.6 288.1H296.3C296.8 288 297 288.3 297 288.7Z" fill="#F07F12"/>
<path d="M303.9 288C304.3 288 304.5 288.2 304.5 288.6V313.5C304.5 316.2 306 318.1 308.4 318.1C310.8 318.1 312.3 316.3 312.3 313.5V288.7C312.3 288.3 312.6 288.1 313 288.1H316C316.4 288.1 316.7 288.3 316.7 288.7V313.3C316.7 318.5 313.4 322.2 308.4 322.2C303.4 322.2 300.2 318.6 300.2 313.3V288.7C300.2 288.3 300.4 288.1 300.8 288.1H303.9V288Z" fill="#F07F12"/>
<path d="M151.2 354V378.5C151.2 378.9 151 379.2 150.5 379.2H147.5C147.1 379.2 146.9 379 146.9 378.5V353.8C146.9 350.8 145.7 349.1 143.4 349.1C141.2 349.1 139.8 350.8 139.8 353.8V378.5C139.8 378.9 139.6 379.2 139.2 379.2H136.2C135.8 379.2 135.6 379 135.6 378.5V353.8C135.6 350.8 134.2 349.1 132.1 349.1C129.7 349.1 128.5 350.8 128.5 353.8V378.5C128.5 378.9 128.3 379.2 127.9 379.2H124.9C124.5 379.2 124.3 379 124.3 378.5V354C124.3 348.6 127.3 345.1 132.1 345.1C134.8 345.1 136.5 346.3 137.8 348.1C139.1 346.3 140.8 345.1 143.5 345.1C148.2 345.1 151.2 348.6 151.2 354Z" fill="#F07F12"/>
<path d="M155.8 370.7V354.2C155.8 348.8 159.3 345.2 164.3 345.2C169.3 345.2 172.7 348.8 172.7 353.9V371C172.7 376 169.2 379.7 164.3 379.7C159.4 379.7 155.8 376.1 155.8 370.7ZM168.4 371.2V353.6C168.4 351 166.8 349.1 164.3 349.1C161.8 349.1 160.2 351 160.2 354V370.9C160.2 373.9 161.9 375.7 164.3 375.7C166.7 375.7 168.4 373.9 168.4 371.2Z" fill="#F07F12"/>
<path d="M177.4 378.6V353.9C177.4 348.7 180.6 345.1 185.6 345.1C190.6 345.1 193.9 348.7 193.9 353.9V378.5C193.9 378.9 193.7 379.2 193.2 379.2H190.2C189.8 379.2 189.5 379 189.5 378.5V353.7C189.5 351 188 349.1 185.6 349.1C183.2 349.1 181.7 350.9 181.7 353.7V378.5C181.7 378.9 181.5 379.2 181.1 379.2H178C177.7 379.2 177.4 379 177.4 378.6Z" fill="#F07F12"/>
<path d="M198.6 370.7V354.2C198.6 348.8 202.1 345.2 207.1 345.2C212.1 345.2 215.5 348.8 215.5 353.9V371C215.5 376 212 379.7 207.1 379.7C202.1 379.7 198.6 376.1 198.6 370.7ZM211.1 371.2V353.6C211.1 351 209.5 349.1 207 349.1C204.5 349.1 202.9 351 202.9 354V370.9C202.9 373.9 204.6 375.7 207 375.7C209.4 375.7 211.1 373.9 211.1 371.2Z" fill="#F07F12"/>
<path d="M220.2 378.6V354C220.2 348.8 223.3 345.1 228.3 345.1C233.3 345.1 236.6 348.7 236.6 354V358.9C236.6 363.8 233.4 367.2 228.4 367.2H224.6V378.6C224.6 379 224.4 379.3 224 379.3H220.9C220.4 379.2 220.2 379 220.2 378.6ZM228.1 363.1C230.6 363.1 232.1 361.6 232.1 359V353.8C232.1 351 230.6 349.2 228.3 349.2C225.9 349.2 224.5 351 224.5 353.8V363.1H228.1Z" fill="#F07F12"/>
<path d="M241.3 345.6H244.3C244.7 345.6 244.9 345.8 244.9 346.2V378.5C244.9 378.9 244.7 379.2 244.3 379.2H241.3C240.9 379.2 240.6 379 240.6 378.5V346.3C240.6 345.9 240.9 345.6 241.3 345.6Z" fill="#F07F12"/>
<path d="M265 375.2C265.4 375.2 265.6 375.4 265.6 375.9V378.6C265.6 379 265.4 379.3 265 379.3H251.5C250.2 379.3 249.4 378.5 249.4 377.2V376.3C249.4 375.2 249.5 374.6 249.9 373.7L261.1 349.7H251.1C250.7 349.7 250.5 349.5 250.5 349V346.3C250.5 345.9 250.7 345.7 251.1 345.7H263.4C264.7 345.7 265.5 346.3 265.5 347.7V348.6C265.5 349.6 265.5 350.3 265.1 351.2L253.8 375.2H265Z" fill="#F07F12"/>
<path d="M284.2 375.2C284.6 375.2 284.8 375.4 284.8 375.9V378.6C284.8 379 284.6 379.3 284.2 379.3H270.7C269.4 379.3 268.6 378.5 268.6 377.2V376.3C268.6 375.2 268.7 374.6 269.1 373.7L280.3 349.7H270.3C269.9 349.7 269.7 349.5 269.7 349V346.3C269.7 345.9 269.9 345.7 270.3 345.7H282.6C283.9 345.7 284.7 346.3 284.7 347.7V348.6C284.7 349.6 284.7 350.3 284.3 351.2L273 375.2H284.2Z" fill="#F07F12"/>
<path d="M288.9 378.6V354C288.9 348.7 292.2 345.2 297.1 345.2C302 345.2 305.4 348.8 305.4 354V378.6C305.4 379 305.2 379.3 304.7 379.3H301.7C301.3 379.3 301 379.1 301 378.6V367.9H293.2V378.6C293.2 379 293 379.3 292.6 379.3H289.5C289.1 379.2 288.9 379 288.9 378.6ZM301 363.9V353.8C301 350.9 299.6 349.2 297.1 349.2C294.7 349.2 293.2 350.9 293.2 353.8V363.9H301V363.9Z" fill="#F07F12"/>
<path d="M310.8 377.1C310.8 375.6 311.9 374.5 313.4 374.5C314.9 374.5 316 375.6 316 377.1C316 378.6 314.8 379.7 313.4 379.7C311.9 379.8 310.8 378.6 310.8 377.1ZM311.3 371.4V346.3C311.3 345.9 311.5 345.7 312 345.7H314.9C315.3 345.7 315.5 345.9 315.5 346.3V371.4C315.5 371.8 315.3 372.1 314.9 372.1H312C311.6 372 311.3 371.8 311.3 371.4Z" fill="#F07F12"/>
<path d="M116.8 299.8C116.8 301.3 115.6 302.4 114.2 302.4C112.7 302.4 111.6 301.3 111.6 299.8C111.6 298.3 112.7 297.2 114.2 297.2C115.6 297.1 116.8 298.3 116.8 299.8ZM115.6 304.9C116 304.9 116.2 305.1 116.2 305.5V330.6C116.2 331 116 331.3 115.6 331.3H112.7C112.3 331.3 112 331 112 330.6V305.5C112 305.1 112.2 304.9 112.7 304.9H115.6Z" stroke="white" stroke-miterlimit="10"/>
<path d="M122.3 319.9V289.8C122.3 288.6 123 287.9 124.3 287.9H130.5C135.5 287.9 138.7 291.5 138.7 296.6V313.1C138.7 318.1 135.5 321.8 130.5 321.8H124.3C123 321.8 122.3 321.1 122.3 319.9ZM130.3 317.7C132.8 317.7 134.3 315.9 134.3 313.1V296.5C134.3 293.8 132.9 291.9 130.3 291.9H126.7V317.7H130.3V317.7Z" stroke="white" stroke-miterlimit="10"/>
<path d="M144.3 288H147.3C147.7 288 148 288.3 148 288.7V321C148 321.4 147.8 321.7 147.4 321.7H144.4C144 321.7 143.7 321.5 143.7 321V288.7C143.7 288.3 143.9 288 144.3 288Z" stroke="white" stroke-miterlimit="10"/>
<path d="M152.3 312.7C152.3 312.3 152.5 312 153 312H156C156.4 312 156.6 312.2 156.7 312.6C156.8 316.2 158.2 318.1 160.8 318.1C163.3 318.1 164.7 316.7 164.7 314.1C164.7 306.7 152.7 304.4 152.7 295.2C152.7 290.5 155.9 287.5 160.6 287.5C165.3 287.5 168.4 291.1 168.6 296.7C168.6 297.1 168.4 297.3 168 297.3H165C164.6 297.3 164.4 297.1 164.4 296.7C164.3 293.1 163 291.5 160.7 291.5C158.3 291.5 157.1 292.7 157.1 295.1C157.1 302 169.2 304.2 169.2 314C169.2 318.9 165.9 322.1 160.9 322.1C155.9 322.1 152.5 318.5 152.3 312.7Z" stroke="white" stroke-miterlimit="10"/>
<path d="M172.7 321V296.6C172.7 291.7 176 288 180.9 288H185.1C185.5 288 185.8 288.2 185.8 288.6V291.3C185.8 291.7 185.6 292 185.1 292H181.2C178.7 292 177 293.9 177 296.7V303H184.2C184.6 303 184.8 303.2 184.8 303.6V306.3C184.8 306.7 184.6 306.9 184.2 306.9H177V320.9C177 321.3 176.8 321.6 176.4 321.6H173.3C173 321.6 172.7 321.4 172.7 321Z" stroke="white" stroke-miterlimit="10"/>
<path d="M189.1 321V296.4C189.1 291.2 192.4 287.5 197.3 287.5C202.2 287.5 205.6 291.1 205.6 296.4V300.2C205.6 303.9 203.8 306.6 201.3 307.9L206.4 320.9C206.5 321.3 206.2 321.6 205.8 321.6H202.5C202.1 321.6 201.9 321.4 201.8 321L197.3 309H193.4V321C193.4 321.4 193.2 321.7 192.8 321.7H189.7C189.4 321.6 189.1 321.4 189.1 321ZM197.1 305C199.6 305 201.2 303.2 201.2 300.3V296.2C201.2 293.4 199.6 291.6 197.3 291.6C195 291.6 193.4 293.4 193.4 296.2V305H197.1Z" stroke="white" stroke-miterlimit="10"/>
<path d="M214 288C214.4 288 214.6 288.2 214.6 288.6V313.5C214.6 316.2 216.1 318.1 218.5 318.1C220.9 318.1 222.4 316.3 222.4 313.5V288.7C222.4 288.3 222.7 288.1 223.1 288.1H226.1C226.5 288.1 226.8 288.3 226.8 288.7V313.3C226.8 318.5 223.5 322.2 218.5 322.2C213.5 322.2 210.3 318.6 210.3 313.3V288.7C210.3 288.3 210.5 288.1 210.9 288.1H214V288Z" stroke="white" stroke-miterlimit="10"/>
<path d="M246 288.7V291.4C246 291.8 245.8 292.1 245.3 292.1H240.1V321C240.1 321.4 239.9 321.7 239.4 321.7H236.4C236 321.7 235.8 321.5 235.8 321V292.1H230.6C230.2 292.1 230 291.9 230 291.4V288.7C230 288.3 230.2 288.1 230.6 288.1H245.3C245.8 288 246 288.3 246 288.7Z" stroke="white" stroke-miterlimit="10"/>
<path d="M248.8 321V296.4C248.8 291.1 252.1 287.6 257 287.6C261.9 287.6 265.3 291.2 265.3 296.4V321C265.3 321.4 265.1 321.7 264.6 321.7H261.6C261.2 321.7 260.9 321.5 260.9 321V310.3H253.1V321C253.1 321.4 252.9 321.7 252.5 321.7H249.4C249 321.6 248.8 321.4 248.8 321ZM260.9 306.3V296.2C260.9 293.3 259.5 291.6 257 291.6C254.6 291.6 253.1 293.3 253.1 296.2V306.3H260.9V306.3Z" stroke="white" stroke-miterlimit="10"/>
<path d="M295 288.7V291.4C295 291.8 294.8 292.1 294.3 292.1H289.1V321C289.1 321.4 288.9 321.7 288.4 321.7H285.4C285 321.7 284.8 321.5 284.8 321V292.1H279.6C279.2 292.1 279 291.9 279 291.4V288.7C279 288.3 279.2 288.1 279.6 288.1H294.3C294.7 288 295 288.3 295 288.7Z" stroke="white" stroke-miterlimit="10"/>
<path d="M301.8 288C302.2 288 302.4 288.2 302.4 288.6V313.5C302.4 316.2 303.9 318.1 306.3 318.1C308.7 318.1 310.2 316.3 310.2 313.5V288.7C310.2 288.3 310.5 288.1 310.9 288.1H313.9C314.3 288.1 314.6 288.3 314.6 288.7V313.3C314.6 318.5 311.3 322.2 306.3 322.2C301.3 322.2 298.1 318.6 298.1 313.3V288.7C298.1 288.3 298.3 288.1 298.7 288.1H301.8V288Z" stroke="white" stroke-miterlimit="10"/>
<path d="M149.2 354V378.5C149.2 378.9 149 379.2 148.5 379.2H145.5C145.1 379.2 144.9 379 144.9 378.5V353.8C144.9 350.8 143.7 349.1 141.4 349.1C139.2 349.1 137.8 350.8 137.8 353.8V378.5C137.8 378.9 137.6 379.2 137.2 379.2H134.2C133.8 379.2 133.6 379 133.6 378.5V353.8C133.6 350.8 132.2 349.1 130.1 349.1C127.7 349.1 126.5 350.8 126.5 353.8V378.5C126.5 378.9 126.3 379.2 125.9 379.2H122.9C122.5 379.2 122.3 379 122.3 378.5V354C122.3 348.6 125.3 345.1 130.1 345.1C132.8 345.1 134.5 346.3 135.8 348.1C137.1 346.3 138.8 345.1 141.5 345.1C146.2 345.1 149.2 348.6 149.2 354Z" stroke="white" stroke-miterlimit="10"/>
<path d="M153.8 370.7V354.2C153.8 348.8 157.3 345.2 162.3 345.2C167.3 345.2 170.7 348.8 170.7 353.9V371C170.7 376 167.2 379.7 162.3 379.7C157.3 379.7 153.8 376.1 153.8 370.7ZM166.4 371.2V353.6C166.4 351 164.8 349.1 162.3 349.1C159.8 349.1 158.2 351 158.2 354V370.9C158.2 373.9 159.9 375.7 162.3 375.7C164.7 375.7 166.4 373.9 166.4 371.2Z" stroke="white" stroke-miterlimit="10"/>
<path d="M175.4 378.6V353.9C175.4 348.7 178.6 345.1 183.6 345.1C188.6 345.1 191.9 348.7 191.9 353.9V378.5C191.9 378.9 191.7 379.2 191.2 379.2H188.2C187.8 379.2 187.5 379 187.5 378.5V353.7C187.5 351 186 349.1 183.6 349.1C181.2 349.1 179.7 350.9 179.7 353.7V378.5C179.7 378.9 179.5 379.2 179.1 379.2H176C175.6 379.2 175.4 379 175.4 378.6Z" stroke="white" stroke-miterlimit="10"/>
<path d="M196.5 370.7V354.2C196.5 348.8 200 345.2 205 345.2C210 345.2 213.4 348.8 213.4 353.9V371C213.4 376 209.9 379.7 205 379.7C200 379.7 196.5 376.1 196.5 370.7ZM209.1 371.2V353.6C209.1 351 207.5 349.1 205 349.1C202.5 349.1 200.9 351 200.9 354V370.9C200.9 373.9 202.6 375.7 205 375.7C207.4 375.7 209.1 373.9 209.1 371.2Z" stroke="white" stroke-miterlimit="10"/>
<path d="M218.1 378.6V354C218.1 348.8 221.2 345.1 226.2 345.1C231.2 345.1 234.5 348.7 234.5 354V358.9C234.5 363.8 231.3 367.2 226.3 367.2H222.5V378.6C222.5 379 222.3 379.3 221.9 379.3H218.8C218.3 379.2 218.1 379 218.1 378.6ZM226.1 363.1C228.6 363.1 230.1 361.6 230.1 359V353.8C230.1 351 228.6 349.2 226.3 349.2C223.9 349.2 222.5 351 222.5 353.8V363.1H226.1Z" stroke="white" stroke-miterlimit="10"/>
<path d="M239.2 345.6H242.2C242.6 345.6 242.8 345.8 242.8 346.2V378.5C242.8 378.9 242.6 379.2 242.2 379.2H239.2C238.8 379.2 238.5 379 238.5 378.5V346.3C238.6 345.9 238.8 345.6 239.2 345.6Z" stroke="white" stroke-miterlimit="10"/>
<path d="M262.9 375.2C263.3 375.2 263.5 375.4 263.5 375.9V378.6C263.5 379 263.3 379.3 262.9 379.3H249.4C248.1 379.3 247.3 378.5 247.3 377.2V376.3C247.3 375.2 247.4 374.6 247.8 373.7L259 349.7H249C248.6 349.7 248.4 349.5 248.4 349V346.3C248.4 345.9 248.6 345.7 249 345.7H261.3C262.6 345.7 263.4 346.3 263.4 347.7V348.6C263.4 349.6 263.4 350.3 263 351.2L251.7 375.2H262.9Z" stroke="white" stroke-miterlimit="10"/>
<path d="M282.2 375.2C282.6 375.2 282.8 375.4 282.8 375.9V378.6C282.8 379 282.6 379.3 282.2 379.3H268.7C267.4 379.3 266.6 378.5 266.6 377.2V376.3C266.6 375.2 266.7 374.6 267.1 373.7L278.3 349.7H268.3C267.9 349.7 267.7 349.5 267.7 349V346.3C267.7 345.9 267.9 345.7 268.3 345.7H280.6C281.9 345.7 282.7 346.3 282.7 347.7V348.6C282.7 349.6 282.7 350.3 282.3 351.2L271 375.2H282.2Z" stroke="white" stroke-miterlimit="10"/>
<path d="M286.8 378.6V354C286.8 348.7 290.1 345.2 295 345.2C299.9 345.2 303.3 348.8 303.3 354V378.6C303.3 379 303.1 379.3 302.6 379.3H299.6C299.2 379.3 298.9 379.1 298.9 378.6V367.9H291.1V378.6C291.1 379 290.9 379.3 290.5 379.3H287.4C287 379.2 286.8 379 286.8 378.6ZM298.9 363.9V353.8C298.9 350.9 297.5 349.2 295 349.2C292.6 349.2 291.1 350.9 291.1 353.8V363.9H298.9V363.9Z" stroke="white" stroke-miterlimit="10"/>
<path d="M308.7 377.1C308.7 375.6 309.8 374.5 311.3 374.5C312.8 374.5 313.9 375.6 313.9 377.1C313.9 378.6 312.7 379.7 311.3 379.7C309.8 379.8 308.7 378.6 308.7 377.1ZM309.3 371.4V346.3C309.3 345.9 309.5 345.7 310 345.7H312.9C313.3 345.7 313.5 345.9 313.5 346.3V371.4C313.5 371.8 313.3 372.1 312.9 372.1H310C309.5 372 309.3 371.8 309.3 371.4Z" stroke="white" stroke-miterlimit="10"/>
</g>
<defs>
<clipPath id="clip0_983_1509">
<rect width="151" height="131" fill="white" transform="translate(139 30)"/>
</clipPath>
<clipPath id="clip1_983_1509">
<rect width="205.6" height="93.3" fill="white" transform="translate(111 287)"/>
</clipPath>
</defs>
</svg>
