<svg width="139" height="199" viewBox="0 0 139 199" fill="none" xmlns="http://www.w3.org/2000/svg">
<path d="M51.61 109.584V139.582C51.61 139.943 51.3931 140.16 51.0317 140.16H48.7187C48.3572 140.16 48.1404 139.943 48.1404 139.582V109.584C48.1404 104.885 46.261 102.283 42.6469 102.283C39.3219 102.283 37.1534 104.885 37.1534 109.584V139.582C37.1534 139.943 36.9365 140.16 36.5751 140.16H34.2621C33.9007 140.16 33.6838 139.943 33.6838 139.582V109.584C33.6838 104.885 31.3708 102.283 28.1903 102.283C24.5762 102.283 22.6968 104.885 22.6968 109.584V139.582C22.6968 139.943 22.48 140.16 22.1185 140.16H19.8055C19.4441 140.16 19.2272 139.943 19.2272 139.582V109.584C19.2272 103.078 22.5522 99.0302 28.1903 99.0302C32.0936 99.0302 33.9007 101.126 35.4186 103.873C36.9365 101.126 38.8882 99.0302 42.6469 99.0302C48.2127 99.0302 51.61 103.15 51.61 109.584Z" fill="#F07F12"/>
<path d="M58.1154 129.534V109.656C58.1154 103.367 62.2356 99.1024 68.0905 99.1024C73.9454 99.1024 78.0655 103.367 78.0655 109.078V130.04C78.0655 135.751 73.9454 140.016 68.0905 140.016C62.2356 140.088 58.1154 135.823 58.1154 129.534ZM74.5237 130.113V109.15C74.5237 105.247 71.8492 102.355 68.0905 102.355C64.2595 102.355 61.6573 105.174 61.6573 109.728V129.607C61.6573 134.088 64.3318 136.98 68.0905 136.98C71.9215 136.907 74.5237 134.088 74.5237 130.113Z" fill="#F07F12"/>
<path d="M84.571 139.654V109.584C84.571 103.512 88.402 99.1747 94.2569 99.1747C100.112 99.1747 103.943 103.512 103.943 109.584V139.654C103.943 140.016 103.726 140.232 103.365 140.232H101.051C100.69 140.232 100.473 140.016 100.473 139.654V109.584C100.473 105.319 98.0879 102.428 94.3292 102.428C90.5705 102.428 88.1851 105.319 88.1851 109.584V139.654C88.1851 140.016 87.9683 140.232 87.6069 140.232H85.2938C84.7878 140.232 84.571 140.016 84.571 139.654Z" fill="#F07F12"/>
<path d="M110.448 129.534V109.584C110.448 103.295 114.496 98.9579 120.279 98.9579C126.061 98.9579 130.109 103.223 130.109 109.005V130.113C130.109 135.823 126.061 140.16 120.279 140.16C114.568 140.16 110.448 135.823 110.448 129.534ZM126.712 130.113V109.005C126.712 105.03 124.11 102.211 120.351 102.211C116.592 102.211 113.99 105.102 113.99 109.584V129.534C113.99 134.088 116.592 136.907 120.351 136.907C124.11 136.907 126.712 134.088 126.712 130.113Z" fill="#F07F12"/>
<path d="M18.8658 184.832V154.689C18.8658 148.618 22.48 144.28 28.4072 144.28C34.3344 144.28 37.9485 148.618 37.9485 154.689V160.978C37.9485 166.472 34.1898 170.303 28.4072 170.303H22.4077V184.832C22.4077 185.194 22.1909 185.41 21.8294 185.41H19.5164C19.155 185.41 18.8658 185.194 18.8658 184.832ZM28.4072 167.05C32.0213 167.05 34.4789 164.665 34.4789 160.978V154.689C34.4789 150.425 32.1659 147.533 28.4072 147.533C24.6485 147.533 22.4077 150.352 22.4077 154.689V167.05H28.4072Z" fill="#F07F12"/>
<path d="M48.8632 144.28H51.1763C51.5377 144.28 51.7545 144.497 51.7545 144.859V184.832C51.7545 185.194 51.5377 185.41 51.1763 185.41H48.8632C48.5018 185.41 48.285 185.194 48.285 184.832V144.859C48.285 144.497 48.5018 144.28 48.8632 144.28Z" fill="#F07F12"/>
<path d="M77.7764 182.085C78.1378 182.085 78.3547 182.302 78.3547 182.664V184.76C78.3547 185.121 78.1378 185.338 77.7764 185.338H60.7176C59.5611 185.338 58.9106 184.688 58.9106 183.603V182.447C58.9106 181.652 58.9828 181.001 59.3442 180.278L74.7405 147.533H60.7899C60.4285 147.533 60.2116 147.316 60.2116 146.955V144.859C60.2116 144.497 60.4285 144.28 60.7899 144.28H76.403C77.5595 144.28 78.1378 144.859 78.2101 146.015L78.2824 147.172C78.3547 147.967 78.2101 148.618 77.8487 149.34L62.3801 182.085H77.7764Z" fill="#F07F12"/>
<path d="M103.509 182.085C103.871 182.085 104.087 182.302 104.087 182.664V184.76C104.087 185.121 103.871 185.338 103.509 185.338H86.8118C85.7275 185.338 85.077 184.688 85.077 183.603V182.447C85.077 181.652 85.1493 181.001 85.5107 180.278L100.618 147.533H86.9563C86.5949 147.533 86.3781 147.316 86.3781 146.955V144.859C86.3781 144.497 86.5949 144.28 86.9563 144.28H102.28C103.365 144.28 104.015 144.859 104.015 146.015L104.087 147.172C104.16 147.967 104.015 148.618 103.654 149.34L88.4743 182.085H103.509Z" fill="#F07F12"/>
<path d="M110.882 184.832V154.689C110.882 148.401 114.785 144.28 120.568 144.28C126.351 144.28 130.254 148.473 130.254 154.689V184.832C130.254 185.194 130.037 185.41 129.676 185.41H127.362C127.001 185.41 126.784 185.194 126.784 184.832V170.664H114.424V184.832C114.424 185.194 114.207 185.41 113.846 185.41H111.533C111.171 185.41 110.882 185.194 110.882 184.832ZM126.784 167.412V154.689C126.784 150.135 124.543 147.461 120.64 147.461C116.737 147.461 114.496 150.135 114.496 154.689V167.412H126.784Z" fill="#F07F12"/>
<path d="M49.1524 109.511V139.582C49.1524 139.943 48.9355 140.16 48.5741 140.16H46.261C45.8996 140.16 45.6828 139.943 45.6828 139.582V109.511C45.6828 104.813 43.8034 102.211 40.1893 102.211C36.8643 102.211 34.6958 104.813 34.6958 109.511V139.582C34.6958 139.943 34.4789 140.16 34.1175 140.16H31.8045C31.443 140.16 31.2262 139.943 31.2262 139.582V109.511C31.2262 104.813 28.9131 102.211 25.7327 102.211C22.1186 102.211 20.2392 104.813 20.2392 109.511V139.582C20.2392 139.943 20.0224 140.16 19.6609 140.16H17.3479C16.9865 140.16 16.7696 139.943 16.7696 139.582V109.511C16.7696 103.006 20.0946 98.9579 25.7327 98.9579C29.636 98.9579 31.443 101.054 32.961 103.801C34.4789 100.982 36.4306 98.9579 40.1893 98.9579C45.8273 98.8856 49.1524 103.006 49.1524 109.511Z" fill="white"/>
<path d="M55.6578 129.462V109.584C55.6578 103.295 59.778 99.0302 65.6329 99.0302C71.4878 99.0302 75.6079 103.295 75.6079 109.005V130.04C75.6079 135.751 71.4878 140.016 65.6329 140.016C59.778 140.016 55.6578 135.751 55.6578 129.462ZM72.1383 130.04V109.005C72.1383 105.03 69.4639 102.211 65.7052 102.211C61.8742 102.211 59.272 105.102 59.272 109.584V129.462C59.272 133.944 61.9464 136.835 65.7052 136.835C69.4639 136.835 72.1383 133.944 72.1383 130.04Z" fill="white"/>
<path d="M82.1856 139.582V109.439C82.1856 103.367 86.0166 99.0302 91.8715 99.0302C97.7265 99.0302 101.557 103.367 101.557 109.439V139.582C101.557 139.943 101.341 140.16 100.979 140.16H98.5939C98.2324 140.16 98.0156 139.943 98.0156 139.582V109.439C98.0156 105.174 95.6303 102.283 91.8715 102.283C88.1128 102.283 85.7275 105.174 85.7275 109.439V139.582C85.7275 139.943 85.5107 140.16 85.1492 140.16H82.7639C82.4025 140.16 82.1856 139.871 82.1856 139.582Z" fill="white"/>
<path d="M108.063 129.462V109.439C108.063 103.15 112.183 98.8133 118.038 98.8133C123.893 98.8133 128.013 103.15 128.013 108.861V129.968C128.013 135.679 123.893 140.016 118.038 140.016C112.183 140.016 108.063 135.823 108.063 129.462ZM124.543 130.04V108.933C124.543 104.957 121.869 102.066 118.11 102.066C114.279 102.066 111.677 104.958 111.677 109.511V129.534C111.677 134.088 114.352 136.98 118.11 136.98C121.869 136.907 124.543 134.016 124.543 130.04Z" fill="white"/>
<path d="M16.4082 184.832V154.617C16.4082 148.545 20.0223 144.136 25.9495 144.136C31.8767 144.136 35.5632 148.473 35.5632 154.617V160.906C35.5632 166.4 31.8045 170.231 25.9495 170.231H19.9501V184.832C19.9501 185.194 19.7332 185.41 19.3718 185.41H16.9865C16.6251 185.41 16.4082 185.194 16.4082 184.832ZM25.9495 166.978C29.5637 166.978 32.0213 164.592 32.0213 160.906V154.617C32.0213 150.352 29.636 147.389 25.9495 147.389C22.2631 147.389 19.9501 150.28 19.9501 154.617V166.978H25.9495Z" fill="white"/>
<path d="M46.4056 144.208H48.791C49.1524 144.208 49.3692 144.425 49.3692 144.786V184.832C49.3692 185.194 49.1524 185.41 48.791 185.41H46.4056C46.0442 185.41 45.8274 185.194 45.8274 184.832V144.786C45.8274 144.425 46.0442 144.208 46.4056 144.208Z" fill="white"/>
<path d="M74.9573 182.085C75.3188 182.085 75.5356 182.302 75.5356 182.664V184.76C75.5356 185.121 75.3188 185.338 74.9573 185.338H58.26C57.1758 185.338 56.5252 184.688 56.5252 183.603V182.447C56.5252 181.652 56.5975 181.001 56.9589 180.278L71.9937 147.461H58.3323C57.9709 147.461 57.754 147.244 57.754 146.883V144.786C57.754 144.425 57.9709 144.208 58.3323 144.208H73.6563C74.7405 144.208 75.391 144.786 75.391 145.943L75.4633 147.1C75.5356 147.895 75.391 148.545 75.0296 149.268L59.7779 182.085H74.9573Z" fill="white"/>
<path d="M101.124 182.085C101.485 182.085 101.702 182.302 101.702 182.664V184.76C101.702 185.121 101.485 185.338 101.124 185.338H84.4264C83.3422 185.338 82.6916 184.688 82.6916 183.603V182.447C82.6916 181.652 82.7639 181.001 83.1253 180.278L98.2324 147.461H84.571C84.2096 147.461 83.9927 147.244 83.9927 146.883V144.786C83.9927 144.425 84.2096 144.208 84.571 144.208H99.8949C100.979 144.208 101.63 144.786 101.63 145.943L101.702 147.1C101.774 147.895 101.63 148.545 101.268 149.268L86.0166 182.085H101.124Z" fill="white"/>
<path d="M108.497 184.832V154.689C108.497 148.401 112.4 144.208 118.183 144.208C123.965 144.208 127.868 148.401 127.868 154.689V184.832C127.868 185.194 127.652 185.41 127.29 185.41H124.905C124.543 185.41 124.327 185.194 124.327 184.832V170.664H112.039V184.832C112.039 185.194 111.822 185.41 111.46 185.41H109.075C108.786 185.41 108.497 185.194 108.497 184.832ZM124.399 167.412V154.689C124.399 150.135 122.158 147.461 118.255 147.461C114.352 147.461 112.111 150.135 112.111 154.689V167.412H124.399Z" fill="white"/>
<path d="M47.4899 140.232H45.1768C44.7431 140.232 44.3817 139.943 44.3817 139.437V108.789C44.3817 104.018 42.5024 101.488 38.9605 101.488C35.5632 101.488 33.5393 104.235 33.5393 108.789V139.437C33.5393 139.871 33.2501 140.232 32.7442 140.232H30.4311C29.9974 140.232 29.636 139.943 29.636 139.437V108.789C29.636 104.307 27.5398 101.488 24.2148 101.488C19.7332 101.488 18.7936 105.464 18.7936 108.789V139.437C18.7936 139.871 18.5044 140.232 17.9985 140.232H15.6854C15.2517 140.232 14.8903 139.943 14.8903 139.437V108.789C14.8903 101.922 18.3599 97.8736 24.1425 97.8736C28.1903 97.8736 30.0697 100.114 31.5154 102.644C32.8887 100.259 34.8404 97.8736 38.8882 97.8736C44.5986 97.8736 48.1404 102.066 48.1404 108.789V139.437C48.2127 139.943 47.9236 140.232 47.4899 140.232ZM38.9605 101.199C42.6469 101.199 44.7431 103.946 44.7431 108.861V139.51C44.7431 139.799 44.8877 139.943 45.1768 139.943H47.4899C47.7067 139.943 47.9236 139.799 47.9236 139.51V108.861C47.9236 102.211 44.5986 98.3073 39.0328 98.3073C34.9849 98.3073 33.1779 100.765 31.8768 103.15L31.7322 103.44L31.5876 103.15C29.9974 100.259 28.1903 98.3073 24.4316 98.3073C18.8658 98.3073 15.5408 102.283 15.5408 108.861V139.51C15.5408 139.799 15.6854 139.943 15.9745 139.943H18.2876C18.5767 139.943 18.7213 139.799 18.7213 139.51V108.861C18.7213 103.873 20.7452 101.199 24.5039 101.199C27.9735 101.199 30.2865 104.162 30.2865 108.861V139.51C30.2865 139.799 30.4311 139.943 30.7202 139.943H33.0333C33.2501 139.943 33.467 139.799 33.467 139.51V108.861C33.1779 104.09 35.4186 101.199 38.9605 101.199Z" fill="white"/>
<path d="M64.404 140.016C58.4046 140.016 54.2122 135.534 54.2122 129.028V108.716C54.2122 102.283 58.4046 97.729 64.404 97.729C70.259 97.729 74.5959 102.066 74.5959 108.138V129.607C74.5959 135.606 70.3312 140.016 64.404 140.016ZM64.404 98.1627C58.6214 98.1627 54.5736 102.5 54.5736 108.789V129.101C54.5736 135.317 58.6214 139.726 64.404 139.726C70.1144 139.726 74.2345 135.534 74.2345 129.679V108.21C74.2345 102.355 70.1144 98.1627 64.404 98.1627ZM64.404 136.763C60.4285 136.763 57.754 133.655 57.754 129.101V108.789C57.754 104.162 60.4285 101.126 64.404 101.126C68.3073 101.126 71.0541 104.018 71.0541 108.21V129.679C71.0541 133.799 68.3796 136.763 64.404 136.763ZM64.404 101.416C60.5731 101.416 58.1154 104.307 58.1154 108.716V129.028C58.1154 133.51 60.5731 136.329 64.404 136.329C68.0905 136.329 70.6927 133.582 70.6927 129.607V108.138C70.6927 104.235 68.1628 101.416 64.404 101.416Z" fill="white"/>
<path d="M99.7504 140.305H97.4373C97.0036 140.305 96.6422 140.016 96.6422 139.51V108.716C96.6422 104.379 94.3292 101.56 90.6427 101.56C87.0286 101.56 84.6433 104.379 84.6433 108.716V139.51C84.6433 139.943 84.3541 140.305 83.8482 140.305H81.5351C81.1014 140.305 80.74 140.016 80.74 139.51V108.716C80.74 102.211 84.7156 97.8736 90.6427 97.8736C96.5699 97.8736 100.546 102.211 100.546 108.716V139.51C100.473 139.943 100.184 140.305 99.7504 140.305ZM90.6427 101.199C94.4737 101.199 97.0036 104.235 97.0036 108.716V139.51C97.0036 139.799 97.1482 139.943 97.4373 139.943H99.7504C99.9672 139.943 100.184 139.799 100.184 139.51V108.716C100.184 102.428 96.3531 98.235 90.6427 98.235C84.9324 98.235 81.1014 102.428 81.1014 108.716V139.51C81.1014 139.799 81.246 139.943 81.5351 139.943H83.8482C84.065 139.943 84.2819 139.799 84.2819 139.51V108.716C84.2819 104.235 86.8118 101.199 90.6427 101.199Z" fill="white"/>
<path d="M116.809 140.232C110.81 140.232 106.617 135.751 106.617 129.245V108.933C106.617 102.5 110.81 97.9459 116.809 97.9459C122.664 97.9459 127.001 102.355 127.001 108.355V129.823C127.001 135.823 122.664 140.232 116.809 140.232ZM116.809 98.3073C111.027 98.3073 106.979 102.644 106.979 108.933V129.245C106.979 135.534 111.027 139.871 116.809 139.871C122.519 139.871 126.64 135.679 126.64 129.823V108.355C126.64 102.5 122.519 98.3073 116.809 98.3073ZM116.809 136.98C112.834 136.98 110.159 133.871 110.159 129.245V108.933C110.159 104.307 112.834 101.199 116.809 101.199C120.712 101.199 123.459 104.162 123.459 108.355V129.823C123.459 134.016 120.712 136.98 116.809 136.98ZM116.809 101.56C112.978 101.56 110.521 104.452 110.521 108.933V129.245C110.521 133.727 112.978 136.618 116.809 136.618C120.496 136.618 123.098 133.799 123.098 129.823V108.355C123.098 104.379 120.496 101.56 116.809 101.56Z" fill="white"/>
<path d="M18.2153 185.555H15.9022C15.4685 185.555 15.1071 185.266 15.1071 184.76V153.967C15.1071 147.461 19.0104 143.124 24.793 143.124C30.6479 143.124 34.5512 147.461 34.5512 153.967V160.328C34.5512 166.11 30.6479 170.014 24.793 170.014H19.0104V184.688C18.9381 185.194 18.649 185.555 18.2153 185.555ZM24.793 143.558C19.2272 143.558 15.4685 147.75 15.4685 154.039V184.76C15.4685 185.049 15.6131 185.194 15.9022 185.194H18.2153C18.5044 185.194 18.649 185.049 18.649 184.76V169.725H24.793C30.4311 169.725 34.1898 165.966 34.1898 160.4V153.967C34.1175 147.75 30.3588 143.558 24.793 143.558ZM24.793 166.761H18.649V153.967C18.649 149.413 21.1066 146.449 24.793 146.449C28.5517 146.449 31.0094 149.413 31.0094 153.967V160.328C31.0094 164.303 28.5517 166.761 24.793 166.761ZM18.9381 166.4H24.7207C28.2626 166.4 30.5757 164.014 30.5757 160.4V153.967C30.5757 149.63 28.2626 146.81 24.7207 146.81C21.1789 146.81 18.9381 149.63 18.9381 153.967V166.4Z" fill="white"/>
<path d="M47.273 185.555H44.96C44.5263 185.555 44.1649 185.266 44.1649 184.76V143.991C44.1649 143.558 44.454 143.196 44.96 143.196H47.273C47.7067 143.196 48.0681 143.485 48.0681 143.991V184.76C47.9959 185.194 47.7067 185.555 47.273 185.555ZM44.8877 143.558C44.6708 143.558 44.454 143.702 44.454 143.991V184.76C44.454 185.049 44.5986 185.194 44.8877 185.194H47.2007C47.4176 185.194 47.6344 185.049 47.6344 184.76V143.991C47.6344 143.702 47.4899 143.558 47.2007 143.558H44.8877Z" fill="white"/>
<path d="M73.7286 185.555H56.3084C55.0073 185.555 54.2845 184.832 54.2845 183.603V182.375C54.2845 181.507 54.3567 180.857 54.7182 180.061L70.3313 146.955H56.3807C55.947 146.955 55.5855 146.666 55.5855 146.16V143.991C55.5855 143.558 55.947 143.196 56.3807 143.196H72.4275C73.6563 143.196 74.3791 143.847 74.4514 145.148L74.5237 146.377C74.5959 147.244 74.4514 147.822 74.09 148.69L58.3323 181.796H73.7286C74.1622 181.796 74.5237 182.085 74.5237 182.591V184.76C74.5237 185.194 74.1622 185.555 73.7286 185.555ZM56.3807 143.558C56.0915 143.558 55.947 143.702 55.947 143.991V146.16C55.947 146.449 56.0915 146.594 56.3807 146.594H70.9818L55.0796 180.206C54.7182 180.929 54.6459 181.507 54.6459 182.375V183.603C54.6459 184.615 55.2241 185.194 56.3084 185.194H73.7286C74.0177 185.194 74.1622 185.049 74.1622 184.76V182.591C74.1622 182.302 74.0177 182.158 73.7286 182.158H57.6818L73.7286 148.545C74.09 147.822 74.2345 147.244 74.1622 146.449L74.09 145.22C74.0177 144.136 73.5117 143.63 72.4275 143.63H56.3807V143.558Z" fill="white"/>
<path d="M99.8227 185.555H82.7639C81.5351 185.555 80.8123 184.832 80.8123 183.603V182.375C80.8123 181.507 80.8845 180.857 81.246 180.061L96.5699 146.955H82.8362C82.4025 146.955 82.0411 146.666 82.0411 146.16V143.991C82.0411 143.558 82.3302 143.196 82.8362 143.196H98.5216C99.7504 143.196 100.473 143.847 100.473 145.148L100.545 146.377C100.618 147.244 100.473 147.822 100.112 148.69L84.7155 181.796H99.8949C100.329 181.796 100.69 182.085 100.69 182.591V184.76C100.618 185.194 100.329 185.555 99.8227 185.555ZM82.8362 143.558C82.547 143.558 82.4025 143.702 82.4025 143.991V146.16C82.4025 146.449 82.547 146.594 82.8362 146.594H97.0759L81.5351 180.206C81.1737 180.929 81.1014 181.507 81.1014 182.375V183.603C81.1014 184.615 81.6796 185.194 82.6916 185.194H99.7504C100.04 185.194 100.184 185.049 100.184 184.76V182.591C100.184 182.302 100.04 182.158 99.7504 182.158H84.065L99.7504 148.545C100.112 147.822 100.184 147.244 100.184 146.449L100.112 145.22C100.04 144.136 99.5335 143.63 98.5216 143.63H82.8362V143.558Z" fill="white"/>
<path d="M126.061 185.555H123.604C123.17 185.555 122.809 185.266 122.809 184.76V170.52H110.521V184.76C110.521 185.194 110.231 185.555 109.725 185.555H107.34C106.906 185.555 106.545 185.266 106.545 184.76V154.039C106.545 147.533 110.593 143.196 116.665 143.196C122.736 143.196 126.784 147.533 126.784 154.039V184.76C126.856 185.194 126.495 185.555 126.061 185.555ZM110.231 170.086H123.242V184.688C123.242 184.977 123.387 185.121 123.676 185.121H126.061C126.35 185.121 126.495 184.977 126.495 184.688V153.967C126.495 147.678 122.592 143.485 116.737 143.485C110.882 143.485 106.979 147.678 106.979 153.967V184.688C106.979 184.977 107.123 185.121 107.412 185.121H109.798C110.087 185.121 110.231 184.977 110.231 184.688V170.086ZM123.242 167.195H110.231V154.039C110.231 149.268 112.617 146.521 116.737 146.521C120.857 146.521 123.242 149.268 123.242 154.039V167.195ZM110.593 166.833H122.881V154.039C122.881 149.485 120.64 146.883 116.737 146.883C112.834 146.883 110.593 149.485 110.593 154.039V166.833Z" fill="white"/>
<path d="M72.9334 91.8017C98.2831 91.8017 118.833 71.2512 118.833 45.9008C118.833 20.5505 98.2831 0 72.9334 0C47.5838 0 27.0338 20.5505 27.0338 45.9008C27.0338 71.2512 47.5838 91.8017 72.9334 91.8017Z" fill="#F07F12"/>
<path d="M68.0905 74.3811C67.7291 75.3208 68.3796 75.6822 68.8856 77.923C70.4035 84.2118 67.5122 91.0065 66.3557 92.2354C66.3557 92.2354 66.2834 92.3077 66.2834 92.38C66.428 93.1751 75.5356 92.6691 79.1498 92.4522C79.5112 92.4522 79.728 92.38 80.1617 92.38C80.3786 92.38 80.4509 92.38 80.5231 92.38C80.8123 92.0908 79.5835 90.356 79.2943 89.9223C77.7764 87.6815 77.7764 85.0792 77.7041 81.1758C77.7041 81.1758 77.6318 77.6339 78.4269 74.1642C78.4992 73.8028 78.5715 73.5136 78.5715 73.5136C78.7884 72.7185 78.8606 72.6462 78.7884 72.5739C78.6438 71.6342 69.3916 71.056 68.0905 74.3811Z" fill="#15385C"/>
<path d="M83.559 95.2713C83.4867 95.2713 83.4145 95.2713 83.3422 95.2713C81.9688 95.1268 80.9568 93.8979 81.1014 92.5245C81.7519 85.5129 83.8482 81.3204 87.5346 79.5855C89.9199 78.429 92.0884 78.7904 94.2569 79.1518C96.1362 79.441 98.0156 79.8024 100.618 79.2964C103.292 78.7181 105.099 77.5616 107.196 76.1882C116.375 70.1162 119.99 59.7072 120.423 58.5507C123.17 50.3825 122.664 41.636 118.905 32.5281C115.219 23.5648 109.364 18.8663 103.22 13.951C101.196 12.3607 98.7384 10.6981 95.8471 10.7704C95.1966 10.7704 93.7509 10.8427 92.5944 11.7824C92.1607 12.1438 90.7873 13.3727 91.0042 14.6738C91.0764 15.3967 91.5824 16.1918 92.233 16.6978C92.5944 16.9869 93.2449 17.3483 93.9678 17.2761C94.9797 17.1315 95.9194 16.1918 96.2808 14.9629C96.6422 13.5895 98.0156 12.7944 99.3167 13.0835C100.69 13.445 101.485 14.8184 101.196 16.1195C100.401 19.3723 97.7265 21.83 94.6183 22.1914C92.6667 22.4083 90.715 21.9023 89.1248 20.6012C87.39 19.3 86.2335 17.2761 86.0166 15.1798C85.6552 12.5053 86.9563 9.75844 89.4862 7.73447C92.0161 5.7105 94.8352 5.56593 95.7748 5.56593C100.329 5.42136 103.871 7.73447 106.473 9.83073C112.906 14.9629 119.556 20.312 123.676 30.4319C127.868 40.6963 128.447 50.5993 125.339 59.9964C124.616 62.1649 120.496 73.369 110.015 80.2361C107.846 81.6818 105.388 83.2721 101.702 83.9949C98.2324 84.7178 95.558 84.284 93.4618 83.9226C91.6547 83.6335 90.715 83.4889 89.7753 83.9226C87.9683 84.79 86.6672 87.9706 86.2335 92.8136C86.0166 94.2593 84.8601 95.2713 83.559 95.2713Z" fill="#15385C"/>
<path d="M73.3671 94.1871C47.8513 94.1871 27.0338 73.4413 27.0338 47.8525C27.0338 22.336 47.779 1.51797 73.3671 1.51797C98.883 1.51797 119.7 22.2637 119.7 47.8525C119.7 73.4413 98.9553 94.1871 73.3671 94.1871ZM73.3671 2.09625C48.1404 2.09625 27.6121 22.6251 27.6121 47.8525C27.6121 73.0799 48.1404 93.6088 73.3671 93.6088C98.5939 93.6088 119.122 73.0799 119.122 47.8525C119.122 22.6251 98.6662 2.09625 73.3671 2.09625Z" fill="white"/>
<path d="M72.7889 79.0073C93.8271 79.0073 110.882 67.1948 110.882 52.6233C110.882 38.0519 93.8271 26.2394 72.7889 26.2394C51.7507 26.2394 34.6958 38.0519 34.6958 52.6233C34.6958 67.1948 51.7507 79.0073 72.7889 79.0073Z" fill="#15385C"/>
<path d="M28.6963 62.0203C36.1615 62.0203 42.2132 56.8099 42.2132 50.3825C42.2132 43.9551 36.1615 38.7446 28.6963 38.7446C21.2311 38.7446 15.1794 43.9551 15.1794 50.3825C15.1794 56.8099 21.2311 62.0203 28.6963 62.0203Z" fill="#15385C"/>
<path d="M117.026 61.9481C124.491 61.9481 130.543 56.7376 130.543 50.3102C130.543 43.8828 124.491 38.6724 117.026 38.6724C109.561 38.6724 103.509 43.8828 103.509 50.3102C103.509 56.7376 109.561 61.9481 117.026 61.9481Z" fill="#15385C"/>
<path d="M71.7046 28.2634C71.4155 27.6851 70.6927 26.0225 71.1264 23.854C71.1987 23.348 71.7769 20.9626 74.0177 19.5169C74.3068 19.3723 77.415 17.4206 79.8003 19.0109C80.8123 19.7338 81.8965 21.1794 81.6074 22.6974C81.3905 23.9263 80.3786 24.6491 79.9449 25.0105C79.8003 25.1551 79.2943 25.5165 79.1498 25.372C78.9329 25.1551 79.9449 24.0708 79.6557 22.9866C79.4389 22.2637 78.5715 21.6854 77.8487 21.6854C76.4753 21.6854 75.6802 23.4926 75.4633 24.4323C74.8851 26.6008 76.2585 28.5525 76.4753 28.9139" fill="#15385C"/>
<path d="M35.4909 49.8042C35.4909 49.2982 34.4067 48.7922 33.5393 48.6477C32.2382 48.5031 30.5757 49.1537 29.7806 50.5271C28.9132 51.9728 28.8409 54.2136 30.2865 55.4424C31.949 56.8881 34.4789 55.8039 34.6235 55.6593C34.6235 55.6593 34.7681 55.4424 34.9126 55.4424C34.9126 55.4424 34.9126 55.4424 34.9849 55.4424C35.1295 55.3701 34.8404 54.575 34.7681 54.2136C34.5512 53.2739 34.3344 51.2499 35.274 50.2379C35.4186 50.0211 35.4909 49.9488 35.4909 49.8042Z" fill="white"/>
<path d="M110.737 50.0934C110.737 49.5874 111.822 49.0814 112.689 48.9368C113.99 48.7922 115.653 49.4428 116.448 50.8162C117.315 52.2619 117.387 54.5027 115.942 55.7316C114.279 57.1773 111.749 56.093 111.605 55.9484C111.605 55.9484 111.46 55.7316 111.316 55.7316C111.316 55.7316 111.316 55.7316 111.243 55.7316C111.099 55.6593 111.388 54.8641 111.46 54.5027C111.677 53.563 111.894 51.539 110.954 50.5271C110.882 50.3825 110.737 50.3102 110.737 50.0934Z" fill="white"/>
<path d="M99.7504 51.6113C99.8227 44.166 93.2449 38.1664 85.077 38.0941C80.0895 38.0941 75.6802 40.2626 73.0057 43.7323C70.3313 40.4072 66.0666 38.1664 61.1513 38.1664C52.9834 38.0941 46.4056 44.0937 46.3333 51.5391C46.3333 58.1893 51.61 63.7552 58.6214 64.8395C58.6214 70.5499 65.1269 75.1039 73.1503 75.1762C81.1737 75.2485 87.7514 70.6222 87.7514 64.9117C87.7514 64.8395 87.7514 64.7672 87.7514 64.6949C94.546 63.6106 99.7504 58.1893 99.7504 51.6113Z" fill="white"/>
<path d="M64.4041 60.7915C65.6416 60.7915 66.6448 58.4614 66.6448 55.587C66.6448 52.7126 65.6416 50.3825 64.4041 50.3825C63.1665 50.3825 62.1633 52.7126 62.1633 55.587C62.1633 58.4614 63.1665 60.7915 64.4041 60.7915Z" fill="#15385C"/>
<path d="M82.1134 60.7915C83.3509 60.7915 84.3541 58.4614 84.3541 55.587C84.3541 52.7126 83.3509 50.3825 82.1134 50.3825C80.8758 50.3825 79.8726 52.7126 79.8726 55.587C79.8726 58.4614 80.8758 60.7915 82.1134 60.7915Z" fill="#15385C"/>
<path opacity="0.82" d="M58.5491 68.0923C60.625 68.0923 62.3079 66.7007 62.3079 64.984C62.3079 63.2674 60.625 61.8758 58.5491 61.8758C56.4733 61.8758 54.7904 63.2674 54.7904 64.984C54.7904 66.7007 56.4733 68.0923 58.5491 68.0923Z" fill="#F07F12"/>
<path opacity="0.82" d="M87.7515 67.8754C89.8273 67.8754 91.5102 66.4838 91.5102 64.7672C91.5102 63.0505 89.8273 61.6589 87.7515 61.6589C85.6756 61.6589 83.9927 63.0505 83.9927 64.7672C83.9927 66.4838 85.6756 67.8754 87.7515 67.8754Z" fill="#F07F12"/>
<path d="M75.1019 61.5866C75.0297 61.5866 74.9574 61.5866 74.8851 61.5143C74.7405 61.3698 74.7405 61.1529 74.8128 61.0083C75.1019 60.6469 75.1019 60.2132 74.8128 59.9241C74.5237 59.5627 74.0177 59.5627 73.8009 59.7072C73.5117 59.8518 73.4394 60.3578 73.3672 60.6469C73.2949 60.9361 73.2226 61.3698 72.8612 61.3698C72.4998 61.3698 72.4275 61.0083 72.3552 60.7192C72.2829 60.4301 72.1383 59.9964 71.9215 59.8518C71.7047 59.7795 71.4878 59.7795 71.271 59.8518C71.0541 59.9964 70.9095 60.5024 71.1264 60.9361C71.1987 61.1529 71.1264 61.2975 70.9095 61.4421C70.6927 61.5143 70.5481 61.4421 70.4036 61.2252C70.0421 60.4301 70.259 59.6349 70.8373 59.2012C71.271 58.9121 71.7769 58.9121 72.2106 59.1289C72.4998 59.2735 72.6443 59.4904 72.7889 59.7795C72.8612 59.4904 73.078 59.2012 73.3672 58.9844C73.8731 58.6229 74.7405 58.6952 75.3188 59.2735C75.8248 59.8518 75.8248 60.7192 75.3188 61.2975C75.3188 61.5866 75.2465 61.5866 75.1019 61.5866Z" fill="#15385C"/>
</svg>
