<svg width="153" height="151" viewBox="0 0 153 151" fill="none" xmlns="http://www.w3.org/2000/svg">
<circle opacity="0.07" cx="74.3211" cy="73.4674" r="63.2225" fill="#F77F00"/>
<g clip-path="url(#clip0_634_1184)">
<path d="M49.9804 115.386C74.3582 129.461 105.53 121.108 119.605 96.7306C133.679 72.3527 125.327 41.1809 100.949 27.1063C76.571 13.0318 45.3992 21.3842 31.3246 45.7621C17.25 70.1399 25.6025 101.312 49.9804 115.386Z" fill="#F07F12"/>
<path d="M71.8707 103.083C71.5376 104.173 72.2457 104.483 73.0186 106.901C75.0528 113.793 72.2971 121.469 71.105 122.851C71.0623 122.925 71.0196 122.999 71.0196 122.999C71.1956 123.889 81.3243 122.737 85.2552 122.247C85.679 122.195 85.8383 122.09 86.3361 122.082C86.6433 122.062 86.6432 122.062 86.7599 122.031C87.0472 121.704 85.5945 119.781 85.2362 119.377C83.4679 116.976 83.2583 114.094 82.907 109.751C82.907 109.751 82.6068 105.832 83.3021 101.895C83.3676 101.44 83.4217 101.176 83.4217 101.176C83.6268 100.308 83.6695 100.234 83.6382 100.118C83.3768 99.3754 73.0523 99.3295 71.8707 103.083Z" fill="#15385C"/>
<path d="M77.3734 107.965C100.725 106.686 118.939 92.5586 118.055 76.4099C117.171 60.2613 97.5236 48.2066 74.1716 49.4852C50.8196 50.7637 32.6058 64.8913 33.4899 81.0399C34.3741 97.1886 54.0214 109.243 77.3734 107.965Z" fill="#15385C"/>
<path d="M27.3919 91.7662C35.6781 91.3125 42.0799 85.1816 41.6906 78.0724C41.3014 70.9632 34.2686 65.5679 25.9824 66.0216C17.6962 66.4752 11.2944 72.6061 11.6837 79.7153C12.0729 86.8245 19.1057 92.2199 27.3919 91.7662Z" fill="#15385C"/>
<path d="M126.222 88.7839C134.508 88.3302 140.909 82.1993 140.52 75.0901C140.131 67.981 133.098 62.5856 124.812 63.0393C116.526 63.493 110.124 69.6239 110.513 76.7331C110.902 83.8422 117.935 89.2376 126.222 88.7839Z" fill="#15385C"/>
<path d="M73.0731 51.8252C72.7263 51.2306 71.8025 49.4157 72.1418 46.9499C72.1761 46.3782 72.6434 43.6905 75.1185 41.9649C75.4371 41.7545 78.7514 39.429 81.5609 41.0511C82.7439 41.7341 83.9863 43.3386 83.8095 45.011C83.6128 46.3761 82.6028 47.2718 82.0822 47.6613C81.8802 47.8404 81.4335 48.2726 81.2117 48.1445C80.9159 47.9737 81.9915 46.6231 81.5624 45.4881C81.227 44.703 80.2658 44.148 79.4609 44.1762C77.925 44.2753 77.1535 46.2944 76.937 47.3524C76.4072 49.8068 78.0818 51.8581 78.3661 52.2194" fill="#15385C"/>
<path d="M32.6716 76.2129C32.5893 75.6724 31.321 75.1373 30.3682 75.0801C28.8437 74.9886 27.1454 75.8812 26.249 77.4338C25.3838 79.1031 25.4257 81.5918 27.0721 82.8381C28.9715 84.3291 31.6882 83.0387 31.8162 82.8169C31.8162 82.8169 31.9443 82.5951 32.1349 82.6065C32.2515 82.5753 31.9276 81.5996 31.8338 81.2497C31.5526 80.2001 31.2233 78.0384 32.1396 76.7929C32.5009 76.5086 32.6602 76.4034 32.6716 76.2129Z" fill="white"/>
<path d="M118.7 71.6612C118.66 71.0469 119.88 70.4699 120.771 70.2938C122.201 70.0355 124.073 70.7215 125.093 72.198C126.114 73.6745 126.346 76.1746 124.804 77.6503C123.06 79.3051 120.174 78.3286 120.069 78.1693C120.069 78.1693 119.889 77.9673 119.699 77.9558C119.551 77.8705 119.799 76.9291 119.896 76.5907C120.112 75.5327 120.207 73.3199 119.089 72.1818C118.91 71.9799 118.762 71.8945 118.7 71.6612Z" fill="white"/>
<path d="M105.561 75.8067C105.1 67.5555 97.4395 61.3583 88.426 61.7735C82.9394 62.0562 78.1829 64.8306 75.3801 68.8316C72.1871 65.3122 67.3043 63.1832 61.8916 63.5085C52.8354 63.9977 45.9103 71.0406 46.3712 79.2919C46.7301 86.6955 53.0367 92.5055 60.7956 93.2389C61.223 99.4992 68.6677 104.192 77.6073 103.734C86.5469 103.276 93.4971 97.7262 93.1123 91.392C93.155 91.3181 93.0811 91.2754 93.1237 91.2014C100.576 89.392 105.962 83.1365 105.561 75.8067Z" fill="white"/>
<path d="M74.6029 88.7893C74.2988 88.1208 74.4184 87.4012 74.8224 87.043C75.1411 86.8326 75.5649 86.7816 75.9772 86.9211C76.7593 87.274 76.7646 88.46 76.9551 88.4715C77.1884 88.409 76.9613 87.0949 77.6412 86.6002C78.0765 86.3586 78.8074 86.2877 79.3136 86.7771C79.7457 87.2237 79.8166 87.9547 79.4012 88.5035" stroke="#15385C" stroke-width="2" stroke-miterlimit="10" stroke-linecap="round"/>
<path d="M50.6054 117.719C75.0649 131.84 106.341 123.46 120.463 99.0005C134.585 74.541 126.204 43.2648 101.745 29.1431C77.2851 15.0214 46.0089 23.4018 31.8872 47.8613C17.7655 72.3208 26.1459 103.597 50.6054 117.719Z" stroke="#15385C" stroke-miterlimit="10" stroke-linecap="round"/>
<path opacity="0.82" d="M61.4931 96.6452C63.8001 96.5189 65.5866 94.8898 65.4835 93.0066C65.3804 91.1234 63.4267 89.6991 61.1197 89.8254C58.8128 89.9517 57.0262 91.5808 57.1293 93.464C57.2324 95.3472 59.1862 96.7715 61.4931 96.6452Z" fill="#F07F12"/>
<path opacity="0.82" d="M92.0568 94.1847C94.3638 94.0584 96.1504 92.4294 96.0473 90.5461C95.9442 88.6629 93.9904 87.2386 91.6835 87.365C89.3765 87.4913 87.5899 89.1203 87.693 91.0035C87.7962 92.8868 89.7499 94.311 92.0568 94.1847Z" fill="#F07F12"/>
<path d="M77.7924 76.4349C77.8008 76.9327 77.8518 77.3565 77.9341 77.8969L74.2479 78.1347C74.3135 77.6796 74.2624 77.2558 74.254 76.7581L40.1056 78.5333C40.5552 86.9751 48.5852 93.3857 58.0652 92.8455C66.0832 92.4471 72.5243 87.0963 74.0367 80.3787L78.6018 80.1555C80.8495 86.678 87.8079 91.1883 95.8259 90.7899C105.306 90.2497 112.55 82.9963 112.057 74.6285L77.7924 76.4349Z" fill="#F07F12"/>
<path d="M85.7086 91.7508C85.8557 94.3988 82.3509 96.7129 77.8597 96.9788C73.3686 97.2448 69.6603 95.301 69.5133 92.6529" stroke="#15385C" stroke-width="2" stroke-miterlimit="10" stroke-linecap="round"/>
<path d="M64.6283 88.6496C65.8715 87.6914 67.6582 85.9627 69.1835 83.4916C70.2934 81.5692 70.9368 79.7719 71.324 78.4182" fill="white"/>
<path d="M103.225 86.6823C104.468 85.7242 106.255 83.9955 107.78 81.5244C108.89 79.602 109.534 77.8047 109.921 76.4509" fill="white"/>
<path d="M96.2752 48.1496L99.2116 34.6565L105.752 38.1055L96.2752 48.1496Z" fill="white"/>
</g>
<ellipse cx="110.987" cy="21.7704" rx="23.0511" ry="19.2092" fill="white"/>
<path d="M123.793 14.5136L107.358 30.7348L99.8879 23.3615" stroke="#003760" stroke-width="4" stroke-linecap="round" stroke-linejoin="round"/>
<path d="M111.875 44.3516C109.871 44.0902 107.866 43.8288 105.862 43.5674C105.514 43.5238 105.252 43.5674 104.991 43.8288C102.246 46.2686 99.5014 48.6648 96.713 51.0611C96.0159 51.671 95.2317 51.7582 94.5346 51.3661C93.8375 50.9739 93.489 50.2333 93.6197 49.3619C93.7068 48.7955 93.794 48.1856 93.8811 47.6192C94.2732 44.8309 94.6653 42.0861 95.0574 39.2977C95.101 38.9492 95.0139 38.7749 94.7525 38.6006C89.96 34.9845 87.128 30.192 86.3874 24.2668C85.6903 18.7772 87.3023 13.854 90.7878 9.58432C94.7089 4.74827 99.8935 1.91635 105.949 0.65288C113.007 -0.784865 119.76 0.130064 126.078 3.61551C130.783 6.22959 134.399 9.8893 136.36 14.9868C138.974 21.6962 138.016 28.0136 133.833 33.7646C129.868 39.2106 124.335 42.3039 117.8 43.611C115.883 44.0031 113.879 44.1338 111.875 44.3516ZM97.9329 45.0487C98.1943 44.8309 98.3686 44.7002 98.4993 44.5694C100.111 43.1753 101.767 41.7375 103.335 40.2998C104.032 39.6898 104.73 39.5156 105.644 39.7334C109.74 40.779 113.879 40.779 118.018 39.777C123.115 38.5571 127.516 36.0737 130.696 31.804C133.615 27.9265 134.704 23.5697 133.702 18.7772C132.874 14.8125 130.74 11.5885 127.603 9.10508C121.503 4.22546 114.489 2.78771 106.864 4.22546C101.331 5.27109 96.6694 7.88517 93.2276 12.4162C90.8749 15.5096 89.6114 19.0386 89.9164 22.9161C90.3956 28.6671 93.1404 33.1546 97.9765 36.3351C98.7171 36.8143 99.0221 37.4679 98.935 38.3392C98.5864 40.5176 98.2815 42.7396 97.9329 45.0487Z" fill="#003760"/>
<defs>
<clipPath id="clip0_634_1184">
<rect width="114.316" height="107.999" fill="white" transform="translate(53.9993) rotate(30)"/>
</clipPath>
</defs>
</svg>
