<svg width="333" height="539" viewBox="0 0 333 539" fill="none" xmlns="http://www.w3.org/2000/svg">
<g filter="url(#filter0_d_836_860)">
<path d="M295 98.8182C289.632 -16.9196 109.745 -31.4028 56.0665 57.538C26.6072 101.498 50.0596 160.388 95.4947 182.591C97.5396 183.739 97.9869 184.888 97.4757 187.057C97.0923 203.391 64.5017 226.487 78.5604 226.998C108.787 227.189 137.99 216.087 163.935 201.285C222.853 198.669 292.124 165.364 295 98.8182Z" fill="#003760"/>
</g>
<path d="M113.049 59.336C113.483 59.336 113.847 59.492 114.141 59.804C114.453 60.116 114.609 60.4973 114.609 60.948C114.609 61.3987 114.453 61.78 114.141 62.092C113.847 62.404 113.483 62.56 113.049 62.56C112.599 62.56 112.217 62.404 111.905 62.092C111.593 61.78 111.437 61.3987 111.437 60.948C111.437 60.4973 111.593 60.116 111.905 59.804C112.217 59.492 112.599 59.336 113.049 59.336ZM111.957 64.614H113.933L114.219 77.614H111.671L111.957 64.614ZM121.262 57.802V63.86H127.866V65.81H121.262V72.05H128.646V74H118.896V55.852H128.646V57.802H121.262ZM137.27 74.234C136.178 74.234 135.198 74.052 134.332 73.688C133.465 73.3067 132.78 72.7867 132.278 72.128C131.775 71.452 131.498 70.6807 131.446 69.814H133.89C133.959 70.5247 134.288 71.1053 134.878 71.556C135.484 72.0067 136.273 72.232 137.244 72.232C138.145 72.232 138.856 72.0327 139.376 71.634C139.896 71.2353 140.156 70.7327 140.156 70.126C140.156 69.502 139.878 69.0427 139.324 68.748C138.769 68.436 137.911 68.1327 136.75 67.838C135.692 67.5607 134.826 67.2833 134.15 67.006C133.491 66.7113 132.919 66.2867 132.434 65.732C131.966 65.16 131.732 64.4147 131.732 63.496C131.732 62.768 131.948 62.1007 132.382 61.494C132.815 60.8873 133.43 60.4107 134.228 60.064C135.025 59.7 135.935 59.518 136.958 59.518C138.535 59.518 139.809 59.9167 140.78 60.714C141.75 61.5113 142.27 62.6033 142.34 63.99H139.974C139.922 63.2447 139.618 62.6467 139.064 62.196C138.526 61.7453 137.798 61.52 136.88 61.52C136.03 61.52 135.354 61.702 134.852 62.066C134.349 62.43 134.098 62.9067 134.098 63.496C134.098 63.964 134.245 64.354 134.54 64.666C134.852 64.9607 135.233 65.2033 135.684 65.394C136.152 65.5673 136.793 65.7667 137.608 65.992C138.63 66.2693 139.462 66.5467 140.104 66.824C140.745 67.084 141.291 67.4827 141.742 68.02C142.21 68.5573 142.452 69.2593 142.47 70.126C142.47 70.906 142.253 71.608 141.82 72.232C141.386 72.856 140.771 73.35 139.974 73.714C139.194 74.0607 138.292 74.234 137.27 74.234ZM148.696 61.702V70.1C148.696 70.7933 148.843 71.2873 149.138 71.582C149.432 71.8593 149.944 71.998 150.672 71.998H152.414V74H150.282C148.964 74 147.976 73.6967 147.318 73.09C146.659 72.4833 146.33 71.4867 146.33 70.1V61.702H144.484V59.752H146.33V56.164H148.696V59.752H152.414V61.702H148.696ZM154.396 66.824C154.396 65.368 154.691 64.094 155.28 63.002C155.87 61.8927 156.676 61.0347 157.698 60.428C158.738 59.8213 159.891 59.518 161.156 59.518C162.404 59.518 163.488 59.7867 164.406 60.324C165.325 60.8613 166.01 61.5373 166.46 62.352V59.752H168.852V74H166.46V71.348C165.992 72.18 165.29 72.8733 164.354 73.428C163.436 73.9653 162.361 74.234 161.13 74.234C159.865 74.234 158.721 73.922 157.698 73.298C156.676 72.674 155.87 71.7987 155.28 70.672C154.691 69.5453 154.396 68.2627 154.396 66.824ZM166.46 66.85C166.46 65.7753 166.244 64.8393 165.81 64.042C165.377 63.2447 164.788 62.638 164.042 62.222C163.314 61.7887 162.508 61.572 161.624 61.572C160.74 61.572 159.934 61.78 159.206 62.196C158.478 62.612 157.898 63.2187 157.464 64.016C157.031 64.8133 156.814 65.7493 156.814 66.824C156.814 67.916 157.031 68.8693 157.464 69.684C157.898 70.4813 158.478 71.0967 159.206 71.53C159.934 71.946 160.74 72.154 161.624 72.154C162.508 72.154 163.314 71.946 164.042 71.53C164.788 71.0967 165.377 70.4813 165.81 69.684C166.244 68.8693 166.46 67.9247 166.46 66.85ZM189.985 59.492C191.094 59.492 192.082 59.726 192.949 60.194C193.815 60.6447 194.5 61.3293 195.003 62.248C195.505 63.1667 195.757 64.2847 195.757 65.602V74H193.417V65.94C193.417 64.5187 193.061 63.4353 192.351 62.69C191.657 61.9273 190.713 61.546 189.517 61.546C188.286 61.546 187.307 61.9447 186.579 62.742C185.851 63.522 185.487 64.6573 185.487 66.148V74H183.147V65.94C183.147 64.5187 182.791 63.4353 182.081 62.69C181.387 61.9273 180.443 61.546 179.247 61.546C178.016 61.546 177.037 61.9447 176.309 62.742C175.581 63.522 175.217 64.6573 175.217 66.148V74H172.851V59.752H175.217V61.806C175.685 61.0607 176.309 60.4887 177.089 60.09C177.886 59.6913 178.761 59.492 179.715 59.492C180.911 59.492 181.968 59.7607 182.887 60.298C183.805 60.8353 184.49 61.624 184.941 62.664C185.339 61.6587 185.998 60.8787 186.917 60.324C187.835 59.7693 188.858 59.492 189.985 59.492ZM205.852 74.234C204.517 74.234 203.304 73.9307 202.212 73.324C201.137 72.7173 200.288 71.8593 199.664 70.75C199.057 69.6233 198.754 68.3233 198.754 66.85C198.754 65.394 199.066 64.1113 199.69 63.002C200.331 61.8753 201.198 61.0173 202.29 60.428C203.382 59.8213 204.604 59.518 205.956 59.518C207.308 59.518 208.53 59.8213 209.622 60.428C210.714 61.0173 211.572 61.8667 212.196 62.976C212.837 64.0853 213.158 65.3767 213.158 66.85C213.158 68.3233 212.828 69.6233 212.17 70.75C211.528 71.8593 210.653 72.7173 209.544 73.324C208.434 73.9307 207.204 74.234 205.852 74.234ZM205.852 72.154C206.701 72.154 207.498 71.9547 208.244 71.556C208.989 71.1573 209.587 70.5593 210.038 69.762C210.506 68.9647 210.74 67.994 210.74 66.85C210.74 65.706 210.514 64.7353 210.064 63.938C209.613 63.1407 209.024 62.5513 208.296 62.17C207.568 61.7713 206.779 61.572 205.93 61.572C205.063 61.572 204.266 61.7713 203.538 62.17C202.827 62.5513 202.255 63.1407 201.822 63.938C201.388 64.7353 201.172 65.706 201.172 66.85C201.172 68.0113 201.38 68.9907 201.796 69.788C202.229 70.5853 202.801 71.1833 203.512 71.582C204.222 71.9633 205.002 72.154 205.852 72.154ZM221.313 74.234C220.221 74.234 219.241 74.052 218.375 73.688C217.508 73.3067 216.823 72.7867 216.321 72.128C215.818 71.452 215.541 70.6807 215.489 69.814H217.933C218.002 70.5247 218.331 71.1053 218.921 71.556C219.527 72.0067 220.316 72.232 221.287 72.232C222.188 72.232 222.899 72.0327 223.419 71.634C223.939 71.2353 224.199 70.7327 224.199 70.126C224.199 69.502 223.921 69.0427 223.367 68.748C222.812 68.436 221.954 68.1327 220.793 67.838C219.735 67.5607 218.869 67.2833 218.193 67.006C217.534 66.7113 216.962 66.2867 216.477 65.732C216.009 65.16 215.775 64.4147 215.775 63.496C215.775 62.768 215.991 62.1007 216.425 61.494C216.858 60.8873 217.473 60.4107 218.271 60.064C219.068 59.7 219.978 59.518 221.001 59.518C222.578 59.518 223.852 59.9167 224.823 60.714C225.793 61.5113 226.313 62.6033 226.383 63.99H224.017C223.965 63.2447 223.661 62.6467 223.107 62.196C222.569 61.7453 221.841 61.52 220.923 61.52C220.073 61.52 219.397 61.702 218.895 62.066C218.392 62.43 218.141 62.9067 218.141 63.496C218.141 63.964 218.288 64.354 218.583 64.666C218.895 64.9607 219.276 65.2033 219.727 65.394C220.195 65.5673 220.836 65.7667 221.651 65.992C222.673 66.2693 223.505 66.5467 224.147 66.824C224.788 67.084 225.334 67.4827 225.785 68.02C226.253 68.5573 226.495 69.2593 226.513 70.126C226.513 70.906 226.296 71.608 225.863 72.232C225.429 72.856 224.814 73.35 224.017 73.714C223.237 74.0607 222.335 74.234 221.313 74.234ZM74.5682 101.378C75.0362 100.563 75.7295 99.8873 76.6482 99.35C77.5842 98.7953 78.6675 98.518 79.8982 98.518C81.1635 98.518 82.3075 98.8213 83.3302 99.428C84.3702 100.035 85.1849 100.893 85.7742 102.002C86.3635 103.094 86.6582 104.368 86.6582 105.824C86.6582 107.263 86.3635 108.545 85.7742 109.672C85.1849 110.799 84.3702 111.674 83.3302 112.298C82.3075 112.922 81.1635 113.234 79.8982 113.234C78.6849 113.234 77.6102 112.965 76.6742 112.428C75.7555 111.873 75.0535 111.189 74.5682 110.374V119.76H72.2022V98.752H74.5682V101.378ZM84.2402 105.824C84.2402 104.749 84.0235 103.813 83.5902 103.016C83.1569 102.219 82.5675 101.612 81.8222 101.196C81.0942 100.78 80.2882 100.572 79.4042 100.572C78.5375 100.572 77.7315 100.789 76.9862 101.222C76.2582 101.638 75.6689 102.253 75.2182 103.068C74.7849 103.865 74.5682 104.793 74.5682 105.85C74.5682 106.925 74.7849 107.869 75.2182 108.684C75.6689 109.481 76.2582 110.097 76.9862 110.53C77.7315 110.946 78.5375 111.154 79.4042 111.154C80.2882 111.154 81.0942 110.946 81.8222 110.53C82.5675 110.097 83.1569 109.481 83.5902 108.684C84.0235 107.869 84.2402 106.916 84.2402 105.824ZM92.1385 101.066C92.5545 100.251 93.1438 99.6187 93.9065 99.168C94.6865 98.7173 95.6312 98.492 96.7405 98.492V100.936H96.1165C93.4645 100.936 92.1385 102.375 92.1385 105.252V113H89.7725V98.752H92.1385V101.066ZM112.472 105.33C112.472 105.781 112.446 106.257 112.394 106.76H101.006C101.092 108.164 101.569 109.265 102.436 110.062C103.32 110.842 104.386 111.232 105.634 111.232C106.656 111.232 107.506 110.998 108.182 110.53C108.875 110.045 109.36 109.403 109.638 108.606H112.186C111.804 109.975 111.042 111.093 109.898 111.96C108.754 112.809 107.332 113.234 105.634 113.234C104.282 113.234 103.068 112.931 101.994 112.324C100.936 111.717 100.104 110.859 99.4977 109.75C98.8911 108.623 98.5877 107.323 98.5877 105.85C98.5877 104.377 98.8824 103.085 99.4717 101.976C100.061 100.867 100.884 100.017 101.942 99.428C103.016 98.8213 104.247 98.518 105.634 98.518C106.986 98.518 108.182 98.8127 109.222 99.402C110.262 99.9913 111.059 100.806 111.614 101.846C112.186 102.869 112.472 104.03 112.472 105.33ZM110.028 104.836C110.028 103.935 109.828 103.163 109.43 102.522C109.031 101.863 108.485 101.369 107.792 101.04C107.116 100.693 106.362 100.52 105.53 100.52C104.334 100.52 103.311 100.901 102.462 101.664C101.63 102.427 101.153 103.484 101.032 104.836H110.028ZM117.961 101.378C118.429 100.563 119.122 99.8873 120.041 99.35C120.977 98.7953 122.06 98.518 123.291 98.518C124.556 98.518 125.7 98.8213 126.723 99.428C127.763 100.035 128.577 100.893 129.167 102.002C129.756 103.094 130.051 104.368 130.051 105.824C130.051 107.263 129.756 108.545 129.167 109.672C128.577 110.799 127.763 111.674 126.723 112.298C125.7 112.922 124.556 113.234 123.291 113.234C122.077 113.234 121.003 112.965 120.067 112.428C119.148 111.873 118.446 111.189 117.961 110.374V119.76H115.595V98.752H117.961V101.378ZM127.633 105.824C127.633 104.749 127.416 103.813 126.983 103.016C126.549 102.219 125.96 101.612 125.215 101.196C124.487 100.78 123.681 100.572 122.797 100.572C121.93 100.572 121.124 100.789 120.379 101.222C119.651 101.638 119.061 102.253 118.611 103.068C118.177 103.865 117.961 104.793 117.961 105.85C117.961 106.925 118.177 107.869 118.611 108.684C119.061 109.481 119.651 110.097 120.379 110.53C121.124 110.946 121.93 111.154 122.797 111.154C123.681 111.154 124.487 110.946 125.215 110.53C125.96 110.097 126.549 109.481 126.983 108.684C127.416 107.869 127.633 106.916 127.633 105.824ZM132.281 105.824C132.281 104.368 132.576 103.094 133.165 102.002C133.754 100.893 134.56 100.035 135.583 99.428C136.623 98.8213 137.776 98.518 139.041 98.518C140.289 98.518 141.372 98.7867 142.291 99.324C143.21 99.8613 143.894 100.537 144.345 101.352V98.752H146.737V113H144.345V110.348C143.877 111.18 143.175 111.873 142.239 112.428C141.32 112.965 140.246 113.234 139.015 113.234C137.75 113.234 136.606 112.922 135.583 112.298C134.56 111.674 133.754 110.799 133.165 109.672C132.576 108.545 132.281 107.263 132.281 105.824ZM144.345 105.85C144.345 104.775 144.128 103.839 143.695 103.042C143.262 102.245 142.672 101.638 141.927 101.222C141.199 100.789 140.393 100.572 139.509 100.572C138.625 100.572 137.819 100.78 137.091 101.196C136.363 101.612 135.782 102.219 135.349 103.016C134.916 103.813 134.699 104.749 134.699 105.824C134.699 106.916 134.916 107.869 135.349 108.684C135.782 109.481 136.363 110.097 137.091 110.53C137.819 110.946 138.625 111.154 139.509 111.154C140.393 111.154 141.199 110.946 141.927 110.53C142.672 110.097 143.262 109.481 143.695 108.684C144.128 107.869 144.345 106.925 144.345 105.85ZM153.101 101.066C153.517 100.251 154.107 99.6187 154.869 99.168C155.649 98.7173 156.594 98.492 157.703 98.492V100.936H157.079C154.427 100.936 153.101 102.375 153.101 105.252V113H150.735V98.752H153.101V101.066ZM159.551 105.824C159.551 104.368 159.845 103.094 160.435 102.002C161.024 100.893 161.83 100.035 162.853 99.428C163.893 98.8213 165.045 98.518 166.311 98.518C167.559 98.518 168.642 98.7867 169.561 99.324C170.479 99.8613 171.164 100.537 171.615 101.352V98.752H174.007V113H171.615V110.348C171.147 111.18 170.445 111.873 169.509 112.428C168.59 112.965 167.515 113.234 166.285 113.234C165.019 113.234 163.875 112.922 162.853 112.298C161.83 111.674 161.024 110.799 160.435 109.672C159.845 108.545 159.551 107.263 159.551 105.824ZM171.615 105.85C171.615 104.775 171.398 103.839 170.965 103.042C170.531 102.245 169.942 101.638 169.197 101.222C168.469 100.789 167.663 100.572 166.779 100.572C165.895 100.572 165.089 100.78 164.361 101.196C163.633 101.612 163.052 102.219 162.619 103.016C162.185 103.813 161.969 104.749 161.969 105.824C161.969 106.916 162.185 107.869 162.619 108.684C163.052 109.481 163.633 110.097 164.361 110.53C165.089 110.946 165.895 111.154 166.779 111.154C167.663 111.154 168.469 110.946 169.197 110.53C169.942 110.097 170.531 109.481 170.965 108.684C171.398 107.869 171.615 106.925 171.615 105.85ZM184.947 98.492C186.68 98.492 188.084 99.0207 189.159 100.078C190.234 101.118 190.771 102.626 190.771 104.602V113H188.431V104.94C188.431 103.519 188.076 102.435 187.365 101.69C186.654 100.927 185.684 100.546 184.453 100.546C183.205 100.546 182.208 100.936 181.463 101.716C180.735 102.496 180.371 103.631 180.371 105.122V113H178.005V98.752H180.371V100.78C180.839 100.052 181.472 99.4887 182.269 99.09C183.084 98.6913 183.976 98.492 184.947 98.492ZM193.752 105.824C193.752 104.368 194.046 103.094 194.636 102.002C195.225 100.893 196.031 100.035 197.054 99.428C198.094 98.8213 199.255 98.518 200.538 98.518C201.647 98.518 202.678 98.778 203.632 99.298C204.585 99.8007 205.313 100.468 205.816 101.3V93.76H208.208V113H205.816V110.322C205.348 111.171 204.654 111.873 203.736 112.428C202.817 112.965 201.742 113.234 200.512 113.234C199.246 113.234 198.094 112.922 197.054 112.298C196.031 111.674 195.225 110.799 194.636 109.672C194.046 108.545 193.752 107.263 193.752 105.824ZM205.816 105.85C205.816 104.775 205.599 103.839 205.166 103.042C204.732 102.245 204.143 101.638 203.398 101.222C202.67 100.789 201.864 100.572 200.98 100.572C200.096 100.572 199.29 100.78 198.562 101.196C197.834 101.612 197.253 102.219 196.82 103.016C196.386 103.813 196.17 104.749 196.17 105.824C196.17 106.916 196.386 107.869 196.82 108.684C197.253 109.481 197.834 110.097 198.562 110.53C199.29 110.946 200.096 111.154 200.98 111.154C201.864 111.154 202.67 110.946 203.398 110.53C204.143 110.097 204.732 109.481 205.166 108.684C205.599 107.869 205.816 106.925 205.816 105.85ZM218.42 113.234C217.085 113.234 215.872 112.931 214.78 112.324C213.705 111.717 212.856 110.859 212.232 109.75C211.625 108.623 211.322 107.323 211.322 105.85C211.322 104.394 211.634 103.111 212.258 102.002C212.899 100.875 213.766 100.017 214.858 99.428C215.95 98.8213 217.172 98.518 218.524 98.518C219.876 98.518 221.098 98.8213 222.19 99.428C223.282 100.017 224.14 100.867 224.764 101.976C225.405 103.085 225.726 104.377 225.726 105.85C225.726 107.323 225.397 108.623 224.738 109.75C224.097 110.859 223.221 111.717 222.112 112.324C221.003 112.931 219.772 113.234 218.42 113.234ZM218.42 111.154C219.269 111.154 220.067 110.955 220.812 110.556C221.557 110.157 222.155 109.559 222.606 108.762C223.074 107.965 223.308 106.994 223.308 105.85C223.308 104.706 223.083 103.735 222.632 102.938C222.181 102.141 221.592 101.551 220.864 101.17C220.136 100.771 219.347 100.572 218.498 100.572C217.631 100.572 216.834 100.771 216.106 101.17C215.395 101.551 214.823 102.141 214.39 102.938C213.957 103.735 213.74 104.706 213.74 105.85C213.74 107.011 213.948 107.991 214.364 108.788C214.797 109.585 215.369 110.183 216.08 110.582C216.791 110.963 217.571 111.154 218.42 111.154ZM238.655 100.702V109.1C238.655 109.793 238.802 110.287 239.097 110.582C239.391 110.859 239.903 110.998 240.631 110.998H242.373V113H240.241C238.923 113 237.935 112.697 237.277 112.09C236.618 111.483 236.289 110.487 236.289 109.1V100.702H234.443V98.752H236.289V95.164H238.655V98.752H242.373V100.702H238.655ZM257.875 98.752V113H255.509V110.894C255.059 111.622 254.426 112.194 253.611 112.61C252.814 113.009 251.93 113.208 250.959 113.208C249.85 113.208 248.853 112.983 247.969 112.532C247.085 112.064 246.383 111.371 245.863 110.452C245.361 109.533 245.109 108.415 245.109 107.098V98.752H247.449V106.786C247.449 108.19 247.805 109.273 248.515 110.036C249.226 110.781 250.197 111.154 251.427 111.154C252.693 111.154 253.689 110.764 254.417 109.984C255.145 109.204 255.509 108.069 255.509 106.578V98.752H257.875ZM123.064 140.378C123.532 139.563 124.226 138.887 125.144 138.35C126.08 137.795 127.164 137.518 128.394 137.518C129.66 137.518 130.804 137.821 131.826 138.428C132.866 139.035 133.681 139.893 134.27 141.002C134.86 142.094 135.154 143.368 135.154 144.824C135.154 146.263 134.86 147.545 134.27 148.672C133.681 149.799 132.866 150.674 131.826 151.298C130.804 151.922 129.66 152.234 128.394 152.234C127.181 152.234 126.106 151.965 125.17 151.428C124.252 150.873 123.55 150.189 123.064 149.374V158.76H120.698V137.752H123.064V140.378ZM132.736 144.824C132.736 143.749 132.52 142.813 132.086 142.016C131.653 141.219 131.064 140.612 130.318 140.196C129.59 139.78 128.784 139.572 127.9 139.572C127.034 139.572 126.228 139.789 125.482 140.222C124.754 140.638 124.165 141.253 123.714 142.068C123.281 142.865 123.064 143.793 123.064 144.85C123.064 145.925 123.281 146.869 123.714 147.684C124.165 148.481 124.754 149.097 125.482 149.53C126.228 149.946 127.034 150.154 127.9 150.154C128.784 150.154 129.59 149.946 130.318 149.53C131.064 149.097 131.653 148.481 132.086 147.684C132.52 146.869 132.736 145.916 132.736 144.824ZM151.269 144.33C151.269 144.781 151.243 145.257 151.191 145.76H139.803C139.889 147.164 140.366 148.265 141.233 149.062C142.117 149.842 143.183 150.232 144.431 150.232C145.453 150.232 146.303 149.998 146.979 149.53C147.672 149.045 148.157 148.403 148.435 147.606H150.983C150.601 148.975 149.839 150.093 148.695 150.96C147.551 151.809 146.129 152.234 144.431 152.234C143.079 152.234 141.865 151.931 140.791 151.324C139.733 150.717 138.901 149.859 138.295 148.75C137.688 147.623 137.385 146.323 137.385 144.85C137.385 143.377 137.679 142.085 138.269 140.976C138.858 139.867 139.681 139.017 140.739 138.428C141.813 137.821 143.044 137.518 144.431 137.518C145.783 137.518 146.979 137.813 148.019 138.402C149.059 138.991 149.856 139.806 150.411 140.846C150.983 141.869 151.269 143.03 151.269 144.33ZM148.825 143.836C148.825 142.935 148.625 142.163 148.227 141.522C147.828 140.863 147.282 140.369 146.589 140.04C145.913 139.693 145.159 139.52 144.327 139.52C143.131 139.52 142.108 139.901 141.259 140.664C140.427 141.427 139.95 142.484 139.829 143.836H148.825ZM153.508 144.824C153.508 143.368 153.802 142.094 154.392 141.002C154.981 139.893 155.787 139.035 156.81 138.428C157.85 137.821 159.011 137.518 160.294 137.518C161.403 137.518 162.434 137.778 163.388 138.298C164.341 138.801 165.069 139.468 165.572 140.3V132.76H167.964V152H165.572V149.322C165.104 150.171 164.41 150.873 163.492 151.428C162.573 151.965 161.498 152.234 160.268 152.234C159.002 152.234 157.85 151.922 156.81 151.298C155.787 150.674 154.981 149.799 154.392 148.672C153.802 147.545 153.508 146.263 153.508 144.824ZM165.572 144.85C165.572 143.775 165.355 142.839 164.922 142.042C164.488 141.245 163.899 140.638 163.154 140.222C162.426 139.789 161.62 139.572 160.736 139.572C159.852 139.572 159.046 139.78 158.318 140.196C157.59 140.612 157.009 141.219 156.576 142.016C156.142 142.813 155.926 143.749 155.926 144.824C155.926 145.916 156.142 146.869 156.576 147.684C157.009 148.481 157.59 149.097 158.318 149.53C159.046 149.946 159.852 150.154 160.736 150.154C161.62 150.154 162.426 149.946 163.154 149.53C163.899 149.097 164.488 148.481 164.922 147.684C165.355 146.869 165.572 145.925 165.572 144.85ZM173.184 135.438C172.733 135.438 172.352 135.282 172.04 134.97C171.728 134.658 171.572 134.277 171.572 133.826C171.572 133.375 171.728 132.994 172.04 132.682C172.352 132.37 172.733 132.214 173.184 132.214C173.617 132.214 173.981 132.37 174.276 132.682C174.588 132.994 174.744 133.375 174.744 133.826C174.744 134.277 174.588 134.658 174.276 134.97C173.981 135.282 173.617 135.438 173.184 135.438ZM174.328 137.752V152H171.962V137.752H174.328ZM177.476 144.824C177.476 143.368 177.771 142.094 178.36 141.002C178.95 139.893 179.756 139.035 180.778 138.428C181.818 137.821 182.98 137.518 184.262 137.518C185.372 137.518 186.403 137.778 187.356 138.298C188.31 138.801 189.038 139.468 189.54 140.3V132.76H191.932V152H189.54V149.322C189.072 150.171 188.379 150.873 187.46 151.428C186.542 151.965 185.467 152.234 184.236 152.234C182.971 152.234 181.818 151.922 180.778 151.298C179.756 150.674 178.95 149.799 178.36 148.672C177.771 147.545 177.476 146.263 177.476 144.824ZM189.54 144.85C189.54 143.775 189.324 142.839 188.89 142.042C188.457 141.245 187.868 140.638 187.122 140.222C186.394 139.789 185.588 139.572 184.704 139.572C183.82 139.572 183.014 139.78 182.286 140.196C181.558 140.612 180.978 141.219 180.544 142.016C180.111 142.813 179.894 143.749 179.894 144.824C179.894 145.916 180.111 146.869 180.544 147.684C180.978 148.481 181.558 149.097 182.286 149.53C183.014 149.946 183.82 150.154 184.704 150.154C185.588 150.154 186.394 149.946 187.122 149.53C187.868 149.097 188.457 148.481 188.89 147.684C189.324 146.869 189.54 145.925 189.54 144.85ZM202.145 152.234C200.81 152.234 199.597 151.931 198.505 151.324C197.43 150.717 196.581 149.859 195.957 148.75C195.35 147.623 195.047 146.323 195.047 144.85C195.047 143.394 195.359 142.111 195.983 141.002C196.624 139.875 197.491 139.017 198.583 138.428C199.675 137.821 200.897 137.518 202.249 137.518C203.601 137.518 204.823 137.821 205.915 138.428C207.007 139.017 207.865 139.867 208.489 140.976C209.13 142.085 209.451 143.377 209.451 144.85C209.451 146.323 209.121 147.623 208.463 148.75C207.821 149.859 206.946 150.717 205.837 151.324C204.727 151.931 203.497 152.234 202.145 152.234ZM202.145 150.154C202.994 150.154 203.791 149.955 204.537 149.556C205.282 149.157 205.88 148.559 206.331 147.762C206.799 146.965 207.033 145.994 207.033 144.85C207.033 143.706 206.807 142.735 206.357 141.938C205.906 141.141 205.317 140.551 204.589 140.17C203.861 139.771 203.072 139.572 202.223 139.572C201.356 139.572 200.559 139.771 199.831 140.17C199.12 140.551 198.548 141.141 198.115 141.938C197.681 142.735 197.465 143.706 197.465 144.85C197.465 146.011 197.673 146.991 198.089 147.788C198.522 148.585 199.094 149.183 199.805 149.582C200.515 149.963 201.295 150.154 202.145 150.154ZM215.63 133.878L215.344 146.878H213.368L213.082 133.878H215.63ZM214.46 152.156C214.009 152.156 213.628 152 213.316 151.688C213.004 151.376 212.848 150.995 212.848 150.544C212.848 150.093 213.004 149.712 213.316 149.4C213.628 149.088 214.009 148.932 214.46 148.932C214.893 148.932 215.257 149.088 215.552 149.4C215.864 149.712 216.02 150.093 216.02 150.544C216.02 150.995 215.864 151.376 215.552 151.688C215.257 152 214.893 152.156 214.46 152.156Z" fill="white"/>
<path d="M105.169 347.237L87.0766 338.442C65.012 327.715 50.7493 304.9 50.7493 280.313V246.997H84.2693V280.313C84.2693 292.115 91.1157 303.06 101.7 308.21L119.792 317.005L105.169 347.237Z" fill="#EBEBEB"/>
<path d="M86.1883 254.003H48.8303C47.8079 254.003 46.9783 253.172 46.9783 252.147V241.856C46.9783 240.832 47.8079 240 48.8303 240H86.1883C87.2106 240 88.0403 240.832 88.0403 241.856V252.147C88.0403 253.172 87.2106 254.003 86.1883 254.003Z" fill="#EBEBEB"/>
<path d="M86.8754 500.462H293.082V374.779H86.8754L86.8754 500.462Z" fill="#F5F5F5"/>
<path d="M270.942 490.948H109.024C108.605 490.948 108.27 490.612 108.27 490.192V416.413C108.27 415.993 108.605 415.657 109.024 415.657H270.942C271.361 415.657 271.696 415.993 271.696 416.413V490.192C271.696 490.612 271.361 490.948 270.942 490.948ZM109.778 489.436H270.196V417.16H109.778V489.436Z" fill="white"/>
<path d="M84.8572 500.465H290.737V483.891H84.8572V500.465Z" fill="#E6E6E6"/>
<path d="M332.317 374.773H293.082V500.457H332.317V374.773Z" fill="#EBEBEB"/>
<path d="M332.317 483.883H290.736V500.457H332.317V483.883Z" fill="#E0E0E0"/>
<path d="M209.601 263.764C146.323 263.764 95.0292 313.468 95.0292 374.773H324.172C324.172 313.468 272.878 263.764 209.601 263.764Z" fill="#F5F5F5"/>
<path d="M298.596 326.757H278.065V334.082H298.596V326.757Z" fill="#EBEBEB"/>
<path d="M288.331 334.082H267.8V341.407H288.331V334.082Z" fill="#EBEBEB"/>
<path d="M159.036 306.597H138.505V313.922H159.036V306.597Z" fill="#EBEBEB"/>
<path d="M250.847 285.596H230.316V292.921H250.847V285.596Z" fill="#EBEBEB"/>
<path d="M148.77 313.922H128.239V321.247H148.77V313.922Z" fill="#EBEBEB"/>
<path d="M121.284 374.773V366.373C121.284 327.95 152.105 296.693 189.983 296.693C227.861 296.693 258.682 327.95 258.682 366.373V374.773H121.284Z" fill="white"/>
<path d="M189.983 313.493C157.812 313.493 131.734 340.928 131.734 374.773H248.224C248.232 340.928 222.154 313.493 189.983 313.493Z" fill="#E0E0E0"/>
<path d="M234.506 266.393C280.236 287.369 298.479 324.934 298.479 374.773H324.172C324.172 321.759 285.808 277.415 234.506 266.393Z" fill="#E6E6E6"/>
<path d="M199.938 305.337H180.028C178.251 305.337 176.751 303.69 176.533 301.489L175.352 289.318C175.1 286.714 176.734 284.429 178.846 284.429H201.12C203.232 284.429 204.866 286.722 204.614 289.318L203.433 301.489C203.215 303.682 201.715 305.337 199.938 305.337Z" fill="white"/>
<path d="M161.248 374.773C153.882 366.566 161.399 344.095 168.463 335.729C165.153 355.553 175.829 361.711 182.6 354.428C189.371 347.145 187.26 332.587 182.6 324.934C200.793 325.867 207.547 339.391 208.771 348.085C210.422 359.846 228.472 352.008 222.305 339.122C231.933 349.203 238.093 361.139 233.282 374.773C201.707 374.773 161.248 374.773 161.248 374.773Z" fill="white"/>
<path d="M280.546 392.842H260.015V400.167H280.546V392.842Z" fill="#EBEBEB"/>
<path d="M238.738 459.128H218.207V466.453H238.738V459.128Z" fill="#EBEBEB"/>
<path d="M270.28 400.167H249.749V407.492H270.28V400.167Z" fill="#EBEBEB"/>
<path d="M125.344 449.637H145.875V442.312H125.344V449.637Z" fill="#EBEBEB"/>
<path d="M145.869 449.637H166.4V442.312H145.869V449.637Z" fill="#EBEBEB"/>
<path d="M135.606 456.966H156.137V449.641H135.606V456.966Z" fill="#EBEBEB"/>
<path d="M3.46937 353.52H1.77661V500.457H3.46937V353.52Z" fill="#F5F5F5"/>
<path d="M17.8578 353.52H16.165V500.457H17.8578V353.52Z" fill="#F5F5F5"/>
<path d="M53.699 359.989H0V365.247H53.699V359.989Z" fill="#F0F0F0"/>
<path d="M74.0624 359.989H53.7074V365.247H74.0624V359.989Z" fill="#E6E6E6"/>
<path d="M53.699 412.549H0V417.807H53.699V412.549Z" fill="#F0F0F0"/>
<path d="M74.0624 412.549H53.7074V417.807H74.0624V412.549Z" fill="#E6E6E6"/>
<path d="M53.699 465.1H0V470.359H53.699V465.1Z" fill="#F0F0F0"/>
<path d="M74.0624 465.1H53.7074V470.359H74.0624V465.1Z" fill="#E6E6E6"/>
<path d="M62.5483 408.206H8.40508C7.21512 408.206 6.24304 409.18 6.24304 410.373C6.24304 411.566 7.21512 412.54 8.40508 412.54H62.5483C63.7382 412.54 64.7103 411.566 64.7103 410.373C64.7187 409.18 63.7382 408.206 62.5483 408.206Z" fill="#EBEBEB"/>
<path d="M57.9812 353.52H56.2885V500.457H57.9812V353.52Z" fill="#F5F5F5"/>
<path d="M72.3696 353.52H70.6769V500.457H72.3696V353.52Z" fill="#F5F5F5"/>
<path d="M169.837 538.4C259.573 538.4 332.317 534.143 332.317 528.891C332.317 523.64 259.573 519.382 169.837 519.382C80.1024 519.382 7.35767 523.64 7.35767 528.891C7.35767 534.143 80.1024 538.4 169.837 538.4Z" fill="#F5F5F5"/>
<path d="M306.716 395.967H32.9668V402.317H306.716V395.967Z" fill="#263238"/>
<path d="M55.1738 526.17H51.2604L59.6404 400.822H65.2298L55.1738 526.17Z" fill="#263238"/>
<path d="M284.501 526.17H288.414L280.034 400.822H274.445L284.501 526.17Z" fill="#263238"/>
<path d="M194.273 389.876C195.84 390.095 197.667 390.036 199.184 390.002C199.863 389.986 200.416 390.532 200.416 391.212C200.416 391.892 199.863 392.438 199.184 392.422C197.667 392.388 195.84 392.329 194.273 392.548C192.245 392.825 190.402 392.338 190.402 391.212C190.402 390.086 192.254 389.591 194.273 389.876Z" fill="#D77207"/>
<path d="M240.782 386.441H199.863C197.248 386.441 195.111 388.583 195.111 391.204C195.111 393.824 197.248 395.967 199.863 395.967H240.782C243.397 395.967 245.534 393.824 245.534 391.204C245.534 388.583 243.397 386.441 240.782 386.441Z" fill="#F77F00"/>
<path opacity="0.2" d="M240.791 386.441C238.176 386.441 236.039 388.583 236.039 391.204C236.039 393.824 238.176 395.967 240.791 395.967C243.405 395.967 245.542 393.824 245.542 391.204C245.542 388.583 243.397 386.441 240.791 386.441Z" fill="black"/>
<path d="M246.933 389.876C245.366 390.095 243.539 390.036 242.023 390.002C241.344 389.986 240.791 390.532 240.791 391.212C240.791 391.892 241.344 392.438 242.023 392.422C243.539 392.388 245.366 392.329 246.933 392.548C248.961 392.825 250.805 392.338 250.805 391.212C250.805 390.086 248.961 389.591 246.933 389.876Z" fill="#D77207"/>
<path d="M81.311 392.758C81.311 392.758 84.7552 390.918 79.702 386.676C74.6489 382.434 77.1964 371.799 77.1964 371.799C77.1964 371.799 78.9646 372.211 78.9646 370.464C78.9646 368.716 76.9869 367.977 76.9869 367.977C76.9869 367.977 80.2048 368.481 80.2048 362.819C80.2048 357.914 78.4785 356.99 75.6042 356.83C75.931 356.477 76.1405 356.007 76.1405 355.494C76.1405 354.411 75.2606 353.529 74.1796 353.529C73.0986 353.529 72.2187 354.411 72.2187 355.494C72.2187 356.015 72.4282 356.486 72.755 356.83C69.8807 356.99 68.1544 357.922 68.1544 362.819C68.1544 368.489 71.3723 367.977 71.3723 367.977C71.3723 367.977 69.3946 368.716 69.3946 370.464C69.3946 372.211 71.1628 371.799 71.1628 371.799C71.1628 371.799 73.7103 382.442 68.6572 386.676C63.604 390.918 67.0482 392.758 67.0482 392.758C67.0482 392.758 64.5175 393.808 65.3974 396.025H82.9535C83.8417 393.808 81.311 392.758 81.311 392.758Z" fill="#263238"/>
<path d="M66.3862 392.64C66.3862 392.64 69.9561 390.733 64.7186 386.34C59.4811 381.947 62.1208 370.926 62.1208 370.926C62.1208 370.926 63.956 371.354 63.956 369.539C63.956 367.725 61.9113 366.961 61.9113 366.961C61.9113 366.961 65.2465 367.481 65.2465 361.618C65.2465 356.536 63.4616 355.578 60.4867 355.41C60.8303 355.049 61.0398 354.562 61.0398 354.024C61.0398 352.899 60.1347 351.991 59.0118 351.991C57.8889 351.991 56.9839 352.899 56.9839 354.024C56.9839 354.562 57.1934 355.049 57.5369 355.41C54.562 355.578 52.7687 356.536 52.7687 361.618C52.7687 367.49 56.104 366.961 56.104 366.961C56.104 366.961 54.0592 367.725 54.0592 369.539C54.0592 371.354 55.8945 370.926 55.8945 370.926C55.8945 370.926 58.5342 381.955 53.2967 386.34C48.0592 390.733 51.629 392.64 51.629 392.64C51.629 392.64 49.0145 393.724 49.9111 396.025H68.1041C69.0092 393.732 66.3862 392.64 66.3862 392.64Z" fill="#D77207"/>
<path d="M175.804 293.728L160.552 300.129C160.552 300.129 155.642 310.31 168.312 309.579C180.983 308.865 175.804 293.728 175.804 293.728Z" fill="#263238"/>
<path d="M199.821 271.828C201.899 269.837 203.206 267.2 203.282 264.268C203.441 257.884 197.734 252.567 190.536 252.39C189.279 252.357 188.064 252.491 186.907 252.76C187.125 250.282 186.505 247.879 184.972 246.04C181.645 242.05 175.284 242.251 170.776 246.493C167.424 249.643 166.041 254.146 166.913 257.884C161.424 262.765 157.142 270.972 157.142 270.972L177.161 296.592C177.161 296.592 182.759 294.458 188.977 287.545C189.421 287.789 189.874 288.024 190.36 288.217C195.975 290.502 201.991 288.318 203.81 283.337C205.285 279.296 203.533 274.651 199.821 271.828Z" fill="url(#paint0_linear_836_860)"/>
<path d="M101.515 504.287L114.973 508.571L108.965 524.204L97.7107 520.642L101.515 504.287Z" fill="#FFC3BD"/>
<path opacity="0.2" d="M101.515 504.296L114.982 508.58L111.613 517.333L99.3867 513.452L101.515 504.296Z" fill="black"/>
<path d="M132.68 458.204C140.046 437.573 152.801 413.33 145.594 392.178L106.342 388.507C106.342 388.507 103.66 430.533 103.359 450.375C103.049 471.006 98.7749 509.453 98.7749 509.453L114.219 514.25C114.228 514.25 133.284 481.472 132.68 458.204Z" fill="#383B56"/>
<path opacity="0.4" d="M132.68 458.204C140.046 437.573 152.801 413.33 145.594 392.178L106.342 388.507C106.342 388.507 103.66 430.533 103.359 450.375C103.049 471.006 98.7749 509.453 98.7749 509.453L114.219 514.25C114.228 514.25 133.284 481.472 132.68 458.204Z" fill="white"/>
<path d="M115.3 515.182L97.6101 509.739L99.0598 501.532L119.055 508.714L115.3 515.182Z" fill="#263238"/>
<path opacity="0.2" d="M135.128 451.677C139.15 441.21 143.86 430.046 146.214 418.958C142.829 415.379 133.142 429.282 135.128 451.677Z" fill="black"/>
<path d="M110.993 522.146C111.119 521.777 110.809 521.373 110.432 521.399C106.459 521.651 100.485 518.685 98.2555 517.484C97.7108 517.19 97.1074 517.156 96.5543 517.316C93.1604 518.282 86.5821 517.492 86.5821 517.492C86.5821 517.492 84.705 519.433 84.4536 521.289L109.493 528.975C109.493 528.975 109.987 525.204 110.993 522.146Z" fill="#263238"/>
<path d="M163.779 507.723L177.924 507.857L179.608 524.565L167.793 524.473L163.779 507.723Z" fill="#FFC3BD"/>
<path d="M180.388 522.003C180.363 521.617 179.919 521.314 179.575 521.449C175.98 522.86 169.301 521.776 166.779 521.289C166.159 521.172 165.589 521.314 165.136 521.625C162.346 523.549 157.024 524.725 157.024 524.725C157.024 524.725 156.019 527.136 156.496 528.984L181.603 528.975C181.595 528.975 180.622 525.229 180.388 522.003Z" fill="#263238"/>
<path opacity="0.2" d="M163.779 507.731L177.932 507.866L178.871 517.224L166.024 517.106L163.779 507.731Z" fill="black"/>
<path d="M180.128 454.39C181.821 433.129 184.318 405.358 177.388 394.891L131.18 390.742C131.18 390.742 144.262 433.776 148.326 453.894C152.549 474.811 164.223 513.46 164.223 513.46L179.508 513.502C179.508 513.511 185.257 479.288 180.128 454.39Z" fill="#44486A"/>
<path opacity="0.4" d="M180.128 454.39C181.821 433.129 184.318 405.358 177.388 394.891L131.18 390.742C131.18 390.742 144.262 433.776 148.326 453.894C152.549 474.811 164.223 513.46 164.223 513.46L179.508 513.502C179.508 513.511 185.257 479.288 180.128 454.39Z" fill="white"/>
<path d="M181.209 514.082H162.823L160.72 506.413L180.983 506.74L181.209 514.082Z" fill="#263238"/>
<path d="M142.753 326.312C140.776 326.648 138.991 326.917 137.105 327.152C135.245 327.404 133.384 327.589 131.524 327.782C127.795 328.127 124.041 328.412 120.245 328.513C118.342 328.572 116.432 328.605 114.504 328.605C112.569 328.58 110.624 328.521 108.647 328.412C106.661 328.286 104.649 328.152 102.563 327.858C100.476 327.572 98.3309 327.203 95.9593 326.539L95.1884 326.329C94.0571 326.018 93.0431 325.422 92.247 324.674C89.8671 322.448 88.0486 320.239 86.2469 318.029C84.4536 315.829 82.853 313.561 81.2776 311.301L78.9982 307.857C78.2608 306.698 77.5485 305.522 76.8446 304.354C75.4451 301.985 74.1127 299.633 72.8892 297.096C71.6657 294.559 72.7216 291.502 75.2524 290.275C77.0792 289.393 79.1658 289.696 80.6575 290.88L80.7496 290.956C82.7944 292.602 84.8056 294.375 86.7832 296.097L92.6576 301.288L95.5403 303.85L98.4063 306.328C100.283 307.932 102.211 309.495 103.887 310.688L100.174 308.823C101.323 308.999 102.772 309.117 104.281 309.15C105.797 309.184 107.398 309.209 109.032 309.167C110.666 309.125 112.342 309.041 114.018 308.932C115.703 308.84 117.404 308.714 119.113 308.571C122.532 308.26 125.993 307.941 129.454 307.546L139.762 306.37L139.946 306.353C145.468 305.723 150.446 309.696 151.075 315.232C151.678 320.566 147.974 325.413 142.753 326.312Z" fill="#FFC3BD"/>
<path d="M81.8725 293.526L77.7495 297.827C72.1014 300.515 69.9142 292.627 69.9142 292.627L67.3332 289.267C66.4616 288.125 66.6544 286.403 67.7941 285.202L70.66 282.177C71.9673 280.8 74.0204 280.59 75.2271 281.715L77.9255 284.244C78.7132 284.983 79.2998 285.899 79.6434 286.915L81.8725 293.526Z" fill="#FFC3BD"/>
<path d="M144.463 305.471C134.951 304.455 107.121 307.546 107.121 307.546C102.093 313.183 100.526 323.565 104.373 329.025C104.373 329.025 126.655 332.839 135.437 330.109C146.063 326.816 163.712 307.538 144.463 305.471Z" fill="#003760"/>
<path d="M109.703 307.336C109.87 306.857 109.552 306.336 109.032 306.227C105.764 305.564 104.13 305.79 103.007 307.025C101.783 308.378 96.7052 322.868 100.451 328.756C100.493 328.824 100.543 328.882 100.602 328.941C101.75 330.05 104.608 330.319 106.007 330.991C106.594 331.268 107.256 330.857 107.247 330.227C107.172 326.27 107.189 314.518 109.703 307.336Z" fill="url(#paint1_linear_836_860)"/>
<path d="M144.463 305.471C156.086 306.924 171.203 310.595 182.583 314.989C189.681 317.727 193.804 323.515 189.422 338.375C180.539 368.515 184.771 385.912 179.793 396.79C179.793 396.79 113.918 405.123 104.096 390.397C103.476 352.428 123.546 321.709 132.496 310.394C135.362 306.782 139.896 304.9 144.463 305.471Z" fill="#003760"/>
<path opacity="0.2" d="M156.714 357.04C175 352.563 183.933 338.282 183.933 338.282L154.075 341.374L156.714 357.04Z" fill="black"/>
<path d="M177.773 313.25C173.122 314.93 157.452 361.148 164.801 381.216C172.159 401.284 181.393 391.834 181.393 391.834C181.393 391.834 180.983 397.915 179.533 399.503C175.62 399.226 166.603 442.722 166.896 476.323C151.267 481.64 138.546 476.886 138.546 476.886L138.077 479.969C138.077 479.969 128.49 484.354 109.074 477.029C108.982 475.911 109.074 473.761 109.074 473.761C109.074 473.761 108.655 476.046 92.3643 468.393C92.5486 459.901 94.5095 404.736 102.789 392.791C101.205 387.281 98.9677 373.748 103.443 361.526C107.909 349.295 126.898 309.68 148.418 306.034C149.91 305.782 150.764 306.42 150.764 306.42C150.764 306.42 130.309 311.687 122.624 334.645C135.991 342.062 160.996 341.508 160.996 341.508C160.996 341.508 167.147 321.465 175.787 312.595C177.002 312.242 177.773 313.25 177.773 313.25Z" fill="#263238"/>
<path d="M152.139 399.125C132.144 399.125 113.39 396.042 103.979 393.741C103.753 393.682 103.619 393.455 103.669 393.237C103.728 393.01 103.954 392.875 104.172 392.926C117.722 396.244 150.748 401.183 178.779 396.118C178.997 396.076 179.223 396.227 179.265 396.454C179.307 396.681 179.156 396.899 178.93 396.941C170.24 398.512 161.072 399.125 152.139 399.125Z" fill="white"/>
<path d="M102.412 434.028C102.286 434.028 102.169 434.02 102.043 433.994C101.071 433.801 100.292 432.869 99.747 431.214C97.1744 423.469 99.7805 401.62 106.87 393.766C106.987 393.64 107.163 393.598 107.323 393.648C107.482 393.707 107.591 393.858 107.599 394.026C107.658 395.404 109.015 427.845 105.345 432.171C104.297 433.406 103.309 434.028 102.412 434.028ZM106.811 395.152C100.526 403.325 98.1716 423.805 100.543 430.945C100.853 431.869 101.39 433.003 102.211 433.163C102.864 433.289 103.744 432.759 104.708 431.625C107.398 428.467 107.272 406.996 106.811 395.152Z" fill="white"/>
<path d="M106.359 428.82C105.655 428.82 105.102 428.492 104.7 428.106C100.359 423.948 101.909 399.57 106.887 393.791C106.979 393.682 107.13 393.631 107.272 393.665C107.415 393.699 107.524 393.816 107.557 393.959C107.834 395.127 114.194 422.612 109.124 427.409C108.027 428.45 107.105 428.82 106.359 428.82ZM106.987 394.959C102.697 401.435 101.331 423.796 105.236 427.543C105.554 427.854 106.535 428.786 108.588 426.837C112.879 422.78 108.018 399.637 106.987 394.959Z" fill="white"/>
<path d="M148.259 308.739C150.094 307.706 151.385 308.949 152.667 306.992C153.396 305.53 153.605 303.858 153.203 301.842L172.98 297.189C170.918 303.464 169.31 308.411 171.438 311.704C170.977 316.669 161.365 321.507 149.742 317.778C141.454 315.131 145.619 310.226 148.259 308.739Z" fill="#FFC3BD"/>
<path opacity="0.2" d="M153.312 302.456L167.86 302.733C162.957 307.227 155.952 308.512 152.977 306.303C153.387 305.16 153.522 303.9 153.312 302.456Z" fill="black"/>
<path d="M156.647 270.216C150.982 271.635 147.262 277.776 150.262 283.387C153.262 288.998 158.902 287.369 163.418 283.874L165.178 275.054C165.17 275.054 162.312 268.788 156.647 270.216Z" fill="#263238"/>
<path d="M150.79 281.127C148.385 282.849 147.756 286.445 150.211 288.536C152.667 290.628 155.03 288.805 156.513 286.319L155.709 281.833C155.717 281.825 153.203 279.397 150.79 281.127Z" fill="#263238"/>
<path d="M177.497 287.629C174.547 296.449 172.351 302.372 166.15 304.766C153.823 309.52 148.938 302.96 149.206 293.417C149.44 284.824 154.225 271.845 163.938 270.711C173.499 269.594 180.455 278.817 177.497 287.629Z" fill="#FFC3BD"/>
<path d="M176.818 292.594C171.999 290.62 171.857 283.614 173.189 280.884C167.809 280.254 163.343 277.801 163.133 275.356C157.829 277.457 151.963 277.457 150.63 271.224C149.306 264.991 151.678 259.497 157.452 260.345C163.226 261.194 167.265 267.376 167.265 267.376C167.265 267.376 172.561 261.849 178.192 266.956C182.759 271.106 181.636 276.549 181.636 276.549C181.636 276.549 186.949 277.499 187.435 283.899C187.921 290.3 182.759 291.569 182.759 291.569C182.759 291.569 186.002 299.961 178.192 303.64C169.527 307.731 171.723 297.407 171.723 297.407L176.818 292.594Z" fill="#263238"/>
<path d="M172.117 286.596C169.712 288.318 169.083 291.913 171.539 294.005C173.994 296.097 176.357 294.274 177.84 291.787L177.036 287.302C177.036 287.293 174.522 284.874 172.117 286.596Z" fill="#263238"/>
<path d="M183.941 296.718C181.083 296.718 179.977 294.517 179.902 292.602C179.851 291.275 180.304 289.83 181.251 289.788C183.346 289.679 185.173 291.082 186.086 292.518C186.79 293.627 186.949 294.727 186.522 295.534C186.245 296.055 185.608 296.676 184.1 296.718C184.05 296.718 183.991 296.718 183.941 296.718ZM181.301 290.62C181.108 290.628 180.698 291.376 180.74 292.56C180.807 294.173 181.678 295.87 183.949 295.87C183.991 295.87 184.041 295.87 184.083 295.87C184.695 295.853 185.483 295.71 185.793 295.13C186.069 294.61 185.919 293.795 185.391 292.955C184.603 291.737 183.036 290.544 181.301 290.62Z" fill="#263238"/>
<path d="M155.801 278.49C155.147 278.49 154.536 278.406 153.949 278.246C152.072 277.717 150.622 276.365 149.642 274.214C147.949 270.501 147.79 266.839 149.223 264.411C150.237 262.689 151.996 261.681 154.293 261.513C154.519 261.496 154.728 261.673 154.745 261.899C154.762 262.135 154.586 262.336 154.36 262.353C152.348 262.504 150.823 263.361 149.952 264.839C148.661 267.032 148.829 270.4 150.413 273.861C151.284 275.768 152.55 276.969 154.184 277.431C156.522 278.087 159.614 277.221 162.89 274.995C163.083 274.869 163.343 274.911 163.469 275.104C163.603 275.298 163.544 275.558 163.36 275.684C160.661 277.532 158.047 278.49 155.801 278.49Z" fill="#263238"/>
<path opacity="0.2" d="M165.899 286.369C165.899 286.369 167.734 285.764 169.083 286.63C167.332 286.831 165.899 286.369 165.899 286.369Z" fill="black"/>
<path opacity="0.2" d="M165.89 287.134C165.89 287.134 167.642 286.94 168.631 288.091C167.038 287.898 165.89 287.134 165.89 287.134Z" fill="black"/>
<path d="M178.544 297.928C176.885 299.793 174.513 300.708 172.46 300.776C169.368 300.885 169.519 298.415 170.969 295.87C172.268 293.577 174.446 290.267 177.27 291.367C180.044 292.468 180.447 295.803 178.544 297.928Z" fill="#FFC3BD"/>
<path d="M161.86 285.689C161.667 286.42 161.122 286.907 160.645 286.772C160.167 286.638 159.941 285.941 160.133 285.21C160.326 284.479 160.871 283.992 161.348 284.126C161.826 284.261 162.052 284.958 161.86 285.689Z" fill="#263238"/>
<path d="M153.89 283.488C153.697 284.219 153.153 284.706 152.675 284.571C152.197 284.437 151.971 283.74 152.164 283.009C152.357 282.278 152.901 281.791 153.379 281.925C153.865 282.051 154.091 282.757 153.89 283.488Z" fill="#263238"/>
<path d="M157.678 284.294L156.262 290.662C156.262 290.662 154.209 291.619 152.055 289.721C153.764 286.352 157.678 284.294 157.678 284.294Z" fill="#ED847E"/>
<path d="M165.396 284.126C165.472 284.135 165.547 284.135 165.622 284.101C165.849 284.017 165.966 283.757 165.882 283.53C165.011 281.22 163.016 280.741 162.932 280.724C162.689 280.674 162.455 280.817 162.404 281.06C162.354 281.295 162.505 281.539 162.74 281.589C162.807 281.606 164.357 281.993 165.053 283.832C165.103 283.992 165.237 284.101 165.396 284.126Z" fill="#263238"/>
<path d="M151.385 280.153C151.51 280.212 151.67 280.212 151.804 280.136C153.471 279.128 154.921 279.809 154.98 279.842C155.198 279.951 155.466 279.859 155.566 279.632C155.675 279.414 155.583 279.145 155.365 279.036C155.281 279.002 153.438 278.112 151.343 279.363C151.133 279.489 151.066 279.767 151.192 279.977C151.242 280.052 151.309 280.111 151.385 280.153Z" fill="#263238"/>
<path d="M174.597 340.315C174.036 340.517 173.675 340.643 173.223 340.786L171.957 341.189C171.119 341.449 170.281 341.684 169.443 341.92C167.776 342.399 166.083 342.793 164.399 343.18C162.706 343.575 160.996 343.885 159.279 344.188C157.561 344.49 155.826 344.751 154.066 344.944C152.306 345.145 150.538 345.313 148.736 345.423C146.935 345.507 145.116 345.565 143.264 345.532C139.56 345.49 135.731 345.12 131.733 344.188L130.971 344.011C130.56 343.919 130.15 343.768 129.789 343.591C127.753 342.583 126.035 341.315 124.652 339.962C123.261 338.61 122.122 337.199 121.225 335.788C119.381 332.973 118.267 330.168 117.37 327.446C116.951 326.077 116.608 324.716 116.306 323.372C116.013 322.02 115.811 320.676 115.619 319.34C115.443 318.004 115.334 316.669 115.258 315.333C115.233 314.661 115.216 313.997 115.2 313.325C115.2 312.637 115.208 312.015 115.233 311.217C115.317 308.436 117.638 306.244 120.412 306.328C122.247 306.387 123.814 307.412 124.652 308.907L125.08 309.68C125.298 310.075 125.541 310.654 125.784 311.15L126.513 312.687C126.99 313.712 127.502 314.72 128.004 315.711C129.018 317.685 130.074 319.575 131.189 321.272C131.75 322.112 132.303 322.918 132.873 323.632C133.451 324.346 134.038 324.968 134.583 325.489C135.697 326.547 136.694 326.959 137.038 326.909L135.102 326.312C137.44 326.547 140.072 326.497 142.795 326.304C144.161 326.203 145.552 326.035 146.952 325.842C148.359 325.665 149.784 325.438 151.209 325.186C154.066 324.657 156.957 324.069 159.84 323.364C161.29 323.028 162.723 322.641 164.156 322.28L168.27 321.171L168.631 321.079C173.994 319.634 179.508 322.809 180.958 328.185C182.332 333.301 179.491 338.568 174.597 340.315Z" fill="#FFC3BD"/>
<path d="M186.346 340.24C174.849 353.73 143.851 348.421 143.851 348.421C138.312 345.011 138.018 331.923 140.189 325.195C140.189 325.195 165.656 315.199 176.441 314.569C186.43 313.981 192.933 332.511 186.346 340.24Z" fill="#003760"/>
<path d="M124.921 312.166L119.289 314.09C113.038 313.871 114.705 305.866 114.705 305.866L113.96 301.691C113.708 300.28 114.664 298.835 116.231 298.289L120.161 296.92C121.954 296.29 123.873 297.054 124.426 298.608L125.666 302.094C126.027 303.111 126.136 304.194 125.968 305.261L124.921 312.166Z" fill="#FFC3BD"/>
<path d="M155.441 292.207C154.209 291.947 154.234 293.955 155.172 294.433C155.893 294.795 161.147 296.088 164.223 298.953C162.74 296.475 158.508 292.854 155.441 292.207Z" fill="#263238"/>
<path d="M153.723 292.3C153.622 292.627 153.555 292.988 153.521 293.308C153.488 293.635 153.119 293.854 152.725 293.786C150.731 293.417 147.781 293.618 145.988 294.517C148.033 292.862 150.614 291.846 152.91 291.628C153.412 291.586 153.84 291.896 153.723 292.3Z" fill="#263238"/>
<path d="M152.96 296.995C152.03 297.172 150.555 297.289 149.332 296.659C147.262 298.583 150.731 301.473 149.365 304.228C153.589 304.799 155.784 304.598 157.703 303.321C159.957 301.826 159.455 299.196 159.455 299.196C159.455 299.196 156.463 298.911 154.603 297.457C154.133 297.088 153.555 296.886 152.96 296.995Z" fill="#263238"/>
<path d="M152.776 295.366C152.415 295.265 152.047 295.122 151.661 294.929C151.561 294.879 151.519 294.753 151.569 294.652C151.619 294.551 151.745 294.509 151.845 294.559C154.636 295.937 156.907 294.618 156.932 294.601C157.033 294.543 157.158 294.576 157.217 294.677C157.276 294.778 157.242 294.904 157.142 294.963C157.049 295.013 155.231 296.071 152.776 295.366Z" fill="#263238"/>
<path d="M43.0027 246.289C42.7591 227.527 59.2334 263.822 80.5004 275.375C97.775 284.766 118.372 271.388 135.038 270.168C155.966 268.631 125.948 286.818 94.8437 282.267C65.6962 277.993 43.2027 261.511 43.0027 246.289Z" fill="#F77F00"/>
<path d="M143.13 324.624C143.172 324.103 142.72 323.666 142.2 323.7C138.873 323.91 137.356 324.573 136.586 326.102C135.756 327.774 134.985 342.449 140.13 347.296C140.189 347.355 140.256 347.397 140.323 347.439C141.714 348.237 144.144 348.799 145.678 349.093C146.315 349.219 146.851 348.623 146.675 348.001C145.586 344.087 142.56 332.419 143.13 324.624Z" fill="url(#paint2_linear_836_860)"/>
<path d="M132.744 388.205C140.533 388.205 146.847 381.891 146.847 374.103C146.847 366.314 140.533 360 132.744 360C124.956 360 118.642 366.314 118.642 374.103C118.642 381.891 124.956 388.205 132.744 388.205Z" fill="#F07F12"/>
<path d="M131.257 382.853C131.145 383.142 131.345 383.253 131.501 383.941C131.967 385.873 131.079 387.961 130.724 388.339C130.724 388.339 130.701 388.361 130.701 388.383C130.746 388.627 133.544 388.472 134.654 388.405C134.765 388.405 134.832 388.383 134.965 388.383C135.032 388.383 135.054 388.383 135.076 388.383C135.165 388.294 134.788 387.761 134.699 387.628C134.232 386.939 134.232 386.14 134.21 384.941C134.21 384.941 134.188 383.852 134.432 382.786C134.455 382.675 134.477 382.586 134.477 382.586C134.543 382.342 134.566 382.32 134.543 382.298C134.499 382.009 131.656 381.831 131.257 382.853Z" fill="#15385C"/>
<path d="M136.009 389.271C135.987 389.271 135.965 389.271 135.942 389.271C135.52 389.227 135.21 388.849 135.254 388.427C135.454 386.273 136.098 384.985 137.231 384.452C137.963 384.097 138.63 384.208 139.296 384.319C139.873 384.408 140.451 384.519 141.25 384.363C142.072 384.186 142.627 383.83 143.271 383.408C146.092 381.543 147.202 378.345 147.335 377.989C148.179 375.48 148.024 372.792 146.869 369.994C145.736 367.24 143.937 365.797 142.05 364.286C141.428 363.798 140.673 363.287 139.784 363.309C139.585 363.309 139.14 363.331 138.785 363.62C138.652 363.731 138.23 364.109 138.297 364.508C138.319 364.73 138.474 364.975 138.674 365.13C138.785 365.219 138.985 365.33 139.207 365.308C139.518 365.264 139.807 364.975 139.918 364.597C140.029 364.175 140.451 363.931 140.85 364.02C141.272 364.131 141.517 364.553 141.428 364.953C141.184 365.952 140.362 366.707 139.407 366.818C138.807 366.885 138.208 366.729 137.719 366.33C137.186 365.93 136.831 365.308 136.764 364.664C136.653 363.842 137.053 362.998 137.83 362.376C138.607 361.755 139.474 361.71 139.762 361.71C141.161 361.666 142.25 362.376 143.049 363.02C145.026 364.597 147.069 366.241 148.335 369.35C149.623 372.504 149.8 375.546 148.845 378.433C148.623 379.1 147.358 382.542 144.137 384.652C143.471 385.096 142.716 385.585 141.583 385.807C140.517 386.029 139.696 385.896 139.052 385.785C138.496 385.696 138.208 385.651 137.919 385.785C137.364 386.051 136.964 387.028 136.831 388.516C136.764 388.96 136.409 389.271 136.009 389.271Z" fill="#15385C"/>
<path d="M132.878 388.938C125.038 388.938 118.642 382.564 118.642 374.702C118.642 366.863 125.016 360.466 132.878 360.466C140.717 360.466 147.113 366.84 147.113 374.702C147.113 382.564 140.739 388.938 132.878 388.938ZM132.878 360.644C125.127 360.644 118.82 366.951 118.82 374.702C118.82 382.453 125.127 388.761 132.878 388.761C140.628 388.761 146.936 382.453 146.936 374.702C146.936 366.951 140.651 360.644 132.878 360.644Z" fill="white"/>
<path d="M132.7 384.274C139.164 384.274 144.404 380.645 144.404 376.168C144.404 371.691 139.164 368.062 132.7 368.062C126.236 368.062 120.996 371.691 120.996 376.168C120.996 380.645 126.236 384.274 132.7 384.274Z" fill="#15385C"/>
<path d="M119.153 379.055C121.447 379.055 123.306 377.454 123.306 375.48C123.306 373.505 121.447 371.904 119.153 371.904C116.859 371.904 115 373.505 115 375.48C115 377.454 116.859 379.055 119.153 379.055Z" fill="#15385C"/>
<path d="M146.292 379.033C148.585 379.033 150.444 377.432 150.444 375.457C150.444 373.483 148.585 371.882 146.292 371.882C143.998 371.882 142.139 373.483 142.139 375.457C142.139 377.432 143.998 379.033 146.292 379.033Z" fill="#15385C"/>
<path d="M132.367 368.684C132.278 368.506 132.056 367.995 132.189 367.329C132.211 367.173 132.389 366.441 133.078 365.996C133.166 365.952 134.121 365.352 134.854 365.841C135.165 366.063 135.498 366.507 135.409 366.974C135.343 367.351 135.032 367.573 134.899 367.684C134.854 367.729 134.699 367.84 134.654 367.795C134.588 367.729 134.899 367.396 134.81 367.062C134.743 366.84 134.477 366.663 134.255 366.663C133.833 366.663 133.588 367.218 133.522 367.507C133.344 368.173 133.766 368.773 133.833 368.884" fill="#15385C"/>
<path d="M121.241 375.302C121.241 375.146 120.907 374.991 120.641 374.947C120.241 374.902 119.73 375.102 119.486 375.524C119.22 375.968 119.197 376.657 119.642 377.034C120.152 377.478 120.93 377.145 120.974 377.101C120.974 377.101 121.018 377.034 121.063 377.034C121.063 377.034 121.063 377.034 121.085 377.034C121.129 377.012 121.041 376.768 121.018 376.657C120.952 376.368 120.885 375.746 121.174 375.435C121.218 375.369 121.241 375.346 121.241 375.302Z" fill="white"/>
<path d="M144.359 375.391C144.359 375.235 144.692 375.08 144.959 375.035C145.359 374.991 145.87 375.191 146.114 375.613C146.38 376.057 146.403 376.746 145.958 377.123C145.448 377.567 144.67 377.234 144.626 377.19C144.626 377.19 144.581 377.123 144.537 377.123C144.537 377.123 144.537 377.123 144.515 377.123C144.47 377.101 144.559 376.857 144.581 376.746C144.648 376.457 144.715 375.835 144.426 375.524C144.404 375.48 144.359 375.457 144.359 375.391Z" fill="white"/>
<path d="M140.984 375.857C141.006 373.57 138.985 371.726 136.475 371.704C134.943 371.704 133.588 372.37 132.767 373.436C131.945 372.415 130.635 371.726 129.124 371.726C126.615 371.704 124.594 373.547 124.572 375.835C124.572 377.878 126.193 379.588 128.347 379.921C128.347 381.676 130.346 383.075 132.811 383.097C135.276 383.119 137.297 381.698 137.297 379.944C137.297 379.921 137.297 379.899 137.297 379.877C139.385 379.544 140.984 377.878 140.984 375.857Z" fill="white"/>
<path d="M130.124 378.678C130.504 378.678 130.812 377.962 130.812 377.079C130.812 376.196 130.504 375.48 130.124 375.48C129.744 375.48 129.435 376.196 129.435 377.079C129.435 377.962 129.744 378.678 130.124 378.678Z" fill="#15385C"/>
<path d="M135.565 378.678C135.945 378.678 136.253 377.962 136.253 377.079C136.253 376.196 135.945 375.48 135.565 375.48C135.185 375.48 134.876 376.196 134.876 377.079C134.876 377.962 135.185 378.678 135.565 378.678Z" fill="#15385C"/>
<path opacity="0.82" d="M128.325 380.921C128.963 380.921 129.48 380.493 129.48 379.966C129.48 379.438 128.963 379.011 128.325 379.011C127.687 379.011 127.17 379.438 127.17 379.966C127.17 380.493 127.687 380.921 128.325 380.921Z" fill="#F07F12"/>
<path opacity="0.82" d="M137.297 380.854C137.935 380.854 138.452 380.427 138.452 379.899C138.452 379.372 137.935 378.944 137.297 378.944C136.659 378.944 136.142 379.372 136.142 379.899C136.142 380.427 136.659 380.854 137.297 380.854Z" fill="#F07F12"/>
<path d="M133.411 378.922C133.388 378.922 133.366 378.922 133.344 378.9C133.3 378.855 133.3 378.789 133.322 378.744C133.411 378.633 133.411 378.5 133.322 378.411C133.233 378.3 133.078 378.3 133.011 378.345C132.922 378.389 132.9 378.544 132.878 378.633C132.855 378.722 132.833 378.855 132.722 378.855C132.611 378.855 132.589 378.744 132.567 378.655C132.545 378.567 132.5 378.433 132.434 378.389C132.367 378.367 132.3 378.367 132.234 378.389C132.167 378.433 132.123 378.589 132.189 378.722C132.211 378.789 132.189 378.833 132.123 378.878C132.056 378.9 132.012 378.878 131.967 378.811C131.856 378.567 131.923 378.322 132.1 378.189C132.234 378.1 132.389 378.1 132.522 378.167C132.611 378.211 132.656 378.278 132.7 378.367C132.722 378.278 132.789 378.189 132.878 378.122C133.033 378.011 133.3 378.034 133.477 378.211C133.633 378.389 133.633 378.655 133.477 378.833C133.477 378.922 133.455 378.922 133.411 378.922Z" fill="#15385C"/>
<defs>
<filter id="filter0_d_836_860" x="39" y="0" width="260" height="235" filterUnits="userSpaceOnUse" color-interpolation-filters="sRGB">
<feFlood flood-opacity="0" result="BackgroundImageFix"/>
<feColorMatrix in="SourceAlpha" type="matrix" values="0 0 0 0 0 0 0 0 0 0 0 0 0 0 0 0 0 0 127 0" result="hardAlpha"/>
<feOffset dy="4"/>
<feGaussianBlur stdDeviation="2"/>
<feComposite in2="hardAlpha" operator="out"/>
<feColorMatrix type="matrix" values="0 0 0 0 0 0 0 0 0 0 0 0 0 0 0 0 0 0 0.25 0"/>
<feBlend mode="normal" in2="BackgroundImageFix" result="effect1_dropShadow_836_860"/>
<feBlend mode="normal" in="SourceGraphic" in2="effect1_dropShadow_836_860" result="shape"/>
</filter>
<linearGradient id="paint0_linear_836_860" x1="180.737" y1="243.175" x2="180.737" y2="296.592" gradientUnits="userSpaceOnUse">
<stop stop-color="#003760"/>
<stop offset="1" stop-color="#121637"/>
</linearGradient>
<linearGradient id="paint1_linear_836_860" x1="104.422" y1="305.862" x2="104.422" y2="331.079" gradientUnits="userSpaceOnUse">
<stop stop-color="#003760"/>
<stop offset="1" stop-color="#121637"/>
</linearGradient>
<linearGradient id="paint2_linear_836_860" x1="141.347" y1="323.698" x2="141.347" y2="349.11" gradientUnits="userSpaceOnUse">
<stop stop-color="#003760"/>
<stop offset="1" stop-color="#121637"/>
</linearGradient>
</defs>
</svg>
