<svg width="65" height="65" viewBox="0 0 65 65" fill="none" xmlns="http://www.w3.org/2000/svg">
<g filter="url(#filter0_d_970_875)">
<rect x="4" width="57" height="57" rx="15" fill="white"/>
</g>
<path d="M34.1633 14C34.9333 14.1025 35.7034 14.1978 36.4661 14.3809C38.8568 14.9595 40.9762 16.0509 42.8316 17.655C43.851 18.534 44.731 19.5374 45.4791 20.6508C45.5084 20.6874 45.5377 20.724 45.5671 20.7753C45.6551 20.6947 45.6184 20.5995 45.6184 20.519C45.6184 19.5887 45.6184 18.6658 45.6184 17.7356C45.6184 17.0104 46.1244 16.4977 46.8138 16.4977C47.4885 16.4977 47.9945 17.0104 47.9945 17.7209C48.0018 18.8929 48.0018 20.0648 47.9945 21.2368C47.9725 23.2291 46.3224 24.8918 44.335 24.9138C43.1176 24.9284 41.8929 24.9211 40.6755 24.9138C39.9715 24.9138 39.4655 24.4084 39.4728 23.7198C39.4728 23.0386 39.9789 22.5406 40.6902 22.5332C41.6289 22.5259 42.5603 22.5332 43.499 22.5332C43.5797 22.5332 43.697 22.5772 43.7483 22.4966C43.807 22.4087 43.7043 22.3355 43.6603 22.2695C41.7976 19.391 39.2088 17.5085 35.872 16.7321C32.4326 15.9264 29.1691 16.4611 26.199 18.3948C22.9795 20.497 21.0215 23.4781 20.5008 27.3089C20.0461 30.649 20.8088 33.7327 22.8329 36.4574C24.7689 39.065 27.3284 40.7204 30.5112 41.3796C31.5232 41.592 32.5572 41.6726 33.5913 41.5993C33.7966 41.5847 34.002 41.5847 34.2073 41.592C34.8307 41.5993 35.344 42.0461 35.4027 42.6248C35.476 43.2767 35.0873 43.8187 34.4493 43.9652C34.3906 43.9799 34.3393 43.9945 34.2806 44.0092C33.4446 44.0092 32.6012 44.0092 31.7652 44.0092C31.7065 43.9945 31.6552 43.9799 31.5965 43.9725C30.3278 43.87 29.0811 43.6136 27.9004 43.1522C23.0235 41.2551 19.8554 37.8052 18.4474 32.7585C18.2127 31.9308 18.11 31.0811 18 30.2315C18 29.4111 18 28.5907 18 27.7704C18.0147 27.7118 18.0293 27.6605 18.0367 27.6019C18.1393 26.3274 18.396 25.0895 18.858 23.9029C20.7428 19.0247 24.1969 15.8605 29.2351 14.4468C30.0638 14.2124 30.9145 14.1172 31.7652 14C32.5572 14 33.3639 14 34.1633 14Z" fill="#F77F00"/>
<path d="M34.178 24.3131C34.178 25.8586 34.1706 27.3968 34.178 28.9423C34.178 29.3159 34.0533 29.6308 33.7966 29.8872C32.2712 31.4107 30.7532 32.9416 29.2204 34.4651C28.7804 34.9046 28.1571 34.9559 27.6731 34.6336C27.211 34.3186 27.035 33.7034 27.2477 33.176C27.3284 32.9709 27.4824 32.8171 27.6364 32.6706C28.9491 31.3595 30.2545 30.041 31.5745 28.7372C31.7432 28.5688 31.8092 28.4076 31.8019 28.1732C31.7945 25.3313 31.8019 22.4893 31.7945 19.6473C31.7945 19.1785 31.9999 18.8196 32.4032 18.5926C32.8139 18.3655 33.2319 18.3802 33.628 18.6292C34.002 18.8636 34.178 19.2152 34.178 19.662C34.178 21.2075 34.178 22.7603 34.178 24.3131Z" fill="#F77F00"/>
<path d="M47.7525 32.048C47.6278 32.546 47.5471 33.154 47.2758 33.696C47.0118 34.2014 46.3811 34.4065 45.8384 34.2087C45.303 34.011 44.9584 33.4323 45.083 32.883C45.1784 32.4362 45.2957 31.9894 45.435 31.5572C45.611 31.0152 46.1831 30.6783 46.7184 30.7662C47.3124 30.8614 47.7598 31.3741 47.7525 32.048Z" fill="#F77F00"/>
<path d="M42.223 38.1201C42.201 37.8564 42.311 37.6074 42.487 37.3876C42.729 37.08 42.971 36.7724 43.2277 36.4794C43.6751 35.9667 44.3718 35.9007 44.8851 36.2963C45.3985 36.6918 45.5085 37.4023 45.1198 37.9443C44.8558 38.3179 44.5551 38.6695 44.2471 39.0064C43.9097 39.3653 43.3817 39.4459 42.949 39.2628C42.487 39.065 42.2157 38.6548 42.223 38.1201Z" fill="#F77F00"/>
<path d="M40.9688 41.2184C40.9615 41.5627 40.7342 41.9216 40.3235 42.1487C39.9861 42.3391 39.6341 42.5149 39.2821 42.676C38.6294 42.9764 37.9547 42.7346 37.6467 42.1047C37.368 41.5334 37.6174 40.8376 38.2261 40.5226C38.5854 40.3322 38.9521 40.1344 39.3261 39.9806C40.1181 39.651 40.9688 40.2296 40.9688 41.2184Z" fill="#F77F00"/>
<defs>
<filter id="filter0_d_970_875" x="0" y="0" width="65" height="65" filterUnits="userSpaceOnUse" color-interpolation-filters="sRGB">
<feFlood flood-opacity="0" result="BackgroundImageFix"/>
<feColorMatrix in="SourceAlpha" type="matrix" values="0 0 0 0 0 0 0 0 0 0 0 0 0 0 0 0 0 0 127 0" result="hardAlpha"/>
<feOffset dy="4"/>
<feGaussianBlur stdDeviation="2"/>
<feComposite in2="hardAlpha" operator="out"/>
<feColorMatrix type="matrix" values="0 0 0 0 0 0 0 0 0 0 0 0 0 0 0 0 0 0 0.25 0"/>
<feBlend mode="normal" in2="BackgroundImageFix" result="effect1_dropShadow_970_875"/>
<feBlend mode="normal" in="SourceGraphic" in2="effect1_dropShadow_970_875" result="shape"/>
</filter>
</defs>
</svg>
