<svg width="233" height="47" viewBox="0 0 233 47" fill="none" xmlns="http://www.w3.org/2000/svg">
<path d="M22.559 32.1848V36.0163C22.559 42.1467 18.5022 46.3614 12.5437 46.3614H3.28908C2.6552 46.3614 2.27487 45.9783 2.27487 45.3397V10.856C2.27487 4.59783 6.07815 0.383152 11.7831 0.383152C17.488 0.383152 21.418 4.59783 21.418 10.856V13.6658C21.418 18.2636 19.3896 21.5842 16.2202 22.8614C20.1503 24.0109 22.559 27.587 22.559 32.1848ZM4.43006 21.9674H12.2902C16.6006 21.9674 19.3896 18.6467 19.3896 13.6658V10.856C19.3896 5.61957 16.4738 2.29891 11.9098 2.29891C7.34591 2.29891 4.43006 5.61957 4.43006 10.856V21.9674ZM20.5306 32.1848C20.5306 27.2038 17.3612 23.8832 12.5437 23.8832H4.43006V44.3179H12.5437C17.3612 44.3179 20.5306 40.9973 20.5306 36.0163V32.1848Z" fill="white"/>
<path d="M30.9262 0.894024H32.194C32.4475 0.894024 32.5743 1.14946 32.5743 1.27718V45.7228C32.5743 45.9783 32.4475 46.2337 32.194 46.2337H30.9262C30.6727 46.2337 30.4191 45.9783 30.4191 45.7228V1.27718C30.4191 1.02174 30.5459 0.894024 30.9262 0.894024Z" fill="white"/>
<path d="M41.3219 35.5054V11.4946C41.3219 5.23641 45.2519 0.638588 51.4639 0.638588H57.5492C57.8027 0.638588 57.9295 0.894023 57.9295 1.02174V2.1712C57.9295 2.42663 57.8027 2.55435 57.5492 2.55435H51.4639C46.5197 2.55435 43.4771 6.25815 43.4771 11.3668V21.9674H56.2814C56.535 21.9674 56.6618 22.0951 56.6618 22.3505V23.5C56.6618 23.7554 56.4082 24.0109 56.2814 24.0109H43.3503V35.3777C43.3503 40.6141 46.3929 44.1902 51.3372 44.1902H57.4224C57.676 44.1902 57.8027 44.3179 57.8027 44.5734V45.7228C57.8027 45.9783 57.676 46.2337 57.4224 46.2337H51.3372C45.2519 46.3614 41.3219 41.6359 41.3219 35.5054Z" fill="white"/>
<path d="M65.029 45.7228V11.75C65.029 4.85326 69.0858 0.255436 75.171 0.255436C81.2563 0.255436 85.3131 4.85326 85.3131 11.75V45.7228C85.3131 45.9783 85.0596 46.2337 84.806 46.2337H83.5382C83.2847 46.2337 83.1579 45.9783 83.1579 45.7228V11.75C83.1579 5.875 79.9885 2.1712 75.0443 2.1712C70.2268 2.1712 67.0574 5.74728 67.0574 11.75V45.7228C67.0574 45.9783 66.8038 46.2337 66.677 46.2337H65.4093C65.2825 46.2337 65.029 45.9783 65.029 45.7228Z" fill="white"/>
<path d="M113.584 1.27717L104.203 45.3397C104.076 45.9783 103.696 46.2337 103.062 46.2337H101.794C101.16 46.2337 100.78 45.8505 100.653 45.3397L91.3984 1.27717C91.2716 1.02174 91.5252 0.766304 91.7787 0.766304H93.0465C93.3 0.766304 93.4268 0.894021 93.5536 1.14946L102.681 44.0625L111.683 1.14946C111.809 0.894021 111.936 0.766304 112.19 0.766304H113.331C113.457 0.894021 113.584 1.02174 113.584 1.27717Z" fill="white"/>
<path d="M118.528 35.5054V11.4946C118.528 5.23641 122.458 0.638588 128.67 0.638588H134.756C135.009 0.638588 135.136 0.894023 135.136 1.02174V2.1712C135.136 2.42663 135.009 2.55435 134.756 2.55435H128.67C123.726 2.55435 120.684 6.25815 120.684 11.3668V21.9674H133.488C133.742 21.9674 133.868 22.0951 133.868 22.3505V23.5C133.868 23.7554 133.615 24.0109 133.488 24.0109H120.557V35.3777C120.557 40.6141 123.599 44.1902 128.544 44.1902H134.629C134.883 44.1902 135.009 44.3179 135.009 44.5734V45.7228C135.009 45.9783 134.883 46.2337 134.629 46.2337H128.544C122.458 46.3614 118.528 41.6359 118.528 35.5054Z" fill="white"/>
<path d="M142.362 45.7228V11.75C142.362 4.85326 146.419 0.255436 152.504 0.255436C158.59 0.255436 162.646 4.85326 162.646 11.75V45.7228C162.646 45.9783 162.393 46.2337 162.139 46.2337H160.872C160.618 46.2337 160.491 45.9783 160.491 45.7228V11.75C160.491 5.875 157.322 2.1712 152.378 2.1712C147.56 2.1712 144.391 5.74728 144.391 11.75V45.7228C144.391 45.9783 144.137 46.2337 144.01 46.2337H142.743C142.489 46.2337 142.362 45.9783 142.362 45.7228Z" fill="white"/>
<path d="M172.408 0.894024H173.676C173.93 0.894024 174.056 1.14946 174.056 1.27718V45.7228C174.056 45.9783 173.93 46.2337 173.676 46.2337H172.408C172.155 46.2337 171.901 45.9783 171.901 45.7228V1.27718C172.028 1.02174 172.155 0.894024 172.408 0.894024Z" fill="white"/>
<path d="M184.198 45.3397V1.78804C184.198 1.14946 184.705 0.766304 185.213 0.766304H193.707C199.792 0.766304 203.975 5.1087 203.975 10.9837V35.5054C203.975 41.5081 199.792 46.3614 193.707 46.3614H185.213C184.579 46.3614 184.198 45.9783 184.198 45.3397ZM193.707 44.3179C198.651 44.3179 201.82 40.3587 201.82 35.3777V10.9837C201.82 6.13043 198.524 2.68206 193.707 2.68206H186.227V44.4457H193.707V44.3179Z" fill="white"/>
<path d="M211.455 34.7391V12.2609C211.455 4.85326 215.639 0.255436 221.978 0.255436C228.316 0.255436 232.5 4.85326 232.5 12.0054V34.8668C232.5 42.019 228.316 46.6169 221.978 46.6169C215.639 46.7446 211.455 42.1467 211.455 34.7391ZM230.472 34.8668V12.1332C230.472 6.00272 227.175 2.29891 221.978 2.29891C216.78 2.29891 213.484 6.00272 213.484 12.2609V34.6114C213.484 40.8696 216.78 44.5734 221.978 44.5734C227.175 44.5734 230.472 40.9973 230.472 34.8668Z" fill="white"/>
<path d="M21.0377 32.1848V36.0163C21.0377 42.1467 16.9809 46.3614 11.0224 46.3614H1.89455C1.26067 46.3614 0.880341 45.9783 0.880341 45.3397V10.856C0.880341 4.59783 4.68362 0.383152 10.3885 0.383152C16.0935 0.383152 20.0235 4.59783 20.0235 10.856V13.6658C20.0235 18.2636 17.9951 21.5842 14.8257 22.8614C18.629 24.0109 21.0377 27.587 21.0377 32.1848ZM2.90876 21.9674H10.7689C15.0792 21.9674 17.8683 18.6467 17.8683 13.6658V10.856C17.8683 5.61956 14.9525 2.29891 10.3885 2.29891C5.8246 2.29891 2.90876 5.61956 2.90876 10.856V21.9674V21.9674ZM19.0093 32.1848C19.0093 27.2038 15.8399 23.8832 11.0224 23.8832H2.90876V44.3179H11.0224C15.8399 44.3179 19.0093 40.9973 19.0093 36.0163V32.1848V32.1848Z" stroke="white" stroke-width="0.5"/>
<path d="M29.4049 0.894024H30.6727C30.7995 0.894024 30.9262 1.02174 30.9262 1.27718V45.7228C30.9262 45.9783 30.7995 46.2337 30.5459 46.2337H29.2782C29.0246 46.2337 28.7711 45.9783 28.7711 45.7228V1.27718C28.8978 1.02174 29.1514 0.894024 29.4049 0.894024Z" stroke="white" stroke-width="0.5"/>
<path d="M39.8006 35.5054V11.4946C39.8006 5.23641 43.7306 0.638588 49.9426 0.638588H56.0279C56.2814 0.638588 56.4082 0.894023 56.4082 1.02174V2.1712C56.4082 2.42663 56.2814 2.55435 56.0279 2.55435H49.9426C44.8716 2.68207 41.829 6.38587 41.829 11.4946V22.0951H54.6334C54.8869 22.0951 55.0137 22.2228 55.0137 22.4783V23.6277C55.0137 23.8832 54.7601 24.1386 54.6334 24.1386H41.829V35.5054C41.829 40.7419 44.8716 44.3179 49.8159 44.3179H55.9011C56.1547 44.3179 56.2814 44.4457 56.2814 44.7011V45.8505C56.2814 46.106 56.1547 46.3614 55.9011 46.3614H49.9426C43.7306 46.3614 39.8006 41.6359 39.8006 35.5054Z" stroke="white" stroke-width="0.5"/>
<path d="M63.6344 45.7228V11.75C63.6344 4.85326 67.6913 0.255436 73.7765 0.255436C79.8618 0.255436 83.9186 4.85326 83.9186 11.75V45.7228C83.9186 45.9783 83.665 46.2337 83.4115 46.2337H82.1437C81.8902 46.2337 81.7634 45.9783 81.7634 45.7228V11.75C81.7634 5.875 78.594 2.1712 73.6497 2.1712C68.8322 2.1712 65.6628 5.74728 65.6628 11.75V45.7228C65.6628 45.9783 65.4093 46.2337 65.2825 46.2337H64.0148C63.7612 46.2337 63.6344 45.9783 63.6344 45.7228Z" stroke="white" stroke-width="0.5"/>
<path d="M112.063 1.27717L102.681 45.3397C102.555 45.9783 102.174 46.2337 101.54 46.2337H100.273C99.6388 46.2337 99.2585 45.8505 99.1317 45.3397L89.877 1.27717C89.7503 1.02174 90.0038 0.766304 90.2574 0.766304H91.5251C91.7787 0.766304 91.9055 0.894021 92.0322 1.14946L101.16 44.0625L110.161 1.14946C110.288 0.894021 110.415 0.766304 110.668 0.766304H111.809C111.936 0.894021 112.19 1.02174 112.063 1.27717Z" stroke="white" stroke-width="0.5"/>
<path d="M117.007 35.5054V11.4946C117.007 5.23641 120.937 0.638588 127.149 0.638588H133.234C133.488 0.638588 133.615 0.894023 133.615 1.02174V2.1712C133.615 2.42663 133.488 2.55435 133.234 2.55435H127.149C122.205 2.68207 119.036 6.38587 119.036 11.4946V22.0951H131.84C132.093 22.0951 132.22 22.2228 132.22 22.4783V23.6277C132.22 23.8832 131.967 24.1386 131.84 24.1386H119.036V35.5054C119.036 40.7419 122.078 44.3179 127.022 44.3179H133.108C133.361 44.3179 133.488 44.4457 133.488 44.7011V45.8505C133.488 46.106 133.361 46.3614 133.108 46.3614H127.022C120.937 46.3614 117.007 41.6359 117.007 35.5054Z" stroke="white" stroke-width="0.5"/>
<path d="M140.841 45.7228V11.75C140.841 4.85326 144.898 0.255436 150.983 0.255436C157.068 0.255436 161.125 4.85326 161.125 11.75V45.7228C161.125 45.9783 160.872 46.2337 160.618 46.2337H159.35C159.097 46.2337 158.97 45.9783 158.97 45.7228V11.75C158.97 5.875 155.801 2.1712 150.856 2.1712C146.039 2.1712 142.869 5.74728 142.869 11.75V45.7228C142.869 45.9783 142.616 46.2337 142.489 46.2337H141.221C140.968 46.2337 140.841 45.9783 140.841 45.7228Z" stroke="white" stroke-width="0.5"/>
<path d="M171.014 0.894024H172.281C172.535 0.894024 172.662 1.14946 172.662 1.27718V45.7228C172.662 45.9783 172.535 46.2337 172.281 46.2337H171.014C170.76 46.2337 170.507 45.9783 170.507 45.7228V1.27718C170.507 1.02174 170.76 0.894024 171.014 0.894024Z" stroke="white" stroke-width="0.5"/>
<path d="M182.677 45.3397V1.78804C182.677 1.14946 183.184 0.766304 183.691 0.766304H192.185C198.271 0.766304 202.454 5.1087 202.454 10.9837V35.5054C202.454 41.5081 198.271 46.3614 192.185 46.3614H183.691C183.184 46.3614 182.677 45.9783 182.677 45.3397ZM192.312 44.3179C197.256 44.3179 200.426 40.3587 200.426 35.3777V10.9837C200.426 6.13043 197.13 2.68206 192.312 2.68206H184.832V44.4457H192.312V44.3179Z" stroke="white" stroke-width="0.5"/>
<path d="M209.934 34.7391V12.2609C209.934 4.85326 214.117 0.255436 220.456 0.255436C226.795 0.255436 230.979 4.85326 230.979 12.0054V34.8668C230.979 42.019 226.795 46.6169 220.456 46.6169C214.117 46.7446 209.934 42.1467 209.934 34.7391ZM228.95 34.8668V12.1332C228.95 6.00272 225.654 2.29891 220.456 2.29891C215.258 2.29891 211.962 6.00272 211.962 12.3886V34.7391C211.962 40.9973 215.258 44.7011 220.456 44.7011C225.654 44.7011 228.95 40.9973 228.95 34.8668Z" stroke="white" stroke-width="0.5"/>
</svg>
